<?xml version="1.0" encoding="UTF-8"?>
<svg width="434px" height="32px" viewBox="0 0 434 32" version="1.1" xmlns="http://www.w3.org/2000/svg" xmlns:xlink="http://www.w3.org/1999/xlink">
    <!-- Generator: Sketch 51.2 (57519) - http://www.bohemiancoding.com/sketch -->
    <title>Group 5 Copy</title>
    <desc>Created with Sketch.</desc>
    <defs></defs>
    <g id="Theme-4" stroke="none" stroke-width="1" fill="none" fill-rule="evenodd">
        <g id="Group-5-Copy">
            <rect id="Rectangle-3" fill="#0D46BB" x="73" y="0" width="69" height="32"></rect>
            <path d="M0.6,31.4 L68.4,31.4 L68.4,0.6 L21,0.6 C9.7333911,0.6 0.6,9.7333911 0.6,21 L0.6,31.4 Z" id="Rectangle-3-Copy-6" stroke="#0D46BB" stroke-width="1.2"></path>
            <path d="M365.6,31.4 L433.4,31.4 L433.4,0.6 L386,0.6 C374.733391,0.6 365.6,9.7333911 365.6,21 L365.6,31.4 Z" id="Rectangle-3-Copy-5" stroke="#0D46BB" stroke-width="1.2" transform="translate(399.500000, 16.000000) scale(-1, 1) translate(-399.500000, -16.000000) "></path>
            <rect id="Rectangle-3-Copy" stroke="#0D46BB" stroke-width="1.2" x="73.6" y="0.6" width="67.8" height="30.8"></rect>
            <rect id="Rectangle-3-Copy-2" stroke="#0D46BB" stroke-width="1.2" x="146.6" y="0.6" width="67.8" height="30.8"></rect>
            <rect id="Rectangle-3-Copy-3" stroke="#0D46BB" stroke-width="1.2" x="219.6" y="0.6" width="67.8" height="30.8"></rect>
            <rect id="Rectangle-3-Copy-4" stroke="#0D46BB" stroke-width="1.2" x="292.6" y="0.6" width="67.8" height="30.8"></rect>
            <text id="DT" font-family="ArialMT, Arial" font-size="12" font-weight="normal" letter-spacing="0.3075" fill="#0D46BB">
                <tspan x="26" y="20">DT</tspan>
            </text>
            <text id="Mp" font-family="ArialMT, Arial" font-size="12" font-weight="normal" letter-spacing="0.3075" fill="#FFFFFF">
                <tspan x="99" y="20">Mp</tspan>
            </text>
            <text id="Mi" font-family="ArialMT, Arial" font-size="12" font-weight="normal" letter-spacing="0.3075" fill="#0D46BB">
                <tspan x="174" y="21">Mi</tspan>
            </text>
            <text id="Mi-Copy-2" font-family="ArialMT, Arial" font-size="12" font-weight="normal" letter-spacing="0.3075" fill="#0D46BB">
                <tspan x="247" y="20">Mi</tspan>
            </text>
            <text id="Mp" font-family="ArialMT, Arial" font-size="12" font-weight="normal" letter-spacing="0.3075" fill="#0D46BB">
                <tspan x="318" y="20">Mp</tspan>
            </text>
            <text id="DT" font-family="ArialMT, Arial" font-size="12" font-weight="normal" letter-spacing="0.3075" fill="#0D46BB">
                <tspan x="391" y="20">DT</tspan>
            </text>
            <path d="M107.5,25.5 L107.5,30.5" id="Line-2-Copy" stroke="#FFFFFF" stroke-width="1.2" stroke-linecap="square"></path>
            <path d="M107.5,1.5 L107.5,6.5" id="Line-2-Copy-2" stroke="#FFFFFF" stroke-width="1.2" stroke-linecap="square"></path>
            <path d="M34.5,25.5 L34.5,30.5" id="Line-2-Copy-12" stroke="#0D46BB" stroke-width="1.2" stroke-linecap="square"></path>
            <path d="M34.5,1.5 L34.5,6.5" id="Line-2-Copy-11" stroke="#0D46BB" stroke-width="1.2" stroke-linecap="square"></path>
            <path d="M180.5,25.5 L180.5,30.5" id="Line-2-Copy-4" stroke="#0D46BB" stroke-width="1.2" stroke-linecap="square"></path>
            <path d="M180.5,1.5 L180.5,6.5" id="Line-2-Copy-3" stroke="#0D46BB" stroke-width="1.2" stroke-linecap="square"></path>
            <path d="M253.5,25.5 L253.5,30.5" id="Line-2-Copy-6" stroke="#0D46BB" stroke-width="1.2" stroke-linecap="square"></path>
            <path d="M253.5,1.5 L253.5,6.5" id="Line-2-Copy-5" stroke="#0D46BB" stroke-width="1.2" stroke-linecap="square"></path>
            <path d="M326.5,25.5 L326.5,30.5" id="Line-2-Copy-8" stroke="#0D46BB" stroke-width="1.2" stroke-linecap="square"></path>
            <path d="M326.5,1.5 L326.5,6.5" id="Line-2-Copy-7" stroke="#0D46BB" stroke-width="1.2" stroke-linecap="square"></path>
            <path d="M399.5,25.5 L399.5,30.5" id="Line-2-Copy-10" stroke="#0D46BB" stroke-width="1.2" stroke-linecap="square"></path>
            <path d="M399.5,1.5 L399.5,6.5" id="Line-2-Copy-9" stroke="#0D46BB" stroke-width="1.2" stroke-linecap="square"></path>
        </g>
    </g>
</svg>