<?xml version="1.0" standalone="no"?>
<!DOCTYPE svg PUBLIC "-//W3C//DTD SVG 1.1//EN" "http://www.w3.org/Graphics/SVG/1.1/DTD/svg11.dtd" >
<svg>
<metadata>
Created by FontForge 20090914 at Tue Jul 31 14:17:46 2018
 By www-data
&#194;&#169;2003 G-Type.  Designed and digitized by Nick Cooke  01943 461 808
</metadata>
<defs>
<font id="ChevinLight" horiz-adv-x="500" >
  <font-face 
    font-family="ChevinLight"
    font-weight="300"
    font-stretch="normal"
    units-per-em="1000"
    panose-1="0 0 3 0 0 0 0 0 0 0"
    ascent="800"
    descent="-200"
    x-height="498"
    cap-height="738"
    bbox="-68 -251.001 914 1005"
    underline-thickness="20"
    underline-position="-123"
    unicode-range="U+0020-U+F002"
  />
<missing-glyph 
d="M63 0h375v760h-375v-760zM125 63v635h250v-635h-250z" />
    <glyph glyph-name=".notdef" 
d="M63 0h375v760h-375v-760zM125 63v635h250v-635h-250z" />
    <glyph glyph-name="space" unicode=" " horiz-adv-x="288" 
 />
    <glyph glyph-name="exclam" unicode="!" horiz-adv-x="262" 
d="M173 699c0.666992 26 -11.668 39 -37.001 39c-26 0 -38.333 -13 -37 -39l8 -476c0.666992 -22 10.334 -33 29.001 -33c18 0 27.667 11 29 33zM183.998 38c0 13.333 -4.66895 24.668 -14.002 34.001s-20.666 14 -33.999 14s-24.666 -4.66699 -33.999 -14
s-14 -20.666 -14 -33.999c0 -12.667 4.83301 -23.834 14.5 -33.501s20.834 -14.5 33.501 -14.5c13.333 0 24.666 4.66699 33.999 14s14 20.666 14 33.999z" />
    <glyph glyph-name="quotedbl" unicode="&#x22;" horiz-adv-x="327" 
d="M277 700c1.33301 25.333 -10.3311 38 -34.998 38s-36.334 -12.667 -35.001 -38l7 -131c0.666992 -20 10 -30 28 -30c17.333 0 26.666 10 27.999 30zM117.003 700c1.33301 25.333 -10.3311 38 -34.998 38s-36.334 -12.667 -35.001 -38l7 -131c0.666992 -20 10 -30 28 -30
c17.333 0 26.666 10 27.999 30z" />
    <glyph glyph-name="numbersign" unicode="#" horiz-adv-x="752" 
d="M713 503c0 20.667 -10.3291 31.0029 -30.9961 31.0029h-122l25 168c3.33301 21.333 -5.33398 33.333 -26.001 36c-20.667 3.33301 -32.334 -5.33398 -35.001 -26.001l-27 -178h-201l26 168c3.33301 21.333 -5.33398 33.333 -26.001 36
c-8.66699 1.33301 -16.5 -0.5 -23.5 -5.5s-11.167 -11.833 -12.5 -20.5l-27 -178h-132c-20.667 0 -31 -10.333 -31 -31c0 -20 10.333 -30 31 -30h123l-33 -220h-133c-20.667 0 -31 -10.333 -31 -31c0 -8 3 -15 9 -21s13.333 -9 22 -9h123l-25 -166
c-2.66699 -20.667 6 -32.334 26 -35.001c21.333 -3.33301 33.333 5 36 25l26 176h201l-25 -166c-2.66699 -20.667 5.66602 -32.334 24.999 -35.001c21.333 -3.33301 33.333 5 36 25l27 176h131c8.66699 0 16 3 22 9s9 13 9 21c0 20.667 -10.333 31 -31 31h-122l33 220h132
c20.667 0 31 10 31 30zM487.004 473.003l-33 -220h-201l34 220h200z" />
    <glyph glyph-name="dollar" unicode="$" horiz-adv-x="573" 
d="M523 208c0 66.667 -22.3311 114.997 -66.998 144.997c-24.667 16.667 -63.334 30.334 -116.001 41.001c-79.333 16 -119.333 24 -120 24c-66.667 18.667 -100 57.334 -100 116.001c0 44 14.667 78.833 44 104.5s69.333 38.5 120 38.5c26 0 57 -5.33301 93 -16
c38 -10 59 -15 63 -15c20.667 0 31 11 31 33c0 12 -7 21.667 -21 29c-42 18.667 -91.333 28.334 -148 29.001v73c0 19.333 -9.66699 29 -29 29s-29 -9.66699 -29 -29v-75c-58 -6.66699 -104.167 -28.167 -138.5 -64.5s-51.5 -83.5 -51.5 -141.5c0 -74 30.333 -125 91 -153
c23.333 -11.333 59.666 -21.333 108.999 -30c29.333 -5.33301 52.833 -10 70.5 -14s29.834 -7 36.501 -9c64 -20 96 -59.667 96 -119c0 -46 -15.667 -82.667 -47 -110c-32.667 -28.667 -81.334 -43 -146.001 -43c-14.667 0 -31 1.5 -49 4.5s-38.333 7.16699 -61 12.5
c-44 12 -67.333 18 -70 18c-20 0 -30 -10.667 -30 -32c0 -14 6.66699 -24 20 -30c47.333 -21.333 104 -32.333 170 -33v-73c0 -19.333 9.66699 -29 29 -29s29 9.66699 29 29v74c70 5.33301 124.333 27 163 65s58 88.333 58 151z" />
    <glyph glyph-name="percent" unicode="%" horiz-adv-x="550" 
d="M271 562v66c0 32.667 -10 59.167 -30 79.5s-45.333 30.5 -76 30.5c-32 0 -57.833 -10.167 -77.5 -30.5s-29.5 -46.833 -29.5 -79.5v-66c0 -34 9.83301 -60.833 29.5 -80.5s45.5 -29.5 77.5 -29.5c30.667 0 56 9.83301 76 29.5s30 46.5 30 80.5zM426 706
c4.66699 14.667 -0.333984 25 -15.001 31c-15.333 6 -25.666 1.33301 -30.999 -14l-256 -700c-6 -16 -1 -26.333 15 -31c14.667 -6 25 -1.33301 31 14zM491.999 101v66c0 34 -9.83301 60.833 -29.5 80.5s-45.5 29.5 -77.5 29.5c-30.667 0 -56 -10.167 -76 -30.5
s-30 -46.833 -30 -79.5v-66c0 -34 10 -60.833 30 -80.5s45.333 -29.5 76 -29.5c32 0 57.833 9.83301 77.5 29.5s29.5 46.5 29.5 80.5zM222.999 559c0 -42 -19.333 -63 -58 -63c-39.333 0 -59 21 -59 63v71c0 42.667 19.667 64 59 64c38.667 0 58 -21.333 58 -64v-71z
M444.999 98c0 -42 -20 -63 -60 -63c-38.667 0 -58 21 -58 63v72c0 41.333 19.333 62 58 62c40 0 60 -20.667 60 -62v-72z" />
    <glyph glyph-name="ampersand" unicode="&#x26;" horiz-adv-x="617" 
d="M586 22c0 8.66699 -2.33203 15.6621 -6.99902 20.9951l-68 89c36 56.667 55.667 124.334 59 203.001c0.666992 9.33301 -2.16602 17.166 -8.49902 23.499s-13.833 9.5 -22.5 9.5c-20.667 0 -31.334 -10 -32.001 -30c-3.33301 -59.333 -16 -109.666 -38 -150.999l-194 255
l-34 45c-8 10.667 -13 17.667 -15 21c-18.667 28.667 -28 53.334 -28 74.001c0 30.667 10.667 55 32 73c18.667 16 40.667 24 66 24c34 0 62.667 -8.33301 86 -25c2.66699 -1.33301 6.5 -4.66602 11.5 -9.99902s11.167 -12.333 18.5 -21c12 -13.333 21.333 -20 28 -20
c8.66699 0 16.167 3.16699 22.5 9.5s9.5 13.833 9.5 22.5c0 10 -6.16699 22.833 -18.5 38.5s-27.5 28.834 -45.5 39.501c-28.667 16.667 -66 25 -112 25c-42.667 0 -79.334 -12 -110.001 -36c-36 -29.333 -54 -68.666 -54 -117.999c0 -40.667 26.667 -95.667 80 -165
c-108 -64 -162 -138.667 -162 -224c0 -56 17 -103 51 -141c38 -42.667 90 -64 156 -64c86.667 0 157.667 30 213 90l58 -76c7.33301 -9.33301 16 -14 26 -14c8.66699 0 16.167 3.16699 22.5 9.5s9.5 13.833 9.5 22.5zM432.001 129.995
c-43.333 -53.333 -101 -80.001 -173 -80.001c-46 0 -82.333 15 -109 45c-24.667 26.667 -37 60.334 -37 101.001c0 68 45.333 126.333 136 175z" />
    <glyph glyph-name="quotesingle" unicode="'" horiz-adv-x="171" 
d="M121 700c1.33301 25.333 -10.666 38 -35.999 38c-24.667 0 -36.334 -12.667 -35.001 -38l7 -131c0.666992 -20 10 -30 28 -30s27.667 10 29 30z" />
    <glyph glyph-name="parenleft" unicode="(" horiz-adv-x="273" 
d="M225 -66c0 6 -1.33301 11.3359 -4 16.0029c-38.667 77.333 -65.667 144 -81 200c-17.333 65.333 -26 136.666 -26 213.999c0 163.333 35 299.666 105 408.999c4 6 6 13 6 21c0 20.667 -10.667 31 -32 31c-10.667 0 -19.334 -5 -26.001 -15
c-79.333 -120.667 -119 -269.334 -119 -446.001c0 -178 39.667 -326.667 119 -446c6.66699 -10 15.334 -15 26.001 -15c21.333 0 32 10.333 32 31z" />
    <glyph glyph-name="parenright" unicode=")" horiz-adv-x="273" 
d="M225 364c0 180.667 -39.333 329.333 -118 446c-7.33301 10 -16.333 15 -27 15c-21.333 0 -32 -10.333 -32 -31c0 -8 2 -15 6 -21c70 -110 105 -246.333 105 -409s-35 -299.334 -105 -410.001c-4 -7.33301 -6 -14 -6 -20c0 -20.667 10.667 -31 32 -31
c10.667 0 19.667 5 27 15c78.667 116.667 118 265.334 118 446.001z" />
    <glyph glyph-name="asterisk" unicode="*" horiz-adv-x="479" 
d="M428 600c-4.66699 14.667 -14.0039 22 -28.0039 22c-4 0 -8.33301 -1 -13 -3l-123 -47l6 132c0.666992 22 -9.66602 33 -30.999 33s-31.333 -11 -30 -33l6 -132l-123 47c-5.33301 2 -9.66602 3 -12.999 3c-14 0 -23.333 -7.33301 -28 -22c-1.33301 -5.33301 -2 -9 -2 -11
c0 -14 8 -23.333 24 -28l127 -35l-82 -103c-5.33301 -7.33301 -8 -14.666 -8 -21.999s3.33301 -14.166 10 -20.499s13.667 -9.5 21 -9.5c10.667 0 19.334 5.33301 26.001 16l72 110l73 -110c6.66699 -10.667 15.334 -16 26.001 -16c7.33301 0 14.333 3.16699 21 9.5
s10 13.166 10 20.499s-2.66699 14.666 -8 21.999l-82 103l127 35c16 4.66699 24 14 24 28c0 2 -0.666992 5.66699 -2 11z" />
    <glyph glyph-name="plus" unicode="+" horiz-adv-x="535" 
d="M474 273c0 20.667 -10.333 31 -31 31h-145v145c0 20 -10.333 30 -31 30c-20 0 -30 -10 -30 -30v-145h-145c-20.667 0 -31 -10.333 -31 -31s10.333 -31 31 -31h145v-145c0 -20 10 -30 30 -30c20.667 0 31 10 31 30v145h145c20.667 0 31 10.333 31 31z" />
    <glyph glyph-name="comma" unicode="," horiz-adv-x="219" 
d="M151 29c0 38.667 -16.334 58 -49.001 58c-13.333 0 -24.666 -4.5 -33.999 -13.5s-14 -20.167 -14 -33.5c0 -26 12.333 -41.333 37 -46c-2 -15.333 -8.66699 -28.333 -20 -39c-10.667 -10 -16 -17.333 -16 -22c0 -11.333 5.66699 -17 17 -17c13.333 0 29 10.333 47 31
c21.333 24.667 32 52 32 82z" />
    <glyph glyph-name="hyphen" unicode="-" horiz-adv-x="481" 
d="M406 293c0 20 -10 30 -30 30h-271c-20 0 -30 -10 -30 -30c0 -8.66699 3 -16 9 -22s13 -9 21 -9h271c8 0 15 3 21 9s9 13.333 9 22z" />
    <glyph glyph-name="hyphen" unicode="&#x2010;" horiz-adv-x="481" 
d="M406 293c0 20 -10 30 -30 30h-271c-20 0 -30 -10 -30 -30c0 -8.66699 3 -16 9 -22s13 -9 21 -9h271c8 0 15 3 21 9s9 13.333 9 22z" />
    <glyph glyph-name="period" unicode="." horiz-adv-x="224" 
d="M156 39c0 13.333 -4.66895 24.668 -14.002 34.001s-20.666 14 -33.999 14s-24.666 -4.66699 -33.999 -14s-14 -20.666 -14 -33.999c0 -12.667 4.83301 -23.834 14.5 -33.501s20.834 -14.5 33.501 -14.5c13.333 0 24.666 4.66699 33.999 14s14 20.666 14 33.999z" />
    <glyph glyph-name="slash" unicode="/" horiz-adv-x="308" 
d="M310 764c0.666992 2 1 5 1 9c0 20.667 -10.333 31 -31 31c-14.667 0 -24.334 -7 -29.001 -21l-263 -819c-0.666992 -2 -1 -5 -1 -9c0 -21.333 10.333 -32 31 -32c14.667 0 24.334 7.33301 29.001 22z" />
    <glyph glyph-name="zero" unicode="0" horiz-adv-x="560" 
d="M506 255v219c0 75.333 -17.333 136.333 -52 183c-40 54 -98 81 -174 81s-134 -27 -174 -81c-34.667 -46.667 -52 -107.667 -52 -183v-219c0 -76 17.333 -137.333 52 -184c40 -53.333 98 -80 174 -80s134 26.667 174 80c34.667 46.667 52 108 52 184zM440 257
c0 -62 -12.667 -110.667 -38 -146c-28 -38.667 -68.667 -58 -122 -58c-54.667 0 -95.334 19.333 -122.001 58c-25.333 35.333 -38 84 -38 146v214c0 61.333 12.667 110.333 38 147c26.667 38.667 67.334 58 122.001 58c53.333 0 94 -19.333 122 -58
c25.333 -36.667 38 -85.667 38 -147v-214z" />
    <glyph glyph-name="one" unicode="1" horiz-adv-x="560" 
d="M488 31c0 21.333 -10.333 32 -31 32h-111v642c0 22 -11 33 -33 33c-9.33301 0 -16.333 -2.33301 -21 -7l-242 -167c-9.33301 -7.33301 -14 -16.333 -14 -27c0 -20.667 10.333 -31 31 -31c6.66699 0 12.667 2 18 6l195 135v-584h-182
c-8.66699 0 -16.167 -3.16699 -22.5 -9.5s-9.5 -13.833 -9.5 -22.5s3.16699 -16 9.5 -22s13.833 -9 22.5 -9h359c20.667 -0 31 10.333 31 31z" />
    <glyph glyph-name="two" unicode="2" horiz-adv-x="560" 
d="M491 32c0 20.667 -10.3311 31.001 -30.998 31.001h-325c9.33301 54 45.333 106.333 108 157l82 64.5l81 64.5c56.667 54 85 114 85 180c0 58 -16.667 106.333 -50 145c-36.667 42.667 -89.667 64 -159 64c-78.667 0 -142.334 -22 -191.001 -66
c-7.33301 -7.33301 -11 -15.333 -11 -24s3.16699 -16.334 9.5 -23.001s13.833 -10 22.5 -10c6 0 14 4 24 12c15.333 12.667 28.666 21.667 39.999 27c30.667 15.333 65.667 23 105 23c47.333 0 84 -14.667 110 -44c22.667 -25.333 34 -60 34 -104
c0 -54.667 -29.667 -108 -89 -160l-85 -66l-84 -66c-68 -62 -102 -130.333 -102 -205c0 -21.333 10.667 -32 32 -32h363c20.667 0 31 10.667 31 32z" />
    <glyph glyph-name="three" unicode="3" horiz-adv-x="560" 
d="M478 198c0 93.333 -45.668 153.666 -137.001 180.999c79.333 29.333 119 84 119 164c0 51.333 -14.667 94.666 -44 129.999c-35.333 43.333 -88 65 -158 65c-78 0 -139.333 -24 -184 -72c-8 -9.33301 -12 -17.666 -12 -24.999c0 -19.333 9.66699 -29 29 -29
c6 0 13.667 4 23 12c14 12.667 25.667 21.667 35 27c31.333 18.667 67.333 28 108 28c49.333 0 86.666 -15 111.999 -45c20 -25.333 30 -57.333 30 -96c0 -46 -19 -80.333 -57 -103c-27.333 -17.333 -62.666 -27.666 -105.999 -30.999c-21.333 -1.33301 -32 -11.333 -32 -30
c0 -18 10.667 -27.667 32 -29c118 -2 177 -49.667 177 -143c0 -44.667 -13.333 -80.667 -40 -108c-29.333 -30 -70.333 -45 -123 -45c-46 0 -85 10 -117 30c-10 6 -22.333 15.333 -37 28c-9.33301 8 -16.666 12 -21.999 12c-8 0 -15 -3 -21 -9s-9 -13.333 -9 -22
c0 -8 3.66699 -15.667 11 -23c49.333 -49.333 115 -74 197 -74c72 0 128.667 21 170 63c37.333 38.667 56 86.667 56 144z" />
    <glyph glyph-name="four" unicode="4" horiz-adv-x="560" 
d="M502 181c0 20.667 -10.001 31 -30.001 31h-64v163c0 21.333 -10.667 32 -32 32c-22 0 -33 -10.667 -33 -32v-163h-205l211 479c2 4 3 8 3 12c0 22.667 -11 34 -33 34c-14 0 -24 -6.66699 -30 -20l-229 -520c-2.66699 -5.33301 -4 -10.666 -4 -15.999
c0 -21.333 10.333 -32 31 -32h256v-126c0 -8.66699 3.33301 -16.334 10 -23.001s14.334 -10 23.001 -10c21.333 0 32 11 32 33v126h64c20 0 30 10.667 30 32z" />
    <glyph glyph-name="five" unicode="5" horiz-adv-x="560" 
d="M486 218c0 72 -18.5 127.334 -55.5 166.001s-88.833 58 -155.5 58c-42.667 0 -79.334 -12 -110.001 -36l8 261h241c21.333 0 32 10.333 32 31s-10.667 31 -32 31h-270c-21.333 0 -32.333 -10.333 -33 -31l-11 -350c-1.33301 -22 9 -33 31 -33c8.66699 0 17 4 25 12l33 30
c22.667 16.667 50.334 25 83.001 25c98.667 0 148 -54.667 148 -164c0 -48 -12.667 -86.667 -38 -116c-29.333 -33.333 -71.333 -50 -126 -50c-48.667 0 -89.334 13 -122.001 39c-5.33301 4.66699 -11.666 7 -18.999 7c-8.66699 0 -16.167 -3.33301 -22.5 -10
s-9.5 -14.334 -9.5 -23.001c0 -11.333 5 -20.333 15 -27c41.333 -31.333 94 -47 158 -47c76 0 134.667 23.667 176 71c36 40.667 54 92.667 54 156z" />
    <glyph glyph-name="six" unicode="6" horiz-adv-x="560" 
d="M494 217c0 72 -21.3311 127.332 -63.998 165.999c-39.333 35.333 -89.333 53 -150 53c-42.667 0 -83.334 -12.667 -122.001 -38c34.667 96.667 99 191 193 283c7.33301 7.33301 11 15 11 23c0 22 -11.333 33 -34 33c-8.66699 0 -16.334 -3.33301 -23.001 -10
c-161.333 -161.333 -242 -317.333 -242 -468c0 -83.333 19.333 -148.666 58 -195.999c38.667 -48 90.667 -72 156 -72c66 0 118.333 20.333 157 61c40 40.667 60 95.667 60 165zM428.002 215.999c0 -52 -13.499 -92.334 -40.499 -121.001s-63.833 -43 -110.5 -43
c-42.667 0 -77.334 16.333 -104.001 49c-29.333 37.333 -44 90 -44 158c0 20 2 40 6 60c42.667 38.667 89.667 58 141 58c45.333 0 81.333 -13.333 108 -40c29.333 -29.333 44 -69.666 44 -120.999z" />
    <glyph glyph-name="seven" unicode="7" horiz-adv-x="560" 
d="M495 698c0 20.667 -10.332 30.999 -30.999 30.999h-375c-20.667 0 -31 -10.333 -31 -31s10.333 -31 31 -31h330l-249 -631c-1.33301 -5.33301 -2 -9.33301 -2 -12c0 -9.33301 3.16699 -17.166 9.5 -23.499s13.833 -9.5 22.5 -9.5c15.333 0 25.666 7 30.999 21l260 665
c2.66699 6 4 13 4 21z" />
    <glyph glyph-name="eight" unicode="8" horiz-adv-x="560" 
d="M515 187c0 52.667 -16.665 95.668 -49.998 129.001c-23.333 24 -61.333 47 -114 69c84 42 126 98 126 168c0 57.333 -19 103 -57 137c-36.667 31.333 -83.334 47 -140.001 47s-103.334 -15.333 -140.001 -46c-40 -34 -60 -80.667 -60 -140c0 -76 43 -133.333 129 -172
c-52 -22.667 -90.333 -46.334 -115 -71.001c-32.667 -32.667 -49 -73.334 -49 -122.001c0 -61.333 22.667 -109.666 68 -144.999c43.333 -33.333 99 -50 167 -50c70 0 126.667 17.667 170 53c43.333 36 65 83.667 65 143zM413.002 548.001c0 -33.333 -13 -61.333 -39 -84
c-19.333 -17.333 -50 -35 -92 -53c-46 17.333 -78 34 -96 50c-27.333 23.333 -41 52.666 -41 87.999c0 40.667 12.5 72.334 37.5 95.001s57.5 34 97.5 34s72.167 -11.167 96.5 -33.5s36.5 -54.5 36.5 -96.5zM449.002 189.001c0 -42 -15.167 -75.502 -45.5 -100.502
s-71.833 -37.5 -124.5 -37.5c-50 0 -90.5 12.5 -121.5 37.5s-46.5 58.833 -46.5 101.5c0 40.667 17.333 74.334 52 101.001c10.667 8.66699 25.5 17.834 44.5 27.501s42.5 20.167 70.5 31.5c58 -22 97.667 -40.667 119 -56c34.667 -26.667 52 -61.667 52 -105z" />
    <glyph glyph-name="nine" unicode="9" horiz-adv-x="560" 
d="M501 469c0 41.333 -5.00098 78.501 -15.001 111.501s-24.333 61.167 -43 84.5s-41.167 41.166 -67.5 53.499s-55.5 18.5 -87.5 18.5c-65.333 0 -118 -20.333 -158 -61c-39.333 -41.333 -59 -96.333 -59 -165c0 -71.333 21.333 -126.333 64 -165
c38.667 -36 88.667 -54 150 -54c42.667 0 83.334 12.667 122.001 38c-33.333 -94 -98 -188.333 -194 -283c-6.66699 -6.66699 -10 -14 -10 -22c0 -9.33301 3.16699 -17.333 9.5 -24s14.166 -10 23.499 -10c8.66699 0 16.334 3.33301 23.001 10c161.333 160 242 316 242 468z
M434.999 469.001c0 -9.33301 -0.500977 -18.832 -1.50098 -28.499s-2.16699 -20.167 -3.5 -31.5c-43.333 -38 -90.666 -57 -141.999 -57c-45.333 0 -81.333 13.333 -108 40c-28.667 28 -43 68 -43 120s13.5 92.333 40.5 121s63.5 43 109.5 43c43.333 0 78 -16.333 104 -49
c29.333 -36.667 44 -89.334 44 -158.001z" />
    <glyph glyph-name="colon" unicode=":" horiz-adv-x="224" 
d="M156 356c0 13.333 -4.66699 24.666 -14 33.999s-20.666 14 -33.999 14s-24.666 -4.66699 -33.999 -14s-14 -20.666 -14 -33.999s4.66699 -24.666 14 -33.999s20.666 -14 33.999 -14s24.666 4.66699 33.999 14s14 20.666 14 33.999zM156 39
c0 13.333 -4.66895 24.668 -14.002 34.001s-20.666 14 -33.999 14s-24.666 -4.66699 -33.999 -14s-14 -20.666 -14 -33.999c0 -12.667 4.83301 -23.834 14.5 -33.501s20.834 -14.5 33.501 -14.5c13.333 0 24.666 4.66699 33.999 14s14 20.666 14 33.999z" />
    <glyph glyph-name="semicolon" unicode=";" horiz-adv-x="220" 
d="M151 356c0 13.333 -4.66699 24.666 -14 33.999s-20.666 14 -33.999 14c-12.667 0 -23.834 -4.66699 -33.501 -14s-14.5 -20.666 -14.5 -33.999c0 -12.667 4.83301 -23.834 14.5 -33.501s20.834 -14.5 33.501 -14.5c13.333 0 24.666 4.83301 33.999 14.5
s14 20.834 14 33.501zM152 29c0 38.667 -16.334 58 -49.001 58c-13.333 0 -24.666 -4.5 -33.999 -13.5s-14 -20.167 -14 -33.5c0 -26 12.333 -41.333 37 -46c-2 -15.333 -8.66699 -28.333 -20 -39c-10.667 -10 -16 -17.333 -16 -22c0 -11.333 5.66699 -17 17 -17
c13.333 0 29 10.333 47 31c21.333 24.667 32 52 32 82z" />
    <glyph glyph-name="less" unicode="&#x3c;" horiz-adv-x="422" 
d="M336 15c19.333 0 28.998 9.66699 28.998 29c0 8.66699 -3 15.667 -9 21l-223 208l223 208c6 4.66699 9 11.667 9 21c0 20 -10 30 -30 30c-7.33301 0 -13.666 -2.66699 -18.999 -8l-243 -227c-8 -7.33301 -12 -15.333 -12 -24c0 -9.33301 4 -17.333 12 -24l243 -226
c6.66699 -5.33301 13.334 -8 20.001 -8z" />
    <glyph glyph-name="equal" unicode="=" horiz-adv-x="581" 
d="M497 365c0 8 -3 15 -9 21s-13.333 9 -22 9h-351c-8.66699 0 -16 -3 -22 -9s-9 -13 -9 -21c0 -20.667 10.333 -31 31 -31h351c20.667 0 31 10.333 31 31zM497 186c0 8 -3 15 -9 21s-13.333 9 -22 9h-351c-8.66699 0 -16 -3 -22 -9s-9 -13 -9 -21
c0 -20.667 10.333 -31 31 -31h351c20.667 0 31 10.333 31 31z" />
    <glyph glyph-name="greater" unicode="&#x3e;" horiz-adv-x="422" 
d="M361 273c0 8.66699 -4.00195 16.667 -12.002 24l-243 227c-5.33301 5.33301 -11.666 8 -18.999 8c-20 0 -30 -10 -30 -30c0 -8 3 -15 9 -21l222 -208l-222 -208c-6 -6 -9 -13 -9 -21c0 -19.333 9.66699 -29 29 -29c6.66699 0 13.334 2.66699 20.001 8l243 226
c8 6.66699 12 14.667 12 24z" />
    <glyph glyph-name="question" unicode="?" horiz-adv-x="488" 
d="M430 548c0 62 -21.668 110.667 -65.001 146c-37.333 29.333 -81 44 -131 44c-63.333 0 -115 -15 -155 -45c-23.333 -17.333 -35 -32 -35 -44c0 -20.667 10.667 -31 32 -31c7.33301 0 13.666 2.66699 18.999 8c34.667 34.667 79.667 52 135 52
c34.667 0 64.667 -10.667 90 -32c29.333 -25.333 44 -59.333 44 -102c0 -32 -8 -58.333 -24 -79c-5.33301 -7.33301 -14.166 -17 -26.499 -29s-28.166 -25.667 -47.499 -41c-33.333 -27.333 -56.333 -52.333 -69 -75c-14.667 -25.333 -22 -57.333 -22 -96
c0 -21.333 10.333 -32 31 -32s31 10.333 31 31c0 24.667 4 45 12 61c10.667 22 33 47 67 75c42 33.333 69.667 60.333 83 81c20.667 29.333 31 65.333 31 108zM254.999 39c0 13.333 -4.66895 24.668 -14.002 34.001s-20.666 14 -33.999 14s-24.666 -4.66699 -33.999 -14
s-14 -20.666 -14 -33.999c0 -12.667 4.83301 -23.834 14.5 -33.501s20.834 -14.5 33.501 -14.5c13.333 0 24.666 4.66699 33.999 14s14 20.666 14 33.999z" />
    <glyph glyph-name="at" unicode="@" horiz-adv-x="831" 
d="M762 385c0 82 -25 149.668 -75 203.001c-59.333 63.333 -147.666 95 -264.999 95c-110.667 0 -199 -40.667 -265 -122c-59.333 -72.667 -89 -158.334 -89 -257.001c0 -96 25.667 -173.667 77 -233c56.667 -66.667 141 -100 253 -100c45.333 0 92 6 140 18
c15.333 4 23 12.333 23 25c0 16.667 -8 25 -24 25l-38 -8c-16.667 -3.33301 -33.334 -6 -50.001 -8s-33.667 -3 -51 -3c-96 0 -168 28.333 -216 85c-41.333 49.333 -62 116 -62 200c0 85.333 25 159.666 75 222.999c56 71.333 132 107 228 107
c101.333 0 177 -26.333 227 -79c41.333 -44.667 62 -102 62 -172c0 -49.333 -12.667 -91.666 -38 -126.999s-55.333 -53 -90 -53c-36.667 0 -55 24.333 -55 73c0 10.667 1 22.5 3 35.5s4.66699 27.833 8 44.5l21 94c4 17.333 -1.33301 28.333 -16 33c-36 12 -72 18 -108 18
c-55.333 0 -100.333 -24 -135 -72c-32 -43.333 -48 -92 -48 -146c0 -35.333 8 -64.333 24 -87c18.667 -26.667 45 -40 79 -40c52 0 94.667 23 128 69c15.333 -47.333 47.666 -71 96.999 -71c52.667 0 96.334 23.333 131.001 70c32.667 44.667 49 98 49 160zM506 441.001
l-23 -105.999c-6.66699 -33.333 -20.334 -62 -41.001 -86c-22 -24.667 -48.333 -37 -79 -37c-36 0 -54 24.333 -54 73c0 41.333 11.667 78.666 35 111.999c24.667 36.667 55.334 55 92.001 55c22.667 0 46 -3.66699 70 -11z" />
    <glyph glyph-name="A" unicode="A" horiz-adv-x="561" 
d="M545 32c-58 224.667 -132.002 447.334 -222.002 668.001c-11.333 25.333 -25.333 38 -42 38s-30.667 -12.667 -42 -38c-46 -113.333 -87.5 -225.333 -124.5 -336s-69.833 -221.334 -98.5 -332.001c-0.666992 -2 -1 -5 -1 -9c0 -21.333 11 -32 33 -32
c16 0 26 8.33301 30 25c4.66699 19.333 10.834 42.5 18.501 69.5l27.5 93.5h312c6.66699 -20.667 13.667 -44.5 21 -71.5l24 -91.5c4.66699 -16.667 15.334 -25 32.001 -25c22 0 33 10.333 33 31c0 4.66699 -0.333008 8 -1 10zM417.998 241h-276
c38.667 128 84.667 257.333 138 388c26 -66 50.5 -131.167 73.5 -195.5s44.5 -128.5 64.5 -192.5z" />
    <glyph glyph-name="B" unicode="B" horiz-adv-x="625" 
d="M564 186l0.000976562 27c0 83.333 -43.333 137.333 -130 162c66 26.667 99 75 99 145v31c0 53.333 -16.333 95.333 -49 126c-36.667 34.667 -90.334 52 -161.001 52h-205c-8.66699 0 -16.334 -3.16699 -23.001 -9.5s-10 -14.166 -10 -23.499v-663
c0 -8.66699 3.33301 -16.334 10 -23.001s14.334 -10 23.001 -10h224c148 0 222 62 222 186zM467.001 516c0 -78 -66 -117 -198 -117h-118v267h171c96.667 0 145 -40 145 -120v-30zM498.001 190c0 -41.333 -10.334 -72 -31.001 -92c-25.333 -24 -67 -36 -125 -36h-191v277
h173c54.667 0 97.334 -10.667 128.001 -32s46 -52 46 -92v-25z" />
    <glyph glyph-name="C" unicode="C" horiz-adv-x="550" 
d="M509 86c0 20.667 -9.99902 30.667 -29.999 30c-6 0 -12 -2.5 -18 -7.5l-19 -15.5c-34.667 -27.333 -76.334 -41 -125.001 -41c-64.667 0 -111.334 20.333 -140.001 61s-43 104.334 -43 191.001v120c0 168.667 63 253 189 253c48 0 87 -13 117 -39
c18.667 -15.333 30.667 -23 36 -23c20.667 0.666992 31 11 31 31c0 6.66699 -3.66699 14.667 -11 24c-39.333 45.333 -97 68 -173 68c-87.333 0 -152.666 -29.667 -195.999 -89c-39.333 -54.667 -59 -129.334 -59 -224.001v-121c0 -208.667 83 -313 249 -313
c76.667 0 137 23.667 181 71c7.33301 8.66699 11 16.667 11 24z" />
    <glyph glyph-name="D" unicode="D" horiz-adv-x="641" 
d="M573 270v187c0 181.333 -85.667 272 -257 272h-198c-8.66699 0 -16.334 -3.16699 -23.001 -9.5s-10 -14.166 -10 -23.499v-663c0 -8.66699 3.33301 -16.334 10 -23.001s14.334 -10 23.001 -10h198c171.333 0 257 90 257 270zM507 271c0 -139.333 -64.333 -209 -193 -209
h-163v603h163c128.667 0 193 -69.667 193 -209v-185z" />
    <glyph glyph-name="E" unicode="E" horiz-adv-x="548" 
d="M508 32c0 20.667 -10.333 31 -31 31h-326v270h283c20.667 0 31 10.333 31 31s-10.333 31 -31 31h-283v270h311c20.667 0 31 10.667 31 32c0 8.66699 -3 16.167 -9 22.5s-13.333 9.5 -22 9.5h-345c-8.66699 0 -16.167 -3.16699 -22.5 -9.5s-9.5 -13.833 -9.5 -22.5v-665
c0 -8.66699 3.16699 -16.167 9.5 -22.5s13.833 -9.5 22.5 -9.5h360c20.667 0 31 10.667 31 32z" />
    <glyph glyph-name="F" unicode="F" horiz-adv-x="513" 
d="M485 697c0 8.66699 -3.16797 16.168 -9.50098 22.501s-13.833 9.5 -22.5 9.5h-336c-8.66699 0 -16.167 -3.16699 -22.5 -9.5s-9.5 -13.833 -9.5 -22.5v-673c0 -8.66699 3.33301 -16.334 10 -23.001s14.334 -10 23.001 -10c22 0 33 11 33 33v309h254
c20.667 0 31 10.333 31 31s-10.333 31 -31 31h-254v270h302c21.333 0 32 10.667 32 32z" />
    <glyph glyph-name="G" unicode="G" horiz-adv-x="608" 
d="M548 239v92c0 22 -10.667 33 -32 33h-178c-20.667 0 -31 -10.333 -31 -31s10.333 -31 31 -31h146v-64c0 -124 -55.667 -186 -167 -186c-64 0 -110.5 20.333 -139.5 61s-43.5 104.334 -43.5 191.001v120c0 168.667 63.333 253 190 253c46.667 0 85.667 -13 117 -39
c18.667 -15.333 30.667 -23 36 -23c21.333 1.33301 32 11.666 32 30.999c0 8 -3.66699 15.667 -11 23c-39.333 46 -97.333 69 -174 69c-88 0 -153.667 -29.667 -197 -89c-39.333 -53.333 -59 -128 -59 -224v-121c0 -208.667 83.333 -313 250 -313c76 0 134 23 174 69
c37.333 43.333 56 103 56 179z" />
    <glyph glyph-name="H" unicode="H" horiz-adv-x="669" 
d="M583 24v681c0 22 -11 33 -33 33c-8.66699 0 -16.334 -3.16699 -23.001 -9.5s-10 -14.166 -10 -23.499v-316h-366v316c0 22 -11 33 -33 33c-8.66699 0 -16.334 -3.16699 -23.001 -9.5s-10 -14.166 -10 -23.499v-681c0 -8.66699 3.33301 -16.334 10 -23.001
s14.334 -10 23.001 -10c22 0 33 11 33 33v303h366v-303c0 -8.66699 3.33301 -16.334 10 -23.001s14.334 -10 23.001 -10c22 0 33 11 33 33z" />
    <glyph glyph-name="I" unicode="I" horiz-adv-x="237" 
d="M151 24v681c0 22 -11 33 -33 33c-8.66699 0 -16.334 -3.16699 -23.001 -9.5s-10 -14.166 -10 -23.499v-681c0 -8.66699 3.33301 -16.334 10 -23.001s14.334 -10 23.001 -10c22 0 33 11 33 33z" />
    <glyph glyph-name="J" unicode="J" horiz-adv-x="425" 
d="M350 254l-0.000976562 451c0 9.33301 -3.16699 17.166 -9.5 23.499s-14.166 9.5 -23.499 9.5c-8.66699 0 -16.334 -3.16699 -23.001 -9.5s-10 -14.166 -10 -23.499v-451c0 -71.333 -12.833 -122.5 -38.5 -153.5s-68.5 -46.5 -128.5 -46.5c-21.333 0 -37.333 1 -48 3
c-23.333 4 -34.333 6 -33 6c-20.667 0 -31 -10.667 -31 -32c0 -16.667 8.66699 -27 26 -31c26.667 -6 55.334 -9 86.001 -9c155.333 0 233 87.667 233 263z" />
    <glyph glyph-name="K" unicode="K" horiz-adv-x="554" 
d="M531 40c-34.667 60 -72.168 121 -112.501 183s-84.166 125.667 -131.499 191l226 270c4.66699 5.33301 7 12 7 20c0 8.66699 -3.16699 16.5 -9.5 23.5s-13.833 10.5 -22.5 10.5c-10 0 -18.333 -4 -25 -12l-312 -384v363c0 22 -11 33 -33 33
c-8.66699 0 -16.334 -3.16699 -23.001 -9.5s-10 -14.166 -10 -23.499v-681c0 -8.66699 3.33301 -16.334 10 -23.001s14.334 -10 23.001 -10c22 0 33 11 33 33v228l93 112c42 -58 81.833 -116.5 119.5 -175.5l109.5 -179.5c6.66699 -12 16 -18 28 -18
c8.66699 0 16.667 3.16699 24 9.5s11 13.833 11 22.5c0 6 -1.66699 11.667 -5 17z" />
    <glyph glyph-name="L" unicode="L" horiz-adv-x="514" 
d="M508 32c0 8.66699 -3.16602 15.999 -9.49902 21.999s-13.833 9 -22.5 9h-325v642c0 22 -11 33 -33 33c-8.66699 0 -16.334 -3.16699 -23.001 -9.5s-10 -14.166 -10 -23.499v-673c0 -8.66699 3.16699 -16.167 9.5 -22.5s13.833 -9.5 22.5 -9.5h359
c8.66699 0 16.167 3.16699 22.5 9.5s9.5 13.833 9.5 22.5z" />
    <glyph glyph-name="M" unicode="M" horiz-adv-x="775" 
d="M689 707c0 20.667 -10.667 31 -32 31c-14 0 -24 -6.33301 -30 -19l-239 -507l-238 506c-6 13.333 -16.667 20 -32 20c-22 0 -33 -10.333 -33 -31v-685c0 -20.667 10.333 -31 31 -31s31 10.333 31 31v565l209 -448c6 -12.667 16 -19 30 -19c14.667 0 25 6.33301 31 19
l210 449v-566c0 -20.667 10.333 -31 31 -31s31 10.333 31 31v685z" />
    <glyph glyph-name="N" unicode="N" horiz-adv-x="666" 
d="M581 22v685c0 20.667 -10.333 31 -31 31s-31 -10.333 -31 -31v-582l-368 594c-8 12.667 -19 19 -33 19c-22 0 -33 -10.333 -33 -31v-685c0 -20.667 10.333 -31 31 -31s31 10.333 31 31v581l369 -595c7.33301 -11.333 18 -17 32 -17c22 0 33 10.333 33 31z" />
    <glyph glyph-name="O" unicode="O" horiz-adv-x="625" 
d="M557 261v207c0 76.667 -17.667 138.667 -53 186c-43.333 56 -107 84 -191 84c-85.333 0 -149 -28 -191 -84c-36 -47.333 -54 -109.333 -54 -186v-207c0 -77.333 18 -139.333 54 -186c42 -56 105.667 -84 191 -84c84 0 147.667 28 191 84c35.333 47.333 53 109.333 53 186
zM491 261c0 -139.333 -59.333 -209 -178 -209c-119.333 0 -179 69.667 -179 209v207c0 139.333 59.667 209 179 209c118.667 0 178 -69.667 178 -209v-207z" />
    <glyph glyph-name="P" unicode="P" horiz-adv-x="585" 
d="M541 486v50c0 53.333 -17 97 -51 131c-41.333 41.333 -101 62 -179 62h-193c-8.66699 0 -16.334 -3.16699 -23.001 -9.5s-10 -14.166 -10 -23.499v-672c0 -8.66699 3.33301 -16.334 10 -23.001s14.334 -10 23.001 -10c22 0 33 11 33 33v274h171c34 0 64.5 4.5 91.5 13.5
s50 21.833 69 38.5s33.5 36.5 43.5 59.5s15 48.5 15 76.5zM475 487c0 -37.333 -12.333 -67.333 -37 -90c-28.667 -25.333 -68 -38 -118 -38h-169v307h157c60 0 104.333 -14.333 133 -43c22.667 -22.667 34 -51.667 34 -87v-49z" />
    <glyph glyph-name="Q" unicode="Q" horiz-adv-x="625" 
d="M553 -31c8 0 15.333 3.33301 22 10s10 14 10 22c0 8.66699 -3.66699 16 -11 22l-66 58c32.667 46.667 49 106.667 49 180v207c0 76.667 -17.667 138.667 -53 186c-43.333 56 -107 84 -191 84c-85.333 0 -149 -28 -191 -84c-36 -47.333 -54 -109.333 -54 -186v-207
c0 -77.333 18 -139.333 54 -186c42 -56 105.667 -84 191 -84c62 0 113.333 15.667 154 47l65 -60c6.66699 -6 13.667 -9 21 -9zM491 261c0 -56 -10.334 -101.333 -31.001 -136l-42 37c-7.33301 6 -14.666 9 -21.999 9c-18.667 0 -28 -9.66699 -28 -29
c0 -8 3.66699 -15.667 11 -23l41 -37c-29.333 -20 -65 -30 -107 -30c-119.333 0 -179 69.667 -179 209v207c0 139.333 59.667 209 179 209c118.667 0 178 -69.667 178 -209v-207z" />
    <glyph glyph-name="R" unicode="R" horiz-adv-x="598" 
d="M544 39c-20 39.333 -43.667 82.167 -71 128.5l-93 151.5c52.667 10 93.667 33 123 69c25.333 32.667 38 70 38 112v45c0 52.667 -18 95.667 -54 129c-39.333 36.667 -98.333 55 -177 55h-192c-8.66699 0 -16.334 -3.16699 -23.001 -9.5s-10 -14.166 -10 -23.499v-672
c0 -8.66699 3.33301 -16.334 10 -23.001s14.334 -10 23.001 -10c22 0 33 11 33 33v286h157c70.667 -109.333 129.667 -209.333 177 -300c6.66699 -12.667 16 -19 28 -19c9.33301 0 17.5 3.16699 24.5 9.5s10.5 13.833 10.5 22.5c0 6 -1.33301 11.333 -4 16zM475 500.001
c0 -35.333 -12.333 -64.333 -37 -87c-29.333 -28 -72 -42 -128 -42h-159v296h158c58 0 101.667 -13 131 -39c23.333 -21.333 35 -49 35 -83v-45z" />
    <glyph glyph-name="S" unicode="S" horiz-adv-x="573" 
d="M523 209c0 65.333 -22.6641 113.667 -67.9971 145c-23.333 15.333 -61.333 28.666 -114 39.999c-75.333 14.667 -115.666 22.667 -120.999 24c-66.667 18.667 -100 57.334 -100 116.001c0 44 14.667 78.833 44 104.5s69.333 38.5 120 38.5c26 0 57 -5.33301 93 -16
c38 -10 59 -15 63 -15c20.667 0 31 11 31 33c0 13.333 -7 23 -21 29c-45.333 20 -101.666 30 -168.999 30c-66.667 0 -121.334 -18.667 -164.001 -56c-42 -37.333 -63 -88 -63 -152c0 -74.667 30.333 -126 91 -154c23.333 -11.333 59.666 -21.333 108.999 -30
c29.333 -5.33301 52.666 -10 69.999 -14s29.333 -7 36 -9c64.667 -20.667 97 -60 97 -118c0 -46.667 -15.667 -83.667 -47 -111c-32.667 -28.667 -81.334 -43 -146.001 -43c-32.667 0 -63.334 3 -92.001 9c-20 4 -39.667 10 -59 18c-15.333 6 -25 9 -29 9
c-20 0 -30 -11 -30 -33c0 -13.333 6.66699 -23 20 -29c50 -22.667 114.333 -34 193 -34c80 0 142.667 19.167 188 57.5s68 91.833 68 160.5z" />
    <glyph glyph-name="T" unicode="T" horiz-adv-x="558" 
d="M551 697c0 8.66699 -3.16699 16.167 -9.5 22.5s-13.833 9.5 -22.5 9.5h-480c-8.66699 0 -16.167 -3.16699 -22.5 -9.5s-9.5 -13.833 -9.5 -22.5c0 -21.333 10.667 -32 32 -32h207v-641c0 -8.66699 3.33301 -16.334 10 -23.001s14.334 -10 23.001 -10
c9.33301 0 17.166 3.33301 23.499 10s9.5 14.334 9.5 23.001v641h207c21.333 0 32 10.667 32 32z" />
    <glyph glyph-name="U" unicode="U" horiz-adv-x="626" 
d="M557 237l0.00292969 467.999c0 22 -11 33 -33 33c-8.66699 0 -16.334 -3.16699 -23.001 -9.5s-10 -14.166 -10 -23.499v-467c0 -55.333 -13.667 -99.333 -41 -132c-30.667 -36.667 -76.334 -55 -137.001 -55s-106.334 18.333 -137.001 55c-28 32 -42 76 -42 132v467
c0 9.33301 -3.16699 17.166 -9.5 23.499s-14.166 9.5 -23.499 9.5c-8.66699 0 -16.334 -3.16699 -23.001 -9.5s-10 -14.166 -10 -23.499v-468c0 -71.333 19.667 -129.333 59 -174c42.667 -48 104.667 -72 186 -72c80 0 141.667 24 185 72c39.333 44.667 59 102.667 59 174z
" />
    <glyph glyph-name="V" unicode="V" horiz-adv-x="561" 
d="M546 699c0.666992 2 0.999023 5.00098 0.999023 9.00098c0 20 -10.333 30 -31 30c-14.667 0 -24 -7.33301 -28 -22c-26.667 -89.333 -57 -184.833 -91 -286.5l-115 -328.5c-38 103.333 -73.833 205.666 -107.5 306.999s-65.5 203.333 -95.5 306
c-5.33301 16 -15.666 24 -30.999 24c-8.66699 0 -16.5 -3 -23.5 -9s-10.5 -13.667 -10.5 -23c0 -2 0.666992 -5.66699 2 -11c56 -191.333 131 -415.333 225 -672c8 -21.333 21 -32 39 -32c16.667 0 29 10.667 37 32c50 134 93.833 257.167 131.5 369.5
s70.167 214.5 97.5 306.5z" />
    <glyph glyph-name="W" unicode="W" horiz-adv-x="859" 
d="M840 707c0 20.667 -11.3281 31.001 -33.9951 31.001c-16.667 0 -27 -8.66699 -31 -26c-20.667 -92 -43.834 -188.167 -69.501 -288.5s-54.167 -206.166 -85.5 -317.499l-77.5 290c-25 98 -49.167 199 -72.5 303c-6 26 -19.333 39 -40 39c-21.333 0 -35 -13 -41 -39
c-44.667 -194.667 -94.667 -392.334 -150 -593.001c-29.333 102 -56.833 203.167 -82.5 303.5s-49.834 201.166 -72.501 302.499c-4 17.333 -14.333 26 -31 26c-22.667 0 -34 -10.333 -34 -31c0 -24 26 -133.333 78 -328l52.5 -191l44.5 -159
c7.33301 -25.333 21.666 -38 42.999 -38c20.667 0 34.667 12.667 42 38c62 220 112 411 150 573c46.667 -199.333 96.667 -390.333 150 -573c7.33301 -25.333 21.666 -38 42.999 -38s35.666 12.667 42.999 38c64.667 224.667 122.667 447.667 174 669
c0 2 0.333008 3.66699 1 5v4z" />
    <glyph glyph-name="X" unicode="X" horiz-adv-x="539" 
d="M533 23c0 4.66699 -1.66504 10.333 -4.99805 17c-27.333 46.667 -59.166 98.334 -95.499 155.001l-123.5 185c36 52 69.667 103.5 101 154.5s61.333 102.5 90 154.5c2.66699 4.66699 4 10.334 4 17.001c0 8.66699 -3.33301 16.167 -10 22.5s-14.667 9.5 -24 9.5
c-11.333 0 -20.333 -6 -27 -18c-52.667 -96 -110.334 -190.333 -173.001 -283c-31.333 45.333 -61.333 91.333 -90 138s-56.334 95 -83.001 145c-7.33301 12 -16.666 18 -27.999 18c-8.66699 0 -16.334 -3.16699 -23.001 -9.5s-10 -13.833 -10 -22.5
c0 -6.66699 1.33301 -12.334 4 -17.001c28.667 -52 58.667 -103.5 90 -154.5s65 -102.5 101 -154.5l-117 -174.5l-102 -165.5c-3.33301 -6.66699 -5 -12.334 -5 -17.001c0 -8.66699 3.5 -16.167 10.5 -22.5s14.833 -9.5 23.5 -9.5c10.667 0 19.667 5.66699 27 17l94 153
l108 162c73.333 -106 140.666 -211.333 201.999 -316c6 -10.667 15 -16 27 -16c8.66699 0 16.5 3.16699 23.5 9.5s10.5 13.833 10.5 22.5z" />
    <glyph glyph-name="Y" unicode="Y" horiz-adv-x="492" 
d="M492 706c0 9.33301 -3.50098 17.002 -10.501 23.002s-14.833 9 -23.5 9c-12.667 0 -22 -6.66699 -28 -20c-24 -56.667 -51.167 -116.167 -81.5 -178.5s-64.5 -128.5 -102.5 -198.5l-14 27c-70.667 134.667 -127 251.334 -169 350.001c-6 13.333 -15.667 20 -29 20
c-8.66699 0 -16.5 -3.16699 -23.5 -9.5s-10.5 -13.833 -10.5 -22.5c0 -4.66699 1 -9.33398 3 -14.001c25.333 -58.667 55.333 -123.334 90 -194.001l119 -232v-242c0 -8.66699 3.33301 -16.334 10 -23.001s14.334 -10 23.001 -10c22 0 33 11 33 33v242
c42.667 78 81.5 152.5 116.5 223.5s66.5 138.833 94.5 203.5c2 4.66699 3 9 3 13z" />
    <glyph glyph-name="Z" unicode="Z" 
d="M482 32c0 20.667 -10.333 31 -31 31h-349l369 607c6.66699 10.667 10 19.667 10 27c0 21.333 -10.333 32 -31 32h-402c-8.66699 0 -16 -3.16699 -22 -9.5s-9 -13.833 -9 -22.5c0 -21.333 10.333 -32 31 -32h344l-367 -603c-6.66699 -10.667 -10 -20.667 -10 -30
c0 -21.333 10.667 -32 32 -32h404c20.667 0 31 10.667 31 32z" />
    <glyph glyph-name="bracketleft" unicode="[" horiz-adv-x="247" 
d="M201 -65c0 8.66699 -3.16699 16.167 -9.5 22.5s-13.833 9.5 -22.5 9.5h-53v793h53c21.333 0 32 10.333 32 31c0 21.333 -10.667 32 -32 32h-87c-21.333 0 -32 -10.667 -32 -32v-856c0 -21.333 10.667 -32 32 -32h87c21.333 0 32 10.667 32 32z" />
    <glyph glyph-name="backslash" unicode="\" horiz-adv-x="353" 
d="M359 -21l-303 798c-5.33301 13.333 -15 20 -29 20c-20.667 0 -31 -10.333 -31 -31c0 -3.33301 0.666992 -7 2 -11l304 -798c5.33301 -13.333 15 -20 29 -20c20 0 30 10.333 30 31c0 3.33301 -0.666992 7 -2 11z" />
    <glyph glyph-name="bracketright" unicode="]" horiz-adv-x="247" 
d="M197 -65v856c0 21.333 -10.667 32 -32 32h-87c-21.333 0 -32 -10.667 -32 -32c0 -20.667 10.667 -31 32 -31h53v-793h-53c-8.66699 0 -16.167 -3.16699 -22.5 -9.5s-9.5 -13.833 -9.5 -22.5c0 -21.333 10.667 -32 32 -32h87c21.333 0 32 10.667 32 32z" />
    <glyph glyph-name="asciicircum" unicode="^" horiz-adv-x="489" 
d="M438 460l-161 256c-9.33301 14 -20 21 -32 21c-13.333 0 -24.333 -7 -33 -21l-161 -256c-3.33301 -5.33301 -5 -10.666 -5 -15.999c0 -20.667 10.667 -31 32 -31c10.667 0 19 4.66699 25 14l142 226l141 -226c6 -9.33301 14.667 -14 26 -14c20.667 0 31 10.333 31 31
c0 5.33301 -1.66699 10.666 -5 15.999z" />
    <glyph glyph-name="underscore" unicode="_" horiz-adv-x="463" 
d="M493 -133c0 20 -9.66699 30 -29 30h-464c-8 0 -15 -3 -21 -9s-9 -13 -9 -21c0 -19.333 10 -29 30 -29h464c19.333 0 29 9.66699 29 29z" />
    <glyph glyph-name="grave" unicode="`" horiz-adv-x="530" 
d="M334 635l-84 151.001c-6 10.667 -15 16 -27 16c-20 0 -30 -9.66699 -30 -29c0 -5.33301 1.33301 -10.333 4 -15l89 -148c6 -9.33301 14 -14 24 -14c18.667 0 28 8.66699 28 26c0 5.33301 -1.33301 9.66602 -4 12.999z" />
    <glyph glyph-name="a" unicode="a" horiz-adv-x="489" 
d="M450 23c0 11.333 -5.33301 19.332 -16 23.999c-19.333 9.33301 -29 31.333 -29 66v196c0 66 -12 114 -36 144c-27.333 34 -74.666 51 -141.999 51c-58 0 -104.667 -11.333 -140 -34c-10 -6 -15 -14 -15 -24c0 -19.333 9.66699 -29 29 -29c6 0 11.333 1.33301 16 4
c32 18 68 27 108 27c45.333 0 76.666 -11 93.999 -33c14.667 -18.667 22 -52.667 22 -102v-27h-125c-60 0 -105.667 -13.667 -137 -41c-27.333 -25.333 -41 -58.666 -41 -99.999v-8c0 -42 13 -75.333 39 -100c29.333 -28.667 73.666 -43 132.999 -43
c64.667 0 111.667 18.667 141 56c4.66699 -15.333 11.334 -27 20.001 -35c14.667 -14 30.667 -21 48 -21c20.667 0 31 9.66699 31 29zM341 166.999c0 -79.333 -41 -119 -123 -119c-77.333 0 -116 29.333 -116 88v9c0 58.667 39.333 88 118 88h121v-66z" />
    <glyph glyph-name="b" unicode="b" horiz-adv-x="507" 
d="M452 194v101c0 139.333 -57 209 -171 209c-50.667 0 -95 -17 -133 -51v239c0 21.333 -10.667 32 -32 32s-32 -10.667 -32 -32v-579c0 -33.333 -7 -54 -21 -62l-16 -10.5c-5.33301 -3.66699 -8 -9.5 -8 -17.5c0 -19.333 10.667 -29 32 -29c12 0 24.333 4.5 37 13.5
s21.667 19.167 27 30.5c39.333 -29.333 84.333 -44 135 -44c121.333 0 182 66.667 182 200zM388 191c0 -92.667 -41.333 -139 -124 -139c-44 0 -82.667 14.667 -116 44v289c32 40.667 73.333 61 124 61c77.333 0 116 -48.333 116 -145v-110z" />
    <glyph glyph-name="c" unicode="c" horiz-adv-x="415" 
d="M383 61c-4.66699 10.667 -12.332 15.998 -22.999 15.998c-5.33301 0 -10.333 -1.33301 -15 -4c-28.667 -14.667 -60.334 -22 -95.001 -22c-87.333 0 -131 53.667 -131 161v74c0 48.667 11.5 87.5 34.5 116.5s55.5 43.5 97.5 43.5c34 0 64.667 -7 92 -21
c4.66699 -2.66699 9.33398 -4 14.001 -4c18.667 0 28 10 28 30c0 10 -5 18 -15 24c-33.333 19.333 -74 29 -122 29c-61.333 0 -109.333 -22 -144 -66c-32 -40 -48 -91.667 -48 -155v-70c0 -67.333 15.333 -119.666 46 -156.999c33.333 -41.333 81.666 -62 144.999 -62
c46 0 87.333 9.66699 124 29c16 8.66699 20 21.334 12 38.001z" />
    <glyph glyph-name="d" unicode="d" horiz-adv-x="507" 
d="M468 23c0 11.333 -5.33496 19.333 -16.002 24c-14 5.33301 -22.333 14.333 -25 27c-2.66699 6 -4 19 -4 39v579c0 21.333 -10.667 32 -32 32c-20.667 0 -31 -10.667 -31 -32v-232c-37.333 29.333 -79.666 44 -126.999 44c-118 0 -177 -72.667 -177 -218v-96
c0 -130.667 60.333 -196 181 -196c48.667 0 93.334 15.667 134.001 47c5.33301 -12.667 14.333 -23.667 27 -33s25.667 -14 39 -14c20.667 0 31 9.66699 31 29zM359.998 100c-37.333 -32 -76 -48 -116 -48c-44.667 0 -76.667 11.167 -96 33.5s-29 56.5 -29 102.5v104
c0 102.667 40.667 154 122 154c46 0 85.667 -17.667 119 -53v-293z" />
    <glyph glyph-name="e" unicode="e" horiz-adv-x="483" 
d="M435 297c0 138 -63.002 207 -189.002 207c-64.667 0 -113.667 -20.667 -147 -62c-28.667 -36.667 -43 -85.667 -43 -147v-93c0 -62 14.333 -110.667 43 -146c33.333 -41.333 82.333 -62 147 -62c62.667 0 115.667 13 159 39c14.667 8.66699 18.334 21 11.001 37
c-5.33301 11.333 -13.333 17 -24 17c-5.33301 0 -9.66602 -1.33301 -12.999 -4c-37.333 -21.333 -81.333 -32 -132 -32c-85.333 0 -128 49.333 -128 148v30h290c17.333 0 26 9 26 27v41zM372.998 303v-20h-254v19c0 97.333 42.333 146 127 146s127 -48.333 127 -145z" />
    <glyph glyph-name="f" unicode="f" horiz-adv-x="288" 
d="M317 697c0 20 -10 30.001 -30 30.001h-30c-67.333 0 -114.333 -18.333 -141 -55c-22.667 -30.667 -34 -79.334 -34 -146.001v-28h-35c-19.333 0 -29 -9.66699 -29 -29s9.66699 -29 29 -29h35v-414c0 -21.333 10.667 -32 32 -32c20.667 0 31 10.667 31 32v414h93
c19.333 0 29 9.66699 29 29s-9.66699 29 -29 29h-93v28c0 53.333 7.33301 89.333 22 108c16 22 47.333 33 94 33h26c20 0 30 10 30 30z" />
    <glyph glyph-name="g" unicode="g" horiz-adv-x="497" 
d="M424 472c0 21.333 -10.667 32.001 -32 32.001c-8.66699 0 -16.167 -3.16699 -22.5 -9.5s-9.5 -13.833 -9.5 -22.5v-17c-38.667 32.667 -81.667 49 -129 49c-116.667 0 -175 -69 -175 -207v-80c0 -134 57.333 -201 172 -201c47.333 0 91.333 14.667 132 44v-29
c0 -104.667 -43.333 -157 -130 -157c-17.333 0 -40 4 -68 12c-28 7.33301 -46.333 11 -55 11c-18.667 0 -28 -9.66699 -28 -29c0 -12.667 6.33301 -21.334 19 -26.001c37.333 -16.667 82.333 -25 135 -25c127.333 0 191 72 191 216v439zM360 123.001
c-34 -32 -75.333 -48 -124 -48c-78 0 -117 46 -117 138v89c0 95.333 39.667 143 119 143c48 0 88.667 -19 122 -57v-265z" />
    <glyph glyph-name="h" unicode="h" horiz-adv-x="519" 
d="M447 26l-0.000976562 298c0 120 -53.667 180 -161 180c-64 0 -113.667 -18.667 -149 -56v244c0 8.66699 -3.16699 16.167 -9.5 22.5s-13.833 9.5 -22.5 9.5c-21.333 0 -32 -10.667 -32 -32v-666c0 -21.333 10.667 -32 32 -32c8.66699 0 16.167 3.16699 22.5 9.5
s9.5 13.833 9.5 22.5v342c28 50 74.667 75 140 75c40.667 0 69.334 -11.333 86.001 -34c14 -19.333 21 -49 21 -89v-294c0 -21.333 10.667 -32 32 -32c20.667 0 31 10.667 31 32z" />
    <glyph glyph-name="i" unicode="i" horiz-adv-x="209" 
d="M144 671c0 10.667 -3.83301 19.834 -11.5 27.501s-16.834 11.5 -27.501 11.5s-19.834 -3.83301 -27.501 -11.5s-11.5 -16.834 -11.5 -27.501s3.83301 -19.834 11.5 -27.501s16.834 -11.5 27.501 -11.5s19.834 3.83301 27.501 11.5s11.5 16.834 11.5 27.501zM137 26v446
c0 8.66699 -3.16699 16.167 -9.5 22.5s-13.833 9.5 -22.5 9.5s-16.167 -3.16699 -22.5 -9.5s-9.5 -13.833 -9.5 -22.5v-446c0 -21.333 10.667 -32 32 -32c8.66699 0 16.167 3.16699 22.5 9.5s9.5 13.833 9.5 22.5z" />
    <glyph glyph-name="j" unicode="j" horiz-adv-x="209" 
d="M144 671c0 10.667 -3.83301 19.834 -11.5 27.501s-16.834 11.5 -27.501 11.5s-19.834 -3.83301 -27.501 -11.5s-11.5 -16.834 -11.5 -27.501s3.83301 -19.834 11.5 -27.501s16.834 -11.5 27.501 -11.5s19.834 3.83301 27.501 11.5s11.5 16.834 11.5 27.501zM137 472
c0 8.66699 -3.16699 16.167 -9.5 22.5s-13.833 9.5 -22.5 9.5s-16.167 -3.16699 -22.5 -9.5s-9.5 -13.833 -9.5 -22.5v-483c0 -42.667 -7 -72.167 -21 -88.5s-36 -24.833 -66 -25.5c-19.333 -1.33301 -29 -11 -29 -29c0 -19.333 9.66699 -29 29 -29
c100.667 0 151 58 151 174v481z" />
    <glyph glyph-name="k" unicode="k" horiz-adv-x="447" 
d="M428 38c-20.667 40.667 -45 82.8311 -73 126.498s-60 89.5 -96 137.5l150 152c5.33301 6.66699 8 13.667 8 21c0 19.333 -9.66699 29 -29 29c-7.33301 0 -14 -3 -20 -9l-231 -236v433c0 8.66699 -3.16699 16.167 -9.5 22.5s-13.833 9.5 -22.5 9.5
c-21.333 0 -32 -10.667 -32 -32v-666c0 -21.333 10.667 -32 32 -32c8.66699 0 16.167 3.16699 22.5 9.5s9.5 13.833 9.5 22.5v153l77 79c32 -42 61 -83.5 87 -124.5s49.333 -81.5 70 -121.5c6 -12 15 -18 27 -18c8.66699 0 16.5 2.83301 23.5 8.5s10.5 12.834 10.5 21.501
c0 4.66699 -1.33301 9.33398 -4 14.001z" />
    <glyph glyph-name="l" unicode="l" horiz-adv-x="221" 
d="M182 23c0 11.333 -5.33301 19.333 -16 24c-22 8.66699 -33 30.667 -33 66v579c0 21.333 -10.333 32 -31 32c-21.333 0 -32 -10.667 -32 -32v-596c0 -34.667 10.667 -61.667 32 -81c14.667 -14 31 -21 49 -21c20.667 0 31 9.66699 31 29z" />
    <glyph glyph-name="m" unicode="m" horiz-adv-x="820" 
d="M748 26l-0.00195312 298c0 120 -52.667 180 -158 180c-72 0 -126 -24 -162 -72c-23.333 48 -68.666 72 -135.999 72c-65.333 0 -116 -19.667 -152 -59c-4 12 -11 22.667 -21 32c-16 14 -32 21 -48 21c-21.333 0 -32 -10 -32 -30c0 -11.333 5.33301 -19.333 16 -24
c22 -10 33 -31.667 33 -65v-353c0 -21.333 10.667 -32 32 -32c8.66699 0 16.167 3.16699 22.5 9.5s9.5 13.833 9.5 22.5v349c26 45.333 69.667 68 131 68c38.667 0 66 -11 82 -33c14 -19.333 21 -49.333 21 -90v-294c0 -21.333 10.667 -32 32 -32
c8.66699 0 16.167 3.16699 22.5 9.5s9.5 13.833 9.5 22.5v298c0 14.667 -1 29 -3 43c24.667 50.667 69.334 76 134.001 76c38.667 0 66 -11 82 -33c14 -19.333 21 -49.333 21 -90v-294c0 -21.333 10.667 -32 32 -32s32 10.667 32 32z" />
    <glyph glyph-name="n" unicode="n" horiz-adv-x="534" 
d="M462 26v298.001c0 120 -53.667 180 -161 180c-70 0 -123 -21.333 -159 -64c-5.33301 15.333 -13 27.666 -23 36.999c-15.333 14 -31.333 21 -48 21c-21.333 0 -32 -10 -32 -30c0 -11.333 5.33301 -19.333 16 -24c22 -10 33 -31.667 33 -65v-353
c0 -21.333 10.667 -32 32 -32c8.66699 0 16.167 3.16699 22.5 9.5s9.5 13.833 9.5 22.5v342c28 50 74.667 75 140 75c40.667 0 69 -11.333 85 -34c14 -19.333 21 -49 21 -89v-294c0 -8.66699 3.16699 -16.167 9.5 -22.5s13.833 -9.5 22.5 -9.5c21.333 0 32 10.667 32 32z
" />
    <glyph glyph-name="o" unicode="o" 
d="M444 198v102c0 60.667 -15 108.667 -45 144c-33.333 40 -83 60 -149 60c-66.667 0 -116.334 -20 -149.001 -60c-30 -35.333 -45 -83.333 -45 -144v-102c0 -61.333 15 -109.333 45 -144c32.667 -40 82.334 -60 149.001 -60c66 0 115.667 20 149 60
c30 34.667 45 82.667 45 144zM380 198c0 -96 -43.333 -144 -130 -144c-87.333 0 -131 48 -131 144v102c0 95.333 43.667 143 131 143c86.667 0 130 -47.667 130 -143v-102z" />
    <glyph glyph-name="p" unicode="p" horiz-adv-x="507" 
d="M452 212v94.999c0 131.333 -60.333 197 -181 197c-48 0 -92.667 -15.667 -134 -47c-16 31.333 -38 47 -66 47c-21.333 0 -32 -10 -32 -30c0 -12 5.33301 -20.333 16 -25c11.333 -4.66699 19 -11.167 23 -19.5s6 -23.166 6 -44.499v-536c0 -21.333 10.667 -32 32 -32
s32 10.667 32 32v188c37.333 -28.667 79.333 -43 126 -43c118.667 0 178 72.667 178 218zM388 204.999c0 -102 -40.333 -153 -121 -153c-47.333 0 -87 17.667 -119 53v293c38 32 76.667 48 116 48c44.667 0 77 -11.333 97 -34c18 -21.333 27 -55.333 27 -102v-105z" />
    <glyph glyph-name="q" unicode="q" horiz-adv-x="507" 
d="M468 474c0 20 -10.3311 30 -30.998 30c-12.667 0 -25.334 -4.33301 -38.001 -13s-21.667 -19 -27 -31c-40.667 29.333 -85.334 44 -134.001 44c-121.333 0 -182 -66.667 -182 -200v-101c0 -139.333 57 -209 171 -209c50.667 0 95 17 133 51v-196
c0 -21.333 10.333 -32 31 -32c21.333 0 32 10.667 32 32v536c0 21.333 2 36 6 44c4 8.66699 11.333 15.334 22 20.001c11.333 5.33301 17 13.666 17 24.999zM360.002 402v-289c-32.667 -40.667 -74 -61 -124 -61c-78 0 -117 48.333 -117 145v110
c0 92.667 41.667 139 125 139c42 0 80.667 -14.667 116 -44z" />
    <glyph glyph-name="r" unicode="r" horiz-adv-x="372" 
d="M338 434c8.66699 0 15.999 3.33301 21.999 10s9 14.334 9 23.001c0 12.667 -6 21.667 -18 27c-16 6.66699 -38.667 10 -68 10c-60.667 0 -106.667 -23.667 -138 -71c-10 33.333 -31.667 54.666 -65 63.999c-2 0 -3.66699 0.333008 -5 1h-4c-21.333 0 -32 -10 -32 -30
c0 -11.333 5.33301 -19.333 16 -24c22 -10 33 -31.667 33 -65v-353c0 -21.333 10.667 -32 32 -32c8.66699 0 16.167 3.16699 22.5 9.5s9.5 13.833 9.5 22.5v309c13.333 71.333 54.333 107 123 107c8 0 18.833 -1.33301 32.5 -4s23.834 -4 30.501 -4z" />
    <glyph glyph-name="s" unicode="s" horiz-adv-x="422" 
d="M380 143c0 55.333 -23.9971 93.6689 -71.9971 115.002l-67 16.5l-66 16.5c-48 12.667 -72 36.667 -72 72c0 25.333 8.83301 45.666 26.5 60.999s43.5 23 77.5 23c36.667 0 70.667 -6.33301 102 -19c4 -1.33301 7.66699 -2 11 -2c18.667 0 28 9.66699 28 29
c0 13.333 -6.33301 22.333 -19 27c-34 14.667 -75.333 22 -124 22c-24 0 -45.833 -3.33301 -65.5 -10s-36.834 -16.167 -51.501 -28.5s-26 -27.333 -34 -45s-12 -37.5 -12 -59.5c0 -54 24 -91.333 72 -112l132 -33c48 -13.333 72 -38.333 72 -75c0 -60 -39.667 -90 -119 -90
c-44 0 -84 6.66699 -120 20c-4 1.33301 -7.66699 2 -11 2c-12.667 0 -21.334 -6.33301 -26.001 -19c-6.66699 -18.667 -1.33398 -31.334 15.999 -38.001c38 -14.667 84.667 -22 140 -22c56.667 0 101.167 12.833 133.5 38.5s48.5 62.5 48.5 110.5z" />
    <glyph glyph-name="t" unicode="t" horiz-adv-x="315" 
d="M304 30c0 8 -3 15.002 -9 21.002s-13 9 -21 9h-22c-42 0 -70.333 11.333 -85 34c-12.667 19.333 -19 57.666 -19 114.999v231h100c19.333 0 29 9.66699 29 29s-9.66699 29 -29 29h-100v120c0 21.333 -10.667 32 -32 32s-32 -10.667 -32 -32v-120h-35
c-19.333 0 -29 -9.66699 -29 -29s9.66699 -29 29 -29h35v-231c0 -70.667 10.333 -121.334 31 -152.001c24.667 -38 69 -57 133 -57h26c20 0 30 10 30 30z" />
    <glyph glyph-name="u" unicode="u" horiz-adv-x="535" 
d="M495 23c0 11.333 -5.33105 19.333 -15.998 24c-21.333 9.33301 -32 31.333 -32 66v359c0 8.66699 -3.16699 16.167 -9.5 22.5s-13.833 9.5 -22.5 9.5s-16.167 -3.16699 -22.5 -9.5s-9.5 -13.833 -9.5 -22.5v-337c-24.667 -52.667 -71.334 -79 -140.001 -79
c-40.667 0 -69.334 11 -86.001 33c-14 18 -21 47.667 -21 89v294c0 8.66699 -3.16699 16.167 -9.5 22.5s-13.833 9.5 -22.5 9.5s-16.167 -3.16699 -22.5 -9.5s-9.5 -13.833 -9.5 -22.5v-299c0 -119.333 54 -179 162 -179c68 0 120.667 20.667 158 62
c5.33301 -18 13 -31.667 23 -41c14.667 -14 31 -21 49 -21c20.667 0 31 9.66699 31 29z" />
    <glyph glyph-name="v" unicode="v" horiz-adv-x="446" 
d="M424 463c1.33301 4 2.00195 7.66602 2.00195 10.999c0 8.66699 -3.33301 15.834 -10 21.501s-14.334 8.5 -23.001 8.5c-14.667 0 -24.334 -7.33301 -29.001 -22l-69 -199.5l-74 -199.5c-55.333 142.667 -102.333 275.667 -141 399c-4.66699 14.667 -13.667 22 -27 22
c-22 0 -33 -10 -33 -30c0 -2.66699 0.666992 -6 2 -10c22 -68.667 46 -139.334 72 -212.001s54.333 -148 85 -226c9.33301 -21.333 23.333 -32 42 -32c18 0 31.667 10.667 41 32c61.333 150.667 115.333 296.334 162 437.001z" />
    <glyph glyph-name="w" unicode="w" horiz-adv-x="697" 
d="M673 467c0.666992 2 0.999023 4.66602 0.999023 7.99902c0 19.333 -10.333 29 -31 29c-15.333 0 -25 -7.66699 -29 -23l-59.5 -208.5l-55.5 -182.5l-61.5 201l-52.5 184c-5.33301 19.333 -17.333 29 -36 29c-19.333 0 -31.666 -9.66699 -36.999 -29l-52.5 -184
l-61.5 -201l-56.5 187l-57.5 204c-4 15.333 -13.667 23 -29 23c-20.667 0 -31 -9.66699 -31 -29c0 -3.33301 0.333008 -6 1 -8c34.667 -133.333 78.667 -281.666 132 -444.999c6 -18.667 19 -28 39 -28s33 9.33301 39 28l60 190l54 183l56 -190l57 -183
c6 -18.667 19 -28 39 -28s33 9.33301 39 28l71.5 231c22.333 74 42.833 145.333 61.5 214z" />
    <glyph glyph-name="x" unicode="x" horiz-adv-x="439" 
d="M408 40c-29.333 55.333 -79.333 128 -150 218c32 40.667 59.333 77.667 82 111s40.667 63.666 54 90.999c2.66699 4.66699 4 9.33398 4 14.001c0 8.66699 -3.5 15.834 -10.5 21.501s-14.5 8.5 -22.5 8.5c-12 0 -21 -6 -27 -18c-24 -46.667 -63.333 -106 -118 -178
c-53.333 70 -92.333 129 -117 177c-6.66699 12.667 -16 19 -28 19c-8.66699 0 -16.5 -3 -23.5 -9s-10.5 -13.333 -10.5 -22c0 -5.33301 1.33301 -10.333 4 -15c13.333 -25.333 31.166 -54.833 53.499 -88.5s49.5 -71.5 81.5 -113.5
c-72.667 -94.667 -122.334 -167.334 -149.001 -218.001c-2.66699 -4.66699 -4 -9.66699 -4 -15c0 -8 3.33301 -14.833 10 -20.5s14.334 -8.5 23.001 -8.5c11.333 0 20 5.66699 26 17c12.667 23.333 30 51.333 52 84s49 70 81 112
c30.667 -40.667 56.834 -77.167 78.501 -109.5s39.167 -60.833 52.5 -85.5c6 -12 15.333 -18 28 -18c8.66699 0 16.5 3 23.5 9s10.5 13.333 10.5 22c0 5.33301 -1.33301 10.333 -4 15z" />
    <glyph glyph-name="y" unicode="y" horiz-adv-x="443" 
d="M423 461c1.33301 5.33301 2.00098 9.33398 2.00098 12.001c0 20.667 -11 31 -33 31c-14.667 0 -24.334 -7.33301 -29.001 -22l-139 -405c-59.333 150 -108.333 285 -147 405c-4.66699 14.667 -14 22 -28 22c-22 0 -33 -10 -33 -30c0 -2.66699 0.666992 -6 2 -10
c19.333 -60 43.333 -128.667 72 -206l101 -262c-38 -77.333 -89 -116.333 -153 -117c-20 -1.33301 -30 -11.333 -30 -30c0 -22.667 11 -33.334 33 -32.001c58 1.33301 105.667 22 143 62c36 36.667 69.667 99.667 101 189z" />
    <glyph glyph-name="z" unicode="z" horiz-adv-x="414" 
d="M394 468c0 20 -10 30 -30 30h-295c-19.333 0 -29 -10 -29 -30s9.66699 -30 29 -30h237l-279 -388c-4 -5.33301 -6 -11.333 -6 -18c0 -21.333 10 -32 30 -32h313c20 0 30 10 30 30c0 19.333 -10 29 -30 29h-256l278 386c5.33301 7.33301 8 15 8 23z" />
    <glyph glyph-name="braceleft" unicode="{" horiz-adv-x="282" 
d="M243 -65c-0.666992 20.667 -10.998 30.998 -30.998 30.998h-5c-17.333 0 -31.833 7.5 -43.5 22.5s-17.5 36.5 -17.5 64.5c0 24 6.33301 57.333 19 100c13.333 45.333 20 79 20 101c0 51.333 -19.333 87.333 -58 108v3c38.667 20.667 58 57 58 109
c0 22 -6.66699 55.667 -20 101c-12.667 42.667 -19 75.667 -19 99c0 28 5.83301 49.667 17.5 65s26.167 23 43.5 23h5c19.333 0 29.666 10 30.999 30c1.33301 21.333 -9.33398 32 -32.001 32h-6c-18.667 0 -35.667 -3.66699 -51 -11s-28.5 -17.666 -39.5 -30.999
s-19.5 -29 -25.5 -47s-9 -37.667 -9 -59c0 -22.667 6.66699 -57 20 -103c14 -45.333 21 -78.666 21 -99.999c0 -28.667 -7 -50 -21 -64c-11.333 -11.333 -23.333 -17 -36 -17h-6c-18.667 0 -28 -9.33301 -28 -28s9.33301 -28 28 -28h6c13.333 0 25.333 -5.33301 36 -16
c14 -15.333 21 -37 21 -65c0 -22 -7 -55.333 -21 -100c-13.333 -46 -20 -80.667 -20 -104c0 -21.333 3 -41 9 -59s14.5 -33.5 25.5 -46.5s24.167 -23.167 39.5 -30.5s32.333 -11 51 -11h6c22 0 32.667 10.333 32 31z" />
    <glyph glyph-name="bar" unicode="|" horiz-adv-x="214" 
d="M140 -63v855c0 9.33301 -3.16699 17.166 -9.5 23.499s-14.166 9.5 -23.499 9.5c-8.66699 0 -16.334 -3.16699 -23.001 -9.5s-10 -14.166 -10 -23.499v-855c0 -22 11 -33 33 -33s33 11 33 33z" />
    <glyph glyph-name="braceright" unicode="}" horiz-adv-x="282" 
d="M253 364c0 18.667 -9.33301 28 -28 28h-6c-14 0 -26 5.66699 -36 17c-14 14 -21 35.333 -21 64c0 20.667 6.66699 54 20 100s20 80.333 20 103c0 44 -11.167 79.667 -33.5 107s-52.5 41 -90.5 41h-7c-20.667 0 -31 -10.667 -31 -32c0 -20 10 -30 30 -30h5
c17.333 0 32 -7.66699 44 -23s18 -37 18 -65c0 -20.667 -6.66699 -53.667 -20 -99c-12.667 -42.667 -19 -76.334 -19 -101.001c0 -52 19 -88.333 57 -109v-3c-38 -21.333 -57 -57.333 -57 -108c0 -24.667 6.33301 -58.334 19 -101.001c13.333 -45.333 20 -78.666 20 -99.999
c0 -28 -6 -49.5 -18 -64.5s-26.667 -22.5 -44 -22.5h-5c-20 0 -30 -10.333 -30 -31s10.333 -31 31 -31h7c38 0 68.167 13.833 90.5 41.5s33.5 62.834 33.5 105.501c0 23.333 -6.66699 58 -20 104s-20 79.333 -20 100c0 28 7 49.667 21 65c10 10.667 22 16 36 16h6
c18.667 0 28 9.33301 28 28z" />
    <glyph glyph-name="asciitilde" unicode="~" horiz-adv-x="502" 
d="M439 284c0 22 -11.002 32.999 -33.002 32.999c-6.66699 0 -17 -5 -31 -15c-14.667 -9.33301 -31 -14 -49 -14s-42 7.33301 -72 22s-57.333 22 -82 22c-29.333 0 -54.666 -6.33301 -75.999 -19c-22 -12 -33 -26.667 -33 -44c0 -9.33301 3.33301 -17.166 10 -23.499
s14.667 -9.5 24 -9.5c6.66699 0 16.667 4.66699 30 14c14 10 30.667 15 50 15c17.333 0 41 -7.33301 71 -22c30.667 -14 58.334 -21 83.001 -21c14 0 27.5 1.66699 40.5 5s24.5 7.66602 34.5 12.999s18 11.833 24 19.5s9 15.834 9 24.501z" />
    <glyph glyph-name="Euro Symbol" horiz-adv-x="589" 
d="M547 86c0 21.333 -9.66504 31.333 -28.998 30c-6.66699 0 -13 -2.5 -19 -7.5l-19 -15.5c-35.333 -27.333 -77 -41 -125 -41c-58.667 0 -102.167 16.667 -130.5 50s-44.833 85.333 -49.5 156h211c18 0 27 9 27 27s-9 27 -27 27h-213v103h213c18 0 27 8.66699 27 26
c0 18 -9 27 -27 27h-211c9.33301 139.333 71.666 209 186.999 209c48.667 0 87.667 -12.667 117 -38l17.5 -16c5.66699 -5.33301 11.5 -8 17.5 -8c20.667 0.666992 31 11 31 31c0 6.66699 -3.66699 14.667 -11 24c-39.333 45.333 -96.666 68 -171.999 68
c-156.667 0 -241.334 -90 -254.001 -270h-35c-18 0 -27 -9 -27 -27c0 -17.333 9 -26 27 -26h34v-103h-34c-18 0 -27 -9 -27 -27s9 -27 27 -27h35c12 -178 94.333 -267 247 -267c77.333 0 137.666 23.667 180.999 71c7.33301 8.66699 11 16.667 11 24z" />
    <glyph glyph-name="Euro Symbol" unicode="&#x20ac;" horiz-adv-x="589" 
d="M547 86c0 21.333 -9.66504 31.333 -28.998 30c-6.66699 0 -13 -2.5 -19 -7.5l-19 -15.5c-35.333 -27.333 -77 -41 -125 -41c-58.667 0 -102.167 16.667 -130.5 50s-44.833 85.333 -49.5 156h211c18 0 27 9 27 27s-9 27 -27 27h-213v103h213c18 0 27 8.66699 27 26
c0 18 -9 27 -27 27h-211c9.33301 139.333 71.666 209 186.999 209c48.667 0 87.667 -12.667 117 -38l17.5 -16c5.66699 -5.33301 11.5 -8 17.5 -8c20.667 0.666992 31 11 31 31c0 6.66699 -3.66699 14.667 -11 24c-39.333 45.333 -96.666 68 -171.999 68
c-156.667 0 -241.334 -90 -254.001 -270h-35c-18 0 -27 -9 -27 -27c0 -17.333 9 -26 27 -26h34v-103h-34c-18 0 -27 -9 -27 -27s9 -27 27 -27h35c12 -178 94.333 -267 247 -267c77.333 0 137.666 23.667 180.999 71c7.33301 8.66699 11 16.667 11 24z" />
    <glyph glyph-name="nonbreakingspace" unicode="&#xa0;" horiz-adv-x="288" 
 />
    <glyph glyph-name="exclamdown" unicode="&#xa1;" horiz-adv-x="252" 
d="M174 456c0 13.333 -4.66504 24.666 -13.998 33.999s-20.666 14 -33.999 14c-12.667 0 -23.834 -4.66699 -33.501 -14s-14.5 -20.666 -14.5 -33.999s4.66699 -24.666 14 -33.999s20.666 -14 33.999 -14s24.666 4.66699 33.999 14s14 20.666 14 33.999zM163.002 -205
l-7.99805 476c-1.33301 22 -11 33 -29 33c-18.667 0 -28.334 -11 -29.001 -33l-8 -476c-1.33301 -26 11 -39 37 -39c25.333 0 37.666 13 36.999 39z" />
    <glyph glyph-name="cent" unicode="&#xa2;" horiz-adv-x="415" 
d="M383 61c-4.66699 10.667 -12.334 15.999 -23.001 15.999c-5.33301 0 -10.333 -1.33301 -15 -4c-28.667 -14.667 -60.334 -22 -95.001 -22c-87.333 0 -131 53.667 -131 161v73c0 48.667 11.5 87.667 34.5 117s55.5 44 97.5 44c32.667 0 63.334 -7.33301 92.001 -22
c4.66699 -2.66699 9.33398 -4 14.001 -4c18.667 0 28 10 28 30c0 10 -5 18 -15 24c-27.333 16 -58.333 25 -93 27v58c0 18.667 -9.66699 28 -29 28s-29 -9.33301 -29 -28v-58c-53.333 -7.33301 -94.333 -31.666 -123 -72.999c-26.667 -38.667 -40 -87.334 -40 -146.001v-69
c0 -62 13 -111.333 39 -148c28 -40.667 69.333 -64 124 -70v-57c0 -19.333 9.66699 -29 29 -29s29 9.66699 29 29v58c32.667 2 64 11 94 27c16 8.66699 20 21.334 12 38.001z" />
    <glyph glyph-name="sterling" unicode="&#xa3;" horiz-adv-x="572" 
d="M520 32c0 20.667 -10.668 30.999 -32.001 30.999h-307c40.667 40.667 61 89 61 145c0 28.667 -7.33301 62 -22 100h154c19.333 0 29 9.66699 29 29s-9.66699 29 -29 29h-173c-26 66 -39 116 -39 150c0 40 12.667 74.667 38 104c30.667 34 74.334 51 131.001 51
c34.667 0 65 -3.33301 91 -10c34 -8.66699 50 -13 48 -13c20.667 0 31 11 31 33c0 14.667 -8 24.667 -24 30c-45.333 16 -95.333 24 -150 24c-74.667 0 -133 -23.667 -175 -71c-36.667 -40.667 -55 -89.667 -55 -147c0 -40.667 11.667 -91 35 -151h-30
c-19.333 0 -29 -9.66699 -29 -29s9.66699 -29 29 -29h50c16 -39.333 24 -72.666 24 -99.999c0 -57.333 -23 -103 -69 -137c-5.33301 -2.66699 -10.833 -5 -16.5 -7l-16.5 -6c-10.667 -6 -16 -14.667 -16 -26c0 -21.333 10.333 -32 31 -32h399c21.333 0 32 10.667 32 32z" />
    <glyph glyph-name="currency" unicode="&#xa4;" horiz-adv-x="589" 
d="M547 86c0 21.333 -9.66504 31.333 -28.998 30c-6.66699 0 -13 -2.5 -19 -7.5l-19 -15.5c-35.333 -27.333 -77 -41 -125 -41c-58.667 0 -102.167 16.667 -130.5 50s-44.833 85.333 -49.5 156h211c18 0 27 9 27 27s-9 27 -27 27h-213v103h213c18 0 27 8.66699 27 26
c0 18 -9 27 -27 27h-211c9.33301 139.333 71.666 209 186.999 209c48.667 0 87.667 -12.667 117 -38l17.5 -16c5.66699 -5.33301 11.5 -8 17.5 -8c20.667 0.666992 31 11 31 31c0 6.66699 -3.66699 14.667 -11 24c-39.333 45.333 -96.666 68 -171.999 68
c-156.667 0 -241.334 -90 -254.001 -270h-35c-18 0 -27 -9 -27 -27c0 -17.333 9 -26 27 -26h34v-103h-34c-18 0 -27 -9 -27 -27s9 -27 27 -27h35c12 -178 94.333 -267 247 -267c77.333 0 137.666 23.667 180.999 71c7.33301 8.66699 11 16.667 11 24z" />
    <glyph glyph-name="yen" unicode="&#xa5;" horiz-adv-x="492" 
d="M492 706c0 20.667 -11.333 31 -34 31c-14 0 -23.333 -6.33301 -28 -19c-24 -56.667 -51.167 -116.167 -81.5 -178.5s-64.5 -128.5 -102.5 -198.5l-14 27c-70.667 134.667 -127 251.334 -169 350.001c-4.66699 12.667 -14.334 19 -29.001 19c-8.66699 0 -16.5 -3 -23.5 -9
s-10.5 -13.333 -10.5 -22c0 -4.66699 1 -9.33398 3 -14.001c21.333 -50 43.833 -99.333 67.5 -148l73.5 -148h-88c-19.333 0 -29 -9.66699 -29 -29s9.66699 -29 29 -29h118c8.66699 -15.333 16 -29 22 -41l16 -31v-26h-156c-19.333 0 -29 -9.66699 -29 -29
s9.66699 -29 29 -29h156v-158c0 -8.66699 3.33301 -16.334 10 -23.001s14.334 -10 23.001 -10c22 0 33 11 33 33v158h157c18.667 0 28 9.66699 28 29s-9.33301 29 -28 29h-157v26c14 24.667 27 48.667 39 72h118c18.667 0 28 9.66699 28 29s-9.33301 29 -28 29h-88l77.5 154
c23.667 48.667 45.167 96 64.5 142c2 4.66699 3 9.33398 3 14.001z" />
    <glyph glyph-name="brokenbar" unicode="&#xa6;" horiz-adv-x="214" 
d="M140 460v332c0 21.333 -11 32 -33 32s-33 -10.667 -33 -32v-332c0 -22 11 -33 33 -33s33 11 33 33zM140 -63v332c0 9.33301 -3.16699 17.166 -9.5 23.499s-14.166 9.5 -23.499 9.5c-8.66699 0 -16.334 -3.16699 -23.001 -9.5s-10 -14.166 -10 -23.499v-332
c0 -9.33301 3.33301 -17.166 10 -23.499s14.334 -9.5 23.001 -9.5c9.33301 0 17.166 3.16699 23.499 9.5s9.5 14.166 9.5 23.499z" />
    <glyph glyph-name="section" unicode="&#xa7;" horiz-adv-x="544" 
d="M494 251c0 58.667 -25.332 102 -75.999 130c-17.333 10 -50 22 -98 36l-66 21c-16 5.33301 -26.667 9 -32 11c-51.333 21.333 -77 52.666 -77 93.999c0 40.667 14.667 72 44 94c26.667 19.333 61.334 29 104.001 29c22.667 0 49.667 -4.66699 81 -14
s45.666 -14 42.999 -14c19.333 0 29 10.667 29 32c0 12.667 -11.667 23.667 -35 33c-36.667 13.333 -76.667 20 -120 20c-58 0 -105.333 -14 -142 -42c-44 -33.333 -66 -80.666 -66 -141.999c0 -42.667 13 -76.334 39 -101.001c-46 -35.333 -69 -83 -69 -143
c0 -58.667 25.333 -102 76 -130c18.667 -10 51 -22 97 -36l66 -20.5c16 -5 26.667 -8.5 32 -10.5c51.333 -21.333 77 -52.666 77 -93.999c0 -40.667 -14.333 -72 -43 -94c-26.667 -19.333 -61.334 -29 -104.001 -29c-28 0 -55.333 4.33301 -82 13
c-7.33301 2 -16 5.33301 -26 10c-6 2.66699 -11.333 4 -16 4c-19.333 0 -29 -10.333 -29 -31c0 -14.667 11.667 -26 35 -34c38.667 -13.333 78.667 -20 120 -20c58 0 105.333 14.333 142 43c44 32.667 66 80 66 142c0 40 -13 73.667 -39 101c46 34.667 69 82 69 142z
M432.001 248c0 -46.667 -18.999 -82 -56.999 -106l-63.5 24.5c-18.333 7 -33.833 12.167 -46.5 15.5c-56.667 17.333 -90.334 29.333 -101.001 36c-32.667 18 -49 44.667 -49 80c0 48 19 83.667 57 107l63.5 -24.5c18.333 -7 33.833 -12.167 46.5 -15.5
c58 -18 91.667 -30 101 -36c32.667 -18.667 49 -45.667 49 -81z" />
    <glyph glyph-name="dieresis" unicode="&#xa8;" horiz-adv-x="530" 
d="M413 688c0 13.333 -4.83301 24.833 -14.5 34.5s-21.167 14.5 -34.5 14.5s-24.666 -4.83301 -33.999 -14.5s-14 -21.167 -14 -34.5s4.66699 -24.833 14 -34.5s20.666 -14.5 33.999 -14.5s24.833 4.83301 34.5 14.5s14.5 21.167 14.5 34.5zM214 688
c0 13.333 -4.66699 24.833 -14 34.5s-20.666 14.5 -33.999 14.5s-24.833 -4.83301 -34.5 -14.5s-14.5 -21.167 -14.5 -34.5s4.83301 -24.833 14.5 -34.5s21.167 -14.5 34.5 -14.5s24.666 4.83301 33.999 14.5s14 21.167 14 34.5z" />
    <glyph glyph-name="copyright" unicode="&#xa9;" horiz-adv-x="883" 
d="M815 364c0 102.667 -36.667 190.667 -110 264s-161 110 -263 110c-102.667 0 -190.667 -36.667 -264 -110s-110 -161.333 -110 -264c0 -103.333 36.333 -191.333 109 -264s161 -109 265 -109c103.333 0 191.333 36.333 264 109s109 160.667 109 264zM761 364
c0 -88 -31.333 -163.332 -94 -225.999c-62 -62.667 -137 -94 -225 -94c-88.667 0 -164.334 31.333 -227.001 94c-62 62.667 -93 138 -93 226s31 163.667 93 227c62.667 62.667 138.334 94 227.001 94c88 0 163 -31.333 225 -94c62.667 -62.667 94 -138.334 94 -227.001z
M557 198.001c0 18 -8.66895 26.999 -26.002 26.999c-3.33301 0 -7 -0.666992 -11 -2c-21.333 -10.667 -47.333 -16 -78 -16c-72 0 -108 43.333 -108 130v55c0 40 9.83301 71.667 29.5 95s45.834 35 78.501 35c29.333 0 55 -5 77 -15c4.66699 -2 8.33398 -3 11.001 -3
c17.333 0 26 9 26 27c0 11.333 -5.33301 19.333 -16 24c-26 12.667 -59 19 -99 19c-51.333 0 -91.333 -18.333 -120 -55c-26.667 -32.667 -40 -75 -40 -127v-55c0 -53.333 12.667 -96.333 38 -129c29.333 -35.333 70 -53 122 -53c36.667 0 70 6.66699 100 20
c10.667 4.66699 16 12.334 16 23.001z" />
    <glyph glyph-name="ordfeminine" unicode="&#xaa;" horiz-adv-x="417" 
d="M377 324c0 10 -4.66406 17.002 -13.9971 21.002c-14.667 6 -22 23.333 -22 52v160c0 53.333 -10 92.666 -30 117.999c-23.333 28 -62.333 42 -117 42c-48 0 -86.667 -9.33301 -116 -28c-15.333 -9.33301 -18 -21 -8 -35c4.66699 -8 12 -12 22 -12
c5.33301 0 9.66602 1.33301 12.999 4c24.667 14.667 53.667 22 87 22c36.667 0 61.667 -9 75 -27c12 -15.333 18 -42.333 18 -81v-20h-100c-50.667 0 -88.334 -11.333 -113.001 -34c-22.667 -20.667 -34 -48.334 -34 -83.001v-7c0 -34 10.667 -61.667 32 -83
c25.333 -23.333 62 -35 110 -35c51.333 0 89.333 14.333 114 43c4 -12 9.33301 -20.667 16 -26c13.333 -11.333 26.666 -17 39.999 -17c18 0 27 8.66699 27 26zM285.003 440.002c0 -63.333 -33 -95 -99 -95c-62 0 -93 23.667 -93 71v7c0 46.667 31.667 70 95 70h97v-53z" />
    <glyph glyph-name="guillemotleft" unicode="&#xab;" horiz-adv-x="583" 
d="M526 90l-173 179l173 179c6 6 9 13 9 21c0 20 -10.333 30 -31 30c-8.66699 0 -16 -3 -22 -9l-193 -200c-6 -6 -9 -13 -9 -21s3 -15 9 -21l193 -200c6 -6.66699 13.333 -10 22 -10c20 0 30 10.333 30 31c0 7.33301 -2.66699 14.333 -8 21zM280 90l-173 179l173 179
c6 6 9 13 9 21c0 20 -10.333 30 -31 30c-8.66699 0 -16 -3 -22 -9l-193 -200c-6 -6 -9 -13 -9 -21s3 -15 9 -21l193 -200c6 -6.66699 13.333 -10 22 -10c20 0 30 10.333 30 31c0 7.33301 -2.66699 14.333 -8 21z" />
    <glyph glyph-name="logicalnot" unicode="&#xac;" 
 />
    <glyph glyph-name="minus" unicode="&#xad;" horiz-adv-x="524" 
d="M467 273c0 20 -10 30 -30 30h-349c-20.667 0 -31 -10 -31 -30c0 -20.667 10.333 -31 31 -31h349c8 0 15 3 21 9s9 13.333 9 22z" />
    <glyph glyph-name="minus" unicode="&#x2212;" horiz-adv-x="524" 
d="M467 273c0 20 -10 30 -30 30h-349c-20.667 0 -31 -10 -31 -30c0 -20.667 10.333 -31 31 -31h349c8 0 15 3 21 9s9 13.333 9 22z" />
    <glyph glyph-name="registered" unicode="&#xae;" horiz-adv-x="883" 
d="M815 364c0 102.667 -36.667 190.667 -110 264s-161 110 -263 110c-102.667 0 -190.667 -36.667 -264 -110s-110 -161.333 -110 -264c0 -103.333 36.333 -191.333 109 -264s161 -109 265 -109c103.333 0 191.333 36.333 264 109s109 160.667 109 264zM761 364
c0 -88 -31.333 -163.332 -94 -225.999c-62 -62.667 -137 -94 -225 -94c-88.667 0 -164.334 31.333 -227.001 94c-62 62.667 -93 138 -93 226s31 163.667 93 227c62.667 62.667 138.334 94 227.001 94c88 0 163 -31.333 225 -94c62.667 -62.667 94 -138.334 94 -227.001z
M579 439.001v24.999c0 29.333 -9.66699 53.666 -29 72.999c-23.333 22 -57.333 33 -102 33h-111c-18 0 -27 -9 -27 -27v-358c0 -17.333 9 -26 27 -26s27 8.66699 27 26v147h74l85 -159c4.66699 -10 12.667 -15 24 -15c18 0 27 9 27 27c0 4.66699 -1 8.66699 -3 12l-77 142
c28 6.66699 49.167 19.334 63.5 38.001s21.5 39.334 21.5 62.001zM525 440c0 -15.333 -5.33398 -28.333 -16.001 -39c-15.333 -14 -36.666 -21 -63.999 -21h-81v143h83c52 0 78 -20 78 -60v-23z" />
    <glyph glyph-name="macron" unicode="&#xaf;" horiz-adv-x="530" 
d="M397 679c0 19.333 -9.66699 29 -29 29h-206c-19.333 0 -29 -9.66699 -29 -29s9.66699 -29 29 -29h206c19.333 0 29 9.66699 29 29z" />
    <glyph glyph-name="macron" unicode="&#x2c9;" horiz-adv-x="530" 
d="M397 679c0 19.333 -9.66699 29 -29 29h-206c-19.333 0 -29 -9.66699 -29 -29s9.66699 -29 29 -29h206c19.333 0 29 9.66699 29 29z" />
    <glyph glyph-name="degree" unicode="&#xb0;" horiz-adv-x="395" 
d="M358 578c0 44 -15.667 81.667 -47 113s-69.333 47 -114 47s-82.667 -15.667 -114 -47s-47 -69 -47 -113c0 -44.667 15.667 -82.667 47 -114c30.667 -30.667 68.667 -46 114 -46s83.333 15.333 114 46c31.333 31.333 47 69.333 47 114zM300 578
c0 -14 -2.66699 -27.333 -8 -40s-12.666 -23.667 -21.999 -33s-20.333 -16.666 -33 -21.999s-26 -8 -40 -8s-27.167 2.66699 -39.5 8s-23.166 12.666 -32.499 21.999s-16.666 20.333 -21.999 33s-8 26 -8 40s2.66699 27.167 8 39.5s12.666 23.166 21.999 32.499
s20.166 16.666 32.499 21.999s25.5 8 39.5 8s27.333 -2.66699 40 -8s23.667 -12.666 33 -21.999s16.666 -20.166 21.999 -32.499s8 -25.5 8 -39.5z" />
    <glyph glyph-name="plusminus" unicode="&#xb1;" 
 />
    <glyph glyph-name="twosuperior" unicode="&#xb2;" horiz-adv-x="450" 
d="M353 314c0 14.667 -7.33398 21.999 -22.001 21.999h-186c4.66699 22 17.667 43.667 39 65c12 12 35 30.667 69 56c33.333 24.667 56.333 45 69 61c20.667 26.667 31 56 31 88c0 34.667 -10 63.667 -30 87c-23.333 26 -55.333 39 -96 39
c-47.333 0 -85.333 -13.333 -114 -40c-5.33301 -5.33301 -8 -11 -8 -17c0 -14.667 7.66699 -22 23 -22c4 0 9.33301 2.66699 16 8c8.66699 6.66699 16.334 11.667 23.001 15c17.333 8.66699 37.333 13 60 13c54 0 81 -27.667 81 -83c0 -26.667 -11.667 -51.667 -35 -75
c-8 -8 -32.333 -28 -73 -60l-39.5 -33c-11 -9.33301 -19.5 -17.666 -25.5 -24.999c-25.333 -31.333 -38 -64.333 -38 -99c0 -14.667 7.33301 -22 22 -22h212c14.667 0 22 7.33301 22 22z" />
    <glyph glyph-name="threesuperior" unicode="&#xb3;" horiz-adv-x="450" 
d="M356 412c0 54 -24.3301 89.3311 -72.9971 105.998c41.333 18 62 50 62 96c0 30 -8.66699 56.333 -26 79c-22 26 -54 39 -96 39c-47.333 0 -84 -14.667 -110 -44c-5.33301 -5.33301 -8 -10.666 -8 -15.999c0 -14 6.66699 -21 20 -21c5.33301 0 10.666 2.33301 15.999 7
c9.33301 8 16 13.333 20 16c17.333 10.667 37.666 16 60.999 16c53.333 0 80 -26.333 80 -79c0 -46 -30.667 -71 -92 -75c-14.667 -0.666992 -22 -7.66699 -22 -21c0 -14 7.33301 -21 22 -21c67.333 -1.33301 101 -28 101 -80c0 -24.667 -7.83301 -45.167 -23.5 -61.5
s-38.5 -24.5 -68.5 -24.5c-26 0 -48.333 5.66699 -67 17c-6 2.66699 -13.667 8.33398 -23 17.001c-4.66699 4.66699 -9.33398 7 -14.001 7c-14 0 -21 -7 -21 -21c0 -6 2.33301 -11.333 7 -16c30 -30 69.667 -45 119 -45c42.667 0 76.667 12.667 102 38
c22.667 22.667 34 51.667 34 87z" />
    <glyph glyph-name="acute" unicode="&#xb4;" horiz-adv-x="530" 
d="M333 758c2.66699 4.66699 4 9.66602 4 14.999c0 19.333 -10 29 -30 29c-12 0 -21 -5.33301 -27 -16l-84 -151c-2.66699 -3.33301 -4 -7.66602 -4 -12.999c0 -17.333 9.33301 -26 28 -26c10 0 18 4.66699 24 14z" />
    <glyph glyph-name="mu" unicode="&#xb5;" horiz-adv-x="535" 
d="M495 23c0 11.333 -5.33203 19.333 -15.999 24c-21.333 9.33301 -32 31.333 -32 66v359c0 8.66699 -3.16699 16.167 -9.5 22.5s-13.833 9.5 -22.5 9.5s-16.167 -3.16699 -22.5 -9.5s-9.5 -13.833 -9.5 -22.5v-337c-24.667 -52.667 -71.334 -79 -140.001 -79
c-40.667 0 -69.334 11 -86.001 33c-14 18 -21 47.667 -21 89v294c0 8.66699 -3.16699 16.167 -9.5 22.5s-13.833 9.5 -22.5 9.5s-16.167 -3.16699 -22.5 -9.5s-9.5 -13.833 -9.5 -22.5v-645c0 -8.66699 3.16699 -16.167 9.5 -22.5s13.833 -9.5 22.5 -9.5
c21.333 0 32 10.667 32 32v191c24.667 -16 57.334 -24 98.001 -24c68 0 120.667 20.667 158 62c5.33301 -18 13 -31.667 23 -41c14.667 -14 31 -21 49 -21c20.667 0 31 9.66699 31 29z" />
    <glyph glyph-name="mu" unicode="&#x3bc;" horiz-adv-x="535" 
d="M495 23c0 11.333 -5.33203 19.333 -15.999 24c-21.333 9.33301 -32 31.333 -32 66v359c0 8.66699 -3.16699 16.167 -9.5 22.5s-13.833 9.5 -22.5 9.5s-16.167 -3.16699 -22.5 -9.5s-9.5 -13.833 -9.5 -22.5v-337c-24.667 -52.667 -71.334 -79 -140.001 -79
c-40.667 0 -69.334 11 -86.001 33c-14 18 -21 47.667 -21 89v294c0 8.66699 -3.16699 16.167 -9.5 22.5s-13.833 9.5 -22.5 9.5s-16.167 -3.16699 -22.5 -9.5s-9.5 -13.833 -9.5 -22.5v-645c0 -8.66699 3.16699 -16.167 9.5 -22.5s13.833 -9.5 22.5 -9.5
c21.333 0 32 10.667 32 32v191c24.667 -16 57.334 -24 98.001 -24c68 0 120.667 20.667 158 62c5.33301 -18 13 -31.667 23 -41c14.667 -14 31 -21 49 -21c20.667 0 31 9.66699 31 29z" />
    <glyph glyph-name="paragraph" unicode="&#xb6;" horiz-adv-x="613" 
d="M580 703c0 19.333 -9.66602 29 -28.999 29h-303c-54 0 -99.667 -18.333 -137 -55c-37.333 -37.333 -56 -82 -56 -134s18 -96.333 54 -133c37.333 -37.333 81.666 -56.333 132.999 -57v-481c0 -9.33301 3.33301 -17.166 10 -23.499s14.334 -9.5 23.001 -9.5
c9.33301 0 17.166 3.16699 23.499 9.5s9.5 14.166 9.5 23.499v802h126v-802c0 -22 11 -33 33 -33c21.333 0 32 11 32 33v802h52c19.333 0 29 9.66699 29 29z" />
    <glyph glyph-name="periodcentered" unicode="&#xb7;" horiz-adv-x="224" 
d="M156 295c0 13.333 -4.66504 24.666 -13.998 33.999s-20.666 14 -33.999 14c-12.667 0 -23.834 -4.66699 -33.501 -14s-14.5 -20.666 -14.5 -33.999s4.66699 -24.666 14 -33.999s20.666 -14 33.999 -14s24.666 4.66699 33.999 14s14 20.666 14 33.999z" />
    <glyph glyph-name="periodcentered" unicode="&#x2219;" horiz-adv-x="224" 
d="M156 295c0 13.333 -4.66504 24.666 -13.998 33.999s-20.666 14 -33.999 14c-12.667 0 -23.834 -4.66699 -33.501 -14s-14.5 -20.666 -14.5 -33.999s4.66699 -24.666 14 -33.999s20.666 -14 33.999 -14s24.666 4.66699 33.999 14s14 20.666 14 33.999z" />
    <glyph glyph-name="cedilla" unicode="&#xb8;" horiz-adv-x="530" 
d="M355 -118c0 54 -37.333 81 -112 81v41h-40l-3 -49c-1.33301 -17.333 9.66699 -26.333 33 -27c44 -3.33301 66 -18 66 -44c0 -30 -25 -45 -75 -45c-32.667 0 -49 -5.66699 -49 -17c0 -15.333 21.333 -23 64 -23c36 0 64.333 7.5 85 22.5s31 35.167 31 60.5z" />
    <glyph glyph-name="onesuperior" unicode="&#xb9;" horiz-adv-x="450" 
d="M360 314c0 14.667 -7.33301 22 -22 22h-62v373c0 15.333 -7.33301 23 -22 23c-4.66699 0 -9.66699 -1.66699 -15 -5l-142 -98c-11.333 -8 -13 -18 -5 -30s18 -14 30 -6l109 75v-332h-103c-14.667 0 -22 -7.33301 -22 -22s7.33301 -22 22 -22h210
c14.667 0 22 7.33301 22 22z" />
    <glyph glyph-name="ordmasculine" unicode="&#xba;" horiz-adv-x="432" 
d="M376 466v83.001c0 50 -12.333 89.667 -37 119c-28 32.667 -69 49 -123 49c-55.333 0 -96.333 -16.333 -123 -49c-24.667 -28.667 -37 -68.334 -37 -119.001v-83c0 -50 12.333 -89.333 37 -118c27.333 -33.333 68.333 -50 123 -50c54 0 95 16.667 123 50
c24.667 28.667 37 68 37 118zM320 466.001c0 -76.667 -34.667 -115 -104 -115c-70 0 -105 38.333 -105 115v83c0 76.667 35 115 105 115c69.333 0 104 -38.333 104 -115v-83z" />
    <glyph glyph-name="guillemotright" unicode="&#xbb;" horiz-adv-x="583" 
d="M549 269c0 8 -3 15 -9 21l-193 200c-6 6 -13.333 9 -22 9c-20.667 0 -31 -10 -31 -30c0 -8 3 -15 9 -21l173 -179l-173 -179c-6 -6 -9 -13 -9 -21s3.16699 -15 9.5 -21s13.5 -9 21.5 -9c8.66699 0 16 3 22 9l193 200c6 6 9 13 9 21zM303 269c0 8 -3 15 -9 21l-193 200
c-6 6 -13.333 9 -22 9c-20.667 0 -31 -10 -31 -30c0 -8 3 -15 9 -21l173 -179l-173 -179c-5.33301 -6.66699 -8 -13.667 -8 -21c0 -20.667 10 -31 30 -31c8.66699 0 16 3.33301 22 10l193 200c6 6 9 13 9 21z" />
    <glyph glyph-name="onequarter" unicode="&#xbc;" horiz-adv-x="450" 
d="M347 346c0 13.333 -6.66699 20 -20 20h-57v345c0 14 -7 21 -21 21c-5.33301 0 -9.66602 -1.66699 -12.999 -5l-132 -90c-10.667 -6.66699 -12.334 -16 -5.00098 -28c8 -10.667 17.333 -12.667 28 -6l101 70v-307h-96c-13.333 0 -20 -6.66699 -20 -20s6.66699 -20 20 -20
h195c13.333 0 20 6.66699 20 20zM407 256c0 13.333 -6.66699 20 -20 20h-324c-13.333 0 -20 -6.66699 -20 -20s6.66699 -20 20 -20h324c13.333 0 20 6.66699 20 20zM336 -110c0 13.333 -6.33301 20 -19 20h-32v86c0 14 -6.66699 21 -20 21c-14 0 -21 -7 -21 -21v-86h-103
l112 255c4.66699 12.667 1 22 -11 28s-21 2.33301 -27 -11l-124 -281c-2 -6 -3 -9.66699 -3 -11c0 -13.333 6.66699 -20 20 -20h136v-65c0 -14 7 -21 21 -21c13.333 0 20 7 20 21v65h32c12.667 0 19 6.66699 19 20z" />
    <glyph glyph-name="onehalf" unicode="&#xbd;" horiz-adv-x="450" 
d="M347 346c0 13.333 -6.66699 20 -20 20h-57v345c0 14 -7 21 -21 21c-5.33301 0 -9.66602 -1.66699 -12.999 -5l-132 -90c-10.667 -6.66699 -12.334 -16 -5.00098 -28c8 -10.667 17.333 -12.667 28 -6l101 70v-307h-96c-13.333 0 -20 -6.66699 -20 -20s6.66699 -20 20 -20
h195c13.333 0 20 6.66699 20 20zM407 256c0 13.333 -6.66699 20 -20 20h-324c-13.333 0 -20 -6.66699 -20 -20s6.66699 -20 20 -20h324c13.333 0 20 6.66699 20 20zM344 -190c0 13.333 -6.66797 20 -20.001 20h-172c5.33301 22 17 42 35 60c12 12 33.333 29 64 51
c29.333 21.333 50.666 40.333 63.999 57c19.333 25.333 29 52.333 29 81c0 33.333 -9.33301 60.333 -28 81c-21.333 24 -50.666 36 -87.999 36c-44 0 -79.333 -12.333 -106 -37c-4.66699 -4 -7 -9.33301 -7 -16c0 -14 7 -21 21 -21c5.33301 0 10.333 2.33301 15 7
c8.66699 6.66699 15.667 11.667 21 15c16 8 34.333 12 55 12c50 0 75 -25.667 75 -77c0 -23.333 -10.667 -46.333 -32 -69c-3.33301 -3.33301 -10.666 -9.5 -21.999 -18.5l-46 -36.5c-29.333 -22 -49.333 -40 -60 -54c-23.333 -28.667 -35 -59 -35 -91
c0 -14 6.66699 -21 20 -21h197c13.333 0 20 7 20 21z" />
    <glyph glyph-name="threequarters" unicode="&#xbe;" horiz-adv-x="450" 
d="M353 436c0 50.667 -22.335 83.333 -67.002 98c38 16.667 57 46.334 57 89.001c0 29.333 -8.33301 53.666 -25 72.999c-20 24 -49.333 36 -88 36c-43.333 0 -77.333 -13.333 -102 -40c-4.66699 -4.66699 -7 -10 -7 -16c0 -12.667 6.33301 -19 19 -19
c4.66699 0 9.33398 2.33301 14.001 7l10.5 8.5c3 2.33301 5.83301 4.16602 8.5 5.49902c16.667 10 35.667 15 57 15c48.667 0 73 -24.333 73 -73c0 -42 -28.333 -65 -85 -69c-13.333 -1.33301 -20 -8 -20 -20c0 -12.667 7 -19 21 -19c61.333 -1.33301 92 -26 92 -74
c0 -22.667 -7.16699 -41.5 -21.5 -56.5s-35.5 -22.5 -63.5 -22.5c-26 0 -46.333 5 -61 15c-3.33301 2 -6.66602 4.5 -9.99902 7.5l-11 9.5c-5.33301 4 -9.66602 6 -12.999 6c-13.333 0 -20 -6.66699 -20 -20c0 -5.33301 2.33301 -10.333 7 -15
c27.333 -27.333 63.666 -41 108.999 -41c40 0 71.667 11.667 95 35c20.667 20.667 31 47.334 31 80.001zM406.998 255.999c0 13.333 -6.66699 20 -20 20h-324c-13.333 0 -20 -6.66699 -20 -20s6.66699 -20 20 -20h324c13.333 0 20 6.66699 20 20zM338.998 -110.001
c0 13.333 -6.66797 20 -20.001 20h-31v86c0 14 -7 21 -21 21s-21 -7 -21 -21v-86h-103l112 255c4.66699 12.667 1.33398 22 -9.99902 28c-12.667 6 -22 2.33301 -28 -11l-124 -281c-2 -6 -3 -9.66699 -3 -11c0 -13.333 6.66699 -20 20 -20h136v-65c0 -14 7 -21 21 -21
s21 7 21 21v65h31c13.333 0 20 6.66699 20 20z" />
    <glyph glyph-name="questiondown" unicode="&#xbf;" horiz-adv-x="455" 
d="M328 456c0 13.333 -4.66504 24.666 -13.998 33.999s-20.666 14 -33.999 14c-12.667 0 -23.834 -4.66699 -33.501 -14s-14.5 -20.666 -14.5 -33.999s4.66699 -24.666 14 -33.999s20.666 -14 33.999 -14s24.666 4.66699 33.999 14s14 20.666 14 33.999zM444.002 -154
c0 8 -3.16699 15.1689 -9.5 21.502s-13.833 9.5 -22.5 9.5c-7.33301 0 -13.666 -2.66699 -18.999 -8c-34.667 -34.667 -79.667 -52 -135 -52c-36 0 -66.333 10.333 -91 31c-28.667 24.667 -43 59 -43 103c0 31.333 8 57.666 24 78.999c11.333 16 35.666 39 72.999 69
c32.667 26.667 55.667 51.667 69 75c15.333 27.333 23 59.666 23 96.999c0 20.667 -10.333 31 -31 31c-21.333 0 -32 -10 -32 -30c0 -24.667 -4 -45 -12 -61c-10.667 -22 -33 -47 -67 -75c-40 -32.667 -67.333 -59.667 -82 -81c-20.667 -28.667 -31 -64.667 -31 -108
c0 -62 21.667 -110.667 65 -146c37.333 -29.333 81 -44 131 -44c63.333 0 115 15 155 45c23.333 17.333 35 32 35 44z" />
    <glyph glyph-name="Agrave" unicode="&#xc0;" horiz-adv-x="561" 
d="M545 32c-58 224.667 -132.002 447.334 -222.002 668.001c-11.333 25.333 -25.333 38 -42 38s-30.667 -12.667 -42 -38c-46 -113.333 -87.5 -225.333 -124.5 -336s-69.833 -221.334 -98.5 -332.001c-0.666992 -2 -1 -5 -1 -9c0 -21.333 11 -32 33 -32
c16 0 26 8.33301 30 25c4.66699 19.333 10.834 42.5 18.501 69.5l27.5 93.5h312c6.66699 -20.667 13.667 -44.5 21 -71.5l24 -91.5c4.66699 -16.667 15.334 -25 32.001 -25c22 0 33 10.333 33 31c0 4.66699 -0.333008 8 -1 10zM417.998 241h-276
c38.667 128 84.667 257.333 138 388c26 -66 50.5 -131.167 73.5 -195.5s44.5 -128.5 64.5 -192.5zM360.998 835l-84 151.001c-6 10.667 -15 16 -27 16c-20 0 -30 -9.66699 -30 -29c0 -5.33301 1.33301 -10.333 4 -15l89 -148c6 -9.33301 14 -14 24 -14
c18.667 0 28 8.66699 28 26c0 5.33301 -1.33301 9.66602 -4 12.999z" />
    <glyph glyph-name="Aacute" unicode="&#xc1;" horiz-adv-x="561" 
d="M545 32c-58 224.667 -132.002 447.334 -222.002 668.001c-11.333 25.333 -25.333 38 -42 38s-30.667 -12.667 -42 -38c-46 -113.333 -87.5 -225.333 -124.5 -336s-69.833 -221.334 -98.5 -332.001c-0.666992 -2 -1 -5 -1 -9c0 -21.333 11 -32 33 -32
c16 0 26 8.33301 30 25c4.66699 19.333 10.834 42.5 18.501 69.5l27.5 93.5h312c6.66699 -20.667 13.667 -44.5 21 -71.5l24 -91.5c4.66699 -16.667 15.334 -25 32.001 -25c22 0 33 10.333 33 31c0 4.66699 -0.333008 8 -1 10zM417.998 241h-276
c38.667 128 84.667 257.333 138 388c26 -66 50.5 -131.167 73.5 -195.5s44.5 -128.5 64.5 -192.5zM344.998 958c2.66699 4.66699 4 9.66602 4 14.999c0 19.333 -10 29 -30 29c-12 0 -21 -5.33301 -27 -16l-84 -151c-2.66699 -3.33301 -4 -7.66602 -4 -12.999
c0 -17.333 9.33301 -26 28 -26c10 0 18 4.66699 24 14z" />
    <glyph glyph-name="Acircumflex" unicode="&#xc2;" horiz-adv-x="561" 
d="M545 32c-58 224.667 -132.002 447.334 -222.002 668.001c-11.333 25.333 -25.333 38 -42 38s-30.667 -12.667 -42 -38c-46 -113.333 -87.5 -225.333 -124.5 -336s-69.833 -221.334 -98.5 -332.001c-0.666992 -2 -1 -5 -1 -9c0 -21.333 11 -32 33 -32
c16 0 26 8.33301 30 25c4.66699 19.333 10.834 42.5 18.501 69.5l27.5 93.5h312c6.66699 -20.667 13.667 -44.5 21 -71.5l24 -91.5c4.66699 -16.667 15.334 -25 32.001 -25c22 0 33 10.333 33 31c0 4.66699 -0.333008 8 -1 10zM417.998 241h-276
c38.667 128 84.667 257.333 138 388c26 -66 50.5 -131.167 73.5 -195.5s44.5 -128.5 64.5 -192.5zM410.998 811c18 0 27 9 27 27c0 8 -3 15 -9 21l-129 131c-5.33301 5.33301 -12.666 8 -21.999 8c-8.66699 0.666992 -16 -2 -22 -8l-129 -130c-6 -6 -9 -13 -9 -21
c0 -18.667 9.33301 -28 28 -28c6.66699 0 12.667 2.66699 18 8l114 109l114 -109c5.33301 -5.33301 11.666 -8 18.999 -8z" />
    <glyph glyph-name="Atilde" unicode="&#xc3;" horiz-adv-x="561" 
d="M545 32c-58 224.667 -132.002 447.334 -222.002 668.001c-11.333 25.333 -25.333 38 -42 38s-30.667 -12.667 -42 -38c-46 -113.333 -87.5 -225.333 -124.5 -336s-69.833 -221.334 -98.5 -332.001c-0.666992 -2 -1 -5 -1 -9c0 -21.333 11 -32 33 -32
c16 0 26 8.33301 30 25c4.66699 19.333 10.834 42.5 18.501 69.5l27.5 93.5h312c6.66699 -20.667 13.667 -44.5 21 -71.5l24 -91.5c4.66699 -16.667 15.334 -25 32.001 -25c22 0 33 10.333 33 31c0 4.66699 -0.333008 8 -1 10zM417.998 241h-276
c38.667 128 84.667 257.333 138 388c26 -66 50.5 -131.167 73.5 -195.5s44.5 -128.5 64.5 -192.5zM441.998 899c-1.33301 20 -10.333 29.998 -27 29.998c-6 0 -14.667 -4.66699 -26 -14s-25.333 -14.333 -42 -15c-12.667 0 -33 6.66699 -61 20c-26.667 14 -50 20.667 -70 20
c-24 -0.666992 -45 -6.83398 -63 -18.501s-27 -25.5 -27 -41.5c1.33301 -21.333 10.333 -31.666 27 -30.999c6 0 14.667 4.66699 26 14c10.667 8.66699 24.667 13.667 42 15c13.333 0 33.333 -6.66699 60 -20c28 -13.333 51.667 -19.666 71 -18.999
c24 0.666992 45 6.83398 63 18.501s27 25.5 27 41.5z" />
    <glyph glyph-name="Adieresis" unicode="&#xc4;" horiz-adv-x="561" 
d="M545 32c-58 224.667 -132.002 447.334 -222.002 668.001c-11.333 25.333 -25.333 38 -42 38s-30.667 -12.667 -42 -38c-46 -113.333 -87.5 -225.333 -124.5 -336s-69.833 -221.334 -98.5 -332.001c-0.666992 -2 -1 -5 -1 -9c0 -21.333 11 -32 33 -32
c16 0 26 8.33301 30 25c4.66699 19.333 10.834 42.5 18.501 69.5l27.5 93.5h312c6.66699 -20.667 13.667 -44.5 21 -71.5l24 -91.5c4.66699 -16.667 15.334 -25 32.001 -25c22 0 33 10.333 33 31c0 4.66699 -0.333008 8 -1 10zM417.998 241h-276
c38.667 128 84.667 257.333 138 388c26 -66 50.5 -131.167 73.5 -195.5s44.5 -128.5 64.5 -192.5zM425.998 888c0 13.333 -4.83301 24.833 -14.5 34.5s-21.167 14.5 -34.5 14.5s-24.666 -4.83301 -33.999 -14.5s-14 -21.167 -14 -34.5s4.66699 -24.833 14 -34.5
s20.666 -14.5 33.999 -14.5s24.833 4.83301 34.5 14.5s14.5 21.167 14.5 34.5zM226.998 888c0 13.333 -4.66699 24.833 -14 34.5s-20.666 14.5 -33.999 14.5s-24.833 -4.83301 -34.5 -14.5s-14.5 -21.167 -14.5 -34.5s4.83301 -24.833 14.5 -34.5s21.167 -14.5 34.5 -14.5
s24.666 4.83301 33.999 14.5s14 21.167 14 34.5z" />
    <glyph glyph-name="Aring" unicode="&#xc5;" horiz-adv-x="561" 
d="M545 32c-58 224.667 -132.002 447.334 -222.002 668.001c-11.333 25.333 -25.333 38 -42 38s-30.667 -12.667 -42 -38c-46 -113.333 -87.5 -225.333 -124.5 -336s-69.833 -221.334 -98.5 -332.001c-0.666992 -2 -1 -5 -1 -9c0 -21.333 11 -32 33 -32
c16 0 26 8.33301 30 25c4.66699 19.333 10.834 42.5 18.501 69.5l27.5 93.5h312c6.66699 -20.667 13.667 -44.5 21 -71.5l24 -91.5c4.66699 -16.667 15.334 -25 32.001 -25c22 0 33 10.333 33 31c0 4.66699 -0.333008 8 -1 10zM417.998 241h-276
c38.667 128 84.667 257.333 138 388c26 -66 50.5 -131.167 73.5 -195.5s44.5 -128.5 64.5 -192.5zM395.998 889c0 32 -11.333 59.333 -34 82s-50 34 -82 34s-59.333 -11.333 -82 -34s-34 -50 -34 -82c0 -32.667 11.333 -60.334 34 -83.001s50 -34 82 -34
s59.333 11.333 82 34s34 50.334 34 83.001zM352.998 889c0 -20 -7.16699 -37.333 -21.5 -52s-31.5 -22 -51.5 -22c-19.333 0 -36.333 7.33301 -51 22s-22 32 -22 52s7.16699 37 21.5 51s31.5 21 51.5 21s37.167 -7 51.5 -21s21.5 -31 21.5 -51z" />
    <glyph glyph-name="AE" unicode="&#xc6;" horiz-adv-x="875" 
d="M835 32c0 20.667 -10.668 31 -32.001 31h-303v270h261c20.667 0 31 10.333 31 31s-10.333 31 -31 31h-261v270h288c21.333 0 32 10.667 32 32c0 8.66699 -3.16699 16.167 -9.5 22.5s-13.833 9.5 -22.5 9.5h-351c-24 0 -42.333 -11 -55 -33l-201 -347.5l-162 -302.5
c-2.66699 -4.66699 -4 -10 -4 -16c0 -21.333 11.333 -32 34 -32c12.667 0 22.334 6.33301 29.001 19l38 74l47 88h271v-147c0 -8.66699 3.16699 -16.167 9.5 -22.5s13.833 -9.5 22.5 -9.5h337c21.333 0 32 10.667 32 32zM433.999 241h-239l120.5 214.5l118.5 199.5v-414z
" />
    <glyph glyph-name="Ccedilla" unicode="&#xc7;" horiz-adv-x="550" 
d="M509 86c0 20.667 -9.99707 30.668 -29.9971 30.001c-6 0 -12 -2.5 -18 -7.5l-19 -15.5c-34.667 -27.333 -76.334 -41 -125.001 -41c-64.667 0 -111.334 20.333 -140.001 61s-43 104.334 -43 191.001v120c0 168.667 63 253 189 253c48.667 0 87.667 -12.667 117 -38
c18.667 -16 30.667 -24 36 -24c20.667 0.666992 31 11 31 31c0 6.66699 -3.66699 14.667 -11 24c-39.333 45.333 -97 68 -173 68c-87.333 0 -152.666 -29.667 -195.999 -89c-39.333 -54.667 -59 -129.334 -59 -224.001v-121c0 -196 73.667 -300 221 -312l-3 -41
c-0.666992 -14.667 6.66602 -23.334 21.999 -26.001l49 -8c18 -6 27 -18 27 -36c0 -30.667 -24.667 -46 -74 -46c-33.333 0 -50 -5.66699 -50 -17c0 -15.333 21.667 -23 65 -23c36 0 64.333 7.5 85 22.5s31 35.167 31 60.5c0 54 -37.333 81 -112 81v32
c71.333 3.33301 127.666 27 168.999 71c7.33301 8.66699 11 16.667 11 24z" />
    <glyph glyph-name="Egrave" unicode="&#xc8;" horiz-adv-x="548" 
d="M508 32c0 20.667 -10.333 31 -31 31h-326v270h283c20.667 0 31 10.333 31 31s-10.333 31 -31 31h-283v270h311c20.667 0 31 10.667 31 32c0 8.66699 -3 16.167 -9 22.5s-13.333 9.5 -22 9.5h-345c-8.66699 0 -16.167 -3.16699 -22.5 -9.5s-9.5 -13.833 -9.5 -22.5v-665
c0 -8.66699 3.16699 -16.167 9.5 -22.5s13.833 -9.5 22.5 -9.5h360c20.667 0 31 10.667 31 32zM364 835l-84 151.001c-6 10.667 -15 16 -27 16c-20 0 -30 -9.66699 -30 -29c0 -5.33301 1.33301 -10.333 4 -15l89 -148c6 -9.33301 14 -14 24 -14c18.667 0 28 8.66699 28 26
c0 5.33301 -1.33301 9.66602 -4 12.999z" />
    <glyph glyph-name="Eacute" unicode="&#xc9;" horiz-adv-x="548" 
d="M508 32c0 20.667 -10.333 31 -31 31h-326v270h283c20.667 0 31 10.333 31 31s-10.333 31 -31 31h-283v270h311c20.667 0 31 10.667 31 32c0 8.66699 -3 16.167 -9 22.5s-13.333 9.5 -22 9.5h-345c-8.66699 0 -16.167 -3.16699 -22.5 -9.5s-9.5 -13.833 -9.5 -22.5v-665
c0 -8.66699 3.16699 -16.167 9.5 -22.5s13.833 -9.5 22.5 -9.5h360c20.667 0 31 10.667 31 32zM364 958c2.66699 4.66699 4 9.66602 4 14.999c0 19.333 -10 29 -30 29c-12 0 -21 -5.33301 -27 -16l-84 -151c-2.66699 -3.33301 -4 -7.66602 -4 -12.999
c0 -17.333 9.33301 -26 28 -26c10 0 18 4.66699 24 14z" />
    <glyph glyph-name="Ecircumflex" unicode="&#xca;" horiz-adv-x="548" 
d="M508 32c0 20.667 -10.333 31 -31 31h-326v270h283c20.667 0 31 10.333 31 31s-10.333 31 -31 31h-283v270h311c20.667 0 31 10.667 31 32c0 8.66699 -3 16.167 -9 22.5s-13.333 9.5 -22 9.5h-345c-8.66699 0 -16.167 -3.16699 -22.5 -9.5s-9.5 -13.833 -9.5 -22.5v-665
c0 -8.66699 3.16699 -16.167 9.5 -22.5s13.833 -9.5 22.5 -9.5h360c20.667 0 31 10.667 31 32zM421 811c18 0 27 9 27 27c0 8 -3 15 -9 21l-129 131c-5.33301 5.33301 -12.666 8 -21.999 8c-8.66699 0.666992 -16 -2 -22 -8l-129 -130c-6 -6 -9 -13 -9 -21
c0 -18.667 9.33301 -28 28 -28c6.66699 0 12.667 2.66699 18 8l114 109l114 -109c5.33301 -5.33301 11.666 -8 18.999 -8z" />
    <glyph glyph-name="Edieresis" unicode="&#xcb;" horiz-adv-x="551" 
d="M511 32c0 20.667 -10.333 31 -31 31h-326v270h283c20.667 0 31 10.333 31 31s-10.333 31 -31 31h-283v270h311c20.667 0 31 10.667 31 32c0 8.66699 -3 16.167 -9 22.5s-13.333 9.5 -22 9.5h-345c-8.66699 0 -16.167 -3.16699 -22.5 -9.5s-9.5 -13.833 -9.5 -22.5v-665
c0 -8.66699 3.16699 -16.167 9.5 -22.5s13.833 -9.5 22.5 -9.5h360c20.667 0 31 10.667 31 32zM439 888c0 13.333 -4.66699 24.666 -14 33.999s-20.666 14 -33.999 14s-24.833 -4.66699 -34.5 -14s-14.5 -20.666 -14.5 -33.999s4.83301 -24.833 14.5 -34.5
s21.167 -14.5 34.5 -14.5s24.666 4.83301 33.999 14.5s14 21.167 14 34.5zM241 888c0 13.333 -4.83301 24.666 -14.5 33.999s-21.167 14 -34.5 14s-24.666 -4.66699 -33.999 -14s-14 -20.666 -14 -33.999s4.66699 -24.833 14 -34.5s20.666 -14.5 33.999 -14.5
s24.833 4.83301 34.5 14.5s14.5 21.167 14.5 34.5z" />
    <glyph glyph-name="Igrave" unicode="&#xcc;" horiz-adv-x="237" 
d="M151 24v681c0 22 -11 33 -33 33c-8.66699 0 -16.334 -3.16699 -23.001 -9.5s-10 -14.166 -10 -23.499v-681c0 -8.66699 3.33301 -16.334 10 -23.001s14.334 -10 23.001 -10c22 0 33 11 33 33zM197 835l-84 151.001c-6 10.667 -15 16 -27 16c-20 0 -30 -9.66699 -30 -29
c0 -5.33301 1.33301 -10.333 4 -15l89 -148c6 -9.33301 14 -14 24 -14c18.667 0 28 8.66699 28 26c0 5.33301 -1.33301 9.66602 -4 12.999z" />
    <glyph glyph-name="Iacute" unicode="&#xcd;" horiz-adv-x="237" 
d="M151 24v681c0 22 -11 33 -33 33c-8.66699 0 -16.334 -3.16699 -23.001 -9.5s-10 -14.166 -10 -23.499v-681c0 -8.66699 3.33301 -16.334 10 -23.001s14.334 -10 23.001 -10c22 0 33 11 33 33zM182 958c2.66699 4.66699 4 9.66602 4 14.999c0 19.333 -10 29 -30 29
c-12 0 -21 -5.33301 -27 -16l-84 -151c-2.66699 -3.33301 -4 -7.66602 -4 -12.999c0 -17.333 9.33301 -26 28 -26c10 0 18 4.66699 24 14z" />
    <glyph glyph-name="Icircumflex" unicode="&#xce;" horiz-adv-x="237" 
d="M151 24v681c0 22 -11 33 -33 33c-8.66699 0 -16.334 -3.16699 -23.001 -9.5s-10 -14.166 -10 -23.499v-681c0 -8.66699 3.33301 -16.334 10 -23.001s14.334 -10 23.001 -10c22 0 33 11 33 33zM252 811c18 0 27 9 27 27c0 8 -3 15 -9 21l-129 131
c-5.33301 5.33301 -12.666 8 -21.999 8c-8.66699 0.666992 -16 -2 -22 -8l-129 -130c-6 -6 -9 -13 -9 -21c0 -18.667 9.33301 -28 28 -28c6.66699 0 12.667 2.66699 18 8l114 109l114 -109c5.33301 -5.33301 11.666 -8 18.999 -8z" />
    <glyph glyph-name="Idieresis" unicode="&#xcf;" horiz-adv-x="237" 
d="M151 24v681c0 22 -11 33 -33 33c-8.66699 0 -16.334 -3.16699 -23.001 -9.5s-10 -14.166 -10 -23.499v-681c0 -8.66699 3.33301 -16.334 10 -23.001s14.334 -10 23.001 -10c22 0 33 11 33 33zM268 888c0 13.333 -4.83301 24.833 -14.5 34.5s-21.167 14.5 -34.5 14.5
s-24.666 -4.83301 -33.999 -14.5s-14 -21.167 -14 -34.5s4.66699 -24.833 14 -34.5s20.666 -14.5 33.999 -14.5s24.833 4.83301 34.5 14.5s14.5 21.167 14.5 34.5zM69 888c0 13.333 -4.66699 24.833 -14 34.5s-20.666 14.5 -33.999 14.5s-24.833 -4.83301 -34.5 -14.5
s-14.5 -21.167 -14.5 -34.5s4.83301 -24.833 14.5 -34.5s21.167 -14.5 34.5 -14.5s24.666 4.83301 33.999 14.5s14 21.167 14 34.5z" />
    <glyph glyph-name="Eth" unicode="&#xd0;" horiz-adv-x="657" 
d="M589 271v186c0 181.333 -85.667 272 -257 272h-198c-8.66699 0 -16.334 -3.16699 -23.001 -9.5s-10 -14.166 -10 -23.499v-307h-55c-20.667 0 -31 -10.333 -31 -31s10.333 -31 31 -31h55v-294c0 -8.66699 3.33301 -16.334 10 -23.001s14.334 -10 23.001 -10h198
c171.333 -0 257 90.333 257 271zM523 271c0 -139.333 -64.333 -209 -193 -209h-163v265h121c20.667 0 31 10.333 31 31s-10.333 31 -31 31h-121v276h163c128.667 0 193 -69.667 193 -209v-185z" />
    <glyph glyph-name="Ntilde" unicode="&#xd1;" horiz-adv-x="666" 
d="M581 22v685c0 20.667 -10.333 31 -31 31s-31 -10.333 -31 -31v-582l-368 594c-8 12.667 -19 19 -33 19c-22 0 -33 -10.333 -33 -31v-685c0 -20.667 10.333 -31 31 -31s31 10.333 31 31v581l369 -595c7.33301 -11.333 18 -17 32 -17c22 0 33 10.333 33 31zM490 899
c-1.33301 20 -10.333 29.998 -27 29.998c-6 0 -14.667 -4.66699 -26 -14s-25.333 -14.333 -42 -15c-12.667 0 -33 6.66699 -61 20c-26.667 14 -50 20.667 -70 20c-24 -0.666992 -45 -6.83398 -63 -18.501s-27 -25.5 -27 -41.5c1.33301 -21.333 10.333 -31.666 27 -30.999
c6 0 14.667 4.66699 26 14c10.667 8.66699 24.667 13.667 42 15c13.333 0 33.333 -6.66699 60 -20c28 -13.333 51.667 -19.666 71 -18.999c24 0.666992 45 6.83398 63 18.501s27 25.5 27 41.5z" />
    <glyph glyph-name="Ograve" unicode="&#xd2;" horiz-adv-x="625" 
d="M557 261v207c0 76.667 -17.667 138.667 -53 186c-43.333 56 -107 84 -191 84c-85.333 0 -149 -28 -191 -84c-36 -47.333 -54 -109.333 -54 -186v-207c0 -77.333 18 -139.333 54 -186c42 -56 105.667 -84 191 -84c84 0 147.667 28 191 84c35.333 47.333 53 109.333 53 186
zM491 261c0 -139.333 -59.333 -209 -178 -209c-119.333 0 -179 69.667 -179 209v207c0 139.333 59.667 209 179 209c118.667 0 178 -69.667 178 -209v-207zM398 835l-84 151.001c-6 10.667 -15 16 -27 16c-20 0 -30 -9.66699 -30 -29c0 -5.33301 1.33301 -10.333 4 -15
l89 -148c6 -9.33301 14 -14 24 -14c18.667 0 28 8.66699 28 26c0 5.33301 -1.33301 9.66602 -4 12.999z" />
    <glyph glyph-name="Oacute" unicode="&#xd3;" horiz-adv-x="625" 
d="M557 261v207c0 76.667 -17.667 138.667 -53 186c-43.333 56 -107 84 -191 84c-85.333 0 -149 -28 -191 -84c-36 -47.333 -54 -109.333 -54 -186v-207c0 -77.333 18 -139.333 54 -186c42 -56 105.667 -84 191 -84c84 0 147.667 28 191 84c35.333 47.333 53 109.333 53 186
zM491 261c0 -139.333 -59.333 -209 -178 -209c-119.333 0 -179 69.667 -179 209v207c0 139.333 59.667 209 179 209c118.667 0 178 -69.667 178 -209v-207zM371 958c2.66699 4.66699 4 9.66602 4 14.999c0 19.333 -10 29 -30 29c-12 0 -21 -5.33301 -27 -16l-84 -151
c-2.66699 -3.33301 -4 -7.66602 -4 -12.999c0 -17.333 9.33301 -26 28 -26c10 0 18 4.66699 24 14z" />
    <glyph glyph-name="Ocircumflex" unicode="&#xd4;" horiz-adv-x="625" 
d="M557 261v207c0 76.667 -17.667 138.667 -53 186c-43.333 56 -107 84 -191 84c-85.333 0 -149 -28 -191 -84c-36 -47.333 -54 -109.333 -54 -186v-207c0 -77.333 18 -139.333 54 -186c42 -56 105.667 -84 191 -84c84 0 147.667 28 191 84c35.333 47.333 53 109.333 53 186
zM491 261c0 -139.333 -59.333 -209 -178 -209c-119.333 0 -179 69.667 -179 209v207c0 139.333 59.667 209 179 209c118.667 0 178 -69.667 178 -209v-207zM443 811c18 0 27 9 27 27c0 8 -3 15 -9 21l-129 131c-5.33301 5.33301 -12.666 8 -21.999 8
c-8.66699 0.666992 -16 -2 -22 -8l-129 -130c-6 -6 -9 -13 -9 -21c0 -18.667 9.33301 -28 28 -28c6.66699 0 12.667 2.66699 18 8l114 109l114 -109c5.33301 -5.33301 11.666 -8 18.999 -8z" />
    <glyph glyph-name="Otilde" unicode="&#xd5;" horiz-adv-x="625" 
d="M557 261v207c0 76.667 -17.667 138.667 -53 186c-43.333 56 -107 84 -191 84c-85.333 0 -149 -28 -191 -84c-36 -47.333 -54 -109.333 -54 -186v-207c0 -77.333 18 -139.333 54 -186c42 -56 105.667 -84 191 -84c84 0 147.667 28 191 84c35.333 47.333 53 109.333 53 186
zM491 261c0 -139.333 -59.333 -209 -178 -209c-119.333 0 -179 69.667 -179 209v207c0 139.333 59.667 209 179 209c118.667 0 178 -69.667 178 -209v-207zM469 899c-1.33301 20 -10.333 29.998 -27 29.998c-6 0 -14.667 -4.66699 -26 -14s-25.333 -14.333 -42 -15
c-12.667 0 -33 6.66699 -61 20c-26.667 14 -50 20.667 -70 20c-24 -0.666992 -45 -6.83398 -63 -18.501s-27 -25.5 -27 -41.5c1.33301 -21.333 10.333 -31.666 27 -30.999c6 0 14.667 4.66699 26 14c10.667 8.66699 24.667 13.667 42 15c13.333 0 33.333 -6.66699 60 -20
c28 -13.333 51.667 -19.666 71 -18.999c24 0.666992 45 6.83398 63 18.501s27 25.5 27 41.5z" />
    <glyph glyph-name="Odieresis" unicode="&#xd6;" horiz-adv-x="625" 
d="M557 261v207c0 76.667 -17.667 138.667 -53 186c-43.333 56 -107 84 -191 84c-85.333 0 -149 -28 -191 -84c-36 -47.333 -54 -109.333 -54 -186v-207c0 -77.333 18 -139.333 54 -186c42 -56 105.667 -84 191 -84c84 0 147.667 28 191 84c35.333 47.333 53 109.333 53 186
zM491 261c0 -139.333 -59.333 -209 -178 -209c-119.333 0 -179 69.667 -179 209v207c0 139.333 59.667 209 179 209c118.667 0 178 -69.667 178 -209v-207zM456 888c0 13.333 -4.83301 24.833 -14.5 34.5s-21.167 14.5 -34.5 14.5s-24.666 -4.83301 -33.999 -14.5
s-14 -21.167 -14 -34.5s4.66699 -24.833 14 -34.5s20.666 -14.5 33.999 -14.5s24.833 4.83301 34.5 14.5s14.5 21.167 14.5 34.5zM257 888c0 13.333 -4.66699 24.833 -14 34.5s-20.666 14.5 -33.999 14.5s-24.833 -4.83301 -34.5 -14.5s-14.5 -21.167 -14.5 -34.5
s4.83301 -24.833 14.5 -34.5s21.167 -14.5 34.5 -14.5s24.666 4.83301 33.999 14.5s14 21.167 14 34.5z" />
    <glyph glyph-name="multiply" unicode="&#xd7;" horiz-adv-x="420" 
d="M364 397c0 20 -10 30 -30 30c-8.66699 0 -16 -3 -22 -9l-102 -102l-102 102c-6 6 -13.333 9 -22 9c-20 0 -30 -10 -30 -30c0 -8.66699 3 -16 9 -22l102 -102l-102 -102c-6 -6 -9 -13.333 -9 -22c0 -20 10 -30 30 -30c8.66699 0 16 3 22 9l102 102l102 -102
c6 -6 13.333 -9 22 -9c20 0 30 10 30 30c0 8.66699 -3 16 -9 22l-102 102l102 102c6 6 9 13.333 9 22z" />
    <glyph glyph-name="Oslash" unicode="&#xd8;" horiz-adv-x="625" 
d="M557 261l0.00195312 207.001c0 94 -25.333 164.333 -76 211l22 51c7.33301 15.333 3.33301 26.666 -12 33.999c-16 6 -27.333 1.66699 -34 -13l-18 -42c-37.333 19.333 -79.333 29 -126 29c-85.333 0 -149 -28 -191 -84c-36 -47.333 -54 -109.333 -54 -186v-207
c0 -91.333 25.667 -161.666 77 -210.999l-23 -51c-6.66699 -14.667 -2.33398 -25.667 12.999 -33c15.333 -6.66699 26.666 -2.33398 33.999 12.999l18 40c33.333 -18.667 75.333 -28 126 -28c84 0 147.667 28 191 84c35.333 47.333 53 109.333 53 186zM491.002 261.001
c0 -139.333 -59.332 -209 -177.999 -209c-40.667 0 -74.334 8.33301 -101.001 25l240 538c26 -35.333 39 -84.333 39 -147v-207zM413.003 652.001l-240 -538c-26 34.667 -39 83.667 -39 147v207c0 139.333 59.667 209 179 209c40 0 73.333 -8.33301 100 -25z" />
    <glyph glyph-name="Ugrave" unicode="&#xd9;" horiz-adv-x="626" 
d="M557 237l0.00292969 467.999c0 22 -11 33 -33 33c-8.66699 0 -16.334 -3.16699 -23.001 -9.5s-10 -14.166 -10 -23.499v-467c0 -55.333 -13.667 -99.333 -41 -132c-30.667 -36.667 -76.334 -55 -137.001 -55s-106.334 18.333 -137.001 55c-28 32 -42 76 -42 132v467
c0 9.33301 -3.16699 17.166 -9.5 23.499s-14.166 9.5 -23.499 9.5c-8.66699 0 -16.334 -3.16699 -23.001 -9.5s-10 -14.166 -10 -23.499v-468c0 -71.333 19.667 -129.333 59 -174c42.667 -48 104.667 -72 186 -72c80 0 141.667 24 185 72c39.333 44.667 59 102.667 59 174z
M381.003 834.999l-84 151.001c-6 10.667 -15 16 -27 16c-20 0 -30 -9.66699 -30 -29c0 -5.33301 1.33301 -10.333 4 -15l89 -148c6 -9.33301 14 -14 24 -14c18.667 0 28 8.66699 28 26c0 5.33301 -1.33301 9.66602 -4 12.999z" />
    <glyph glyph-name="Uacute" unicode="&#xda;" horiz-adv-x="626" 
d="M557 237l0.00292969 467.999c0 22 -11 33 -33 33c-8.66699 0 -16.334 -3.16699 -23.001 -9.5s-10 -14.166 -10 -23.499v-467c0 -55.333 -13.667 -99.333 -41 -132c-30.667 -36.667 -76.334 -55 -137.001 -55s-106.334 18.333 -137.001 55c-28 32 -42 76 -42 132v467
c0 9.33301 -3.16699 17.166 -9.5 23.499s-14.166 9.5 -23.499 9.5c-8.66699 0 -16.334 -3.16699 -23.001 -9.5s-10 -14.166 -10 -23.499v-468c0 -71.333 19.667 -129.333 59 -174c42.667 -48 104.667 -72 186 -72c80 0 141.667 24 185 72c39.333 44.667 59 102.667 59 174z
M389.003 957.999c2.66699 4.66699 4 9.66602 4 14.999c0 19.333 -10 29 -30 29c-12 0 -21 -5.33301 -27 -16l-84 -151c-2.66699 -3.33301 -4 -7.66602 -4 -12.999c0 -17.333 9.33301 -26 28 -26c10 0 18 4.66699 24 14z" />
    <glyph glyph-name="Ucircumflex" unicode="&#xdb;" horiz-adv-x="626" 
d="M557 237l0.00292969 467.999c0 22 -11 33 -33 33c-8.66699 0 -16.334 -3.16699 -23.001 -9.5s-10 -14.166 -10 -23.499v-467c0 -55.333 -13.667 -99.333 -41 -132c-30.667 -36.667 -76.334 -55 -137.001 -55s-106.334 18.333 -137.001 55c-28 32 -42 76 -42 132v467
c0 9.33301 -3.16699 17.166 -9.5 23.499s-14.166 9.5 -23.499 9.5c-8.66699 0 -16.334 -3.16699 -23.001 -9.5s-10 -14.166 -10 -23.499v-468c0 -71.333 19.667 -129.333 59 -174c42.667 -48 104.667 -72 186 -72c80 0 141.667 24 185 72c39.333 44.667 59 102.667 59 174z
M441.003 810.999c18 0 27 9 27 27c0 8 -3 15 -9 21l-129 131c-5.33301 5.33301 -12.666 8 -21.999 8c-8.66699 0.666992 -16 -2 -22 -8l-129 -130c-6 -6 -9 -13 -9 -21c0 -18.667 9.33301 -28 28 -28c6.66699 0 12.667 2.66699 18 8l114 109l114 -109
c5.33301 -5.33301 11.666 -8 18.999 -8z" />
    <glyph glyph-name="Udieresis" unicode="&#xdc;" horiz-adv-x="626" 
d="M557 237l0.00292969 467.999c0 22 -11 33 -33 33c-8.66699 0 -16.334 -3.16699 -23.001 -9.5s-10 -14.166 -10 -23.499v-467c0 -55.333 -13.667 -99.333 -41 -132c-30.667 -36.667 -76.334 -55 -137.001 -55s-106.334 18.333 -137.001 55c-28 32 -42 76 -42 132v467
c0 9.33301 -3.16699 17.166 -9.5 23.499s-14.166 9.5 -23.499 9.5c-8.66699 0 -16.334 -3.16699 -23.001 -9.5s-10 -14.166 -10 -23.499v-468c0 -71.333 19.667 -129.333 59 -174c42.667 -48 104.667 -72 186 -72c80 0 141.667 24 185 72c39.333 44.667 59 102.667 59 174z
M459.003 887.999c0 13.333 -4.83301 24.833 -14.5 34.5s-21.167 14.5 -34.5 14.5s-24.666 -4.83301 -33.999 -14.5s-14 -21.167 -14 -34.5s4.66699 -24.833 14 -34.5s20.666 -14.5 33.999 -14.5s24.833 4.83301 34.5 14.5s14.5 21.167 14.5 34.5zM260.003 887.999
c0 13.333 -4.66699 24.833 -14 34.5s-20.666 14.5 -33.999 14.5s-24.833 -4.83301 -34.5 -14.5s-14.5 -21.167 -14.5 -34.5s4.83301 -24.833 14.5 -34.5s21.167 -14.5 34.5 -14.5s24.666 4.83301 33.999 14.5s14 21.167 14 34.5z" />
    <glyph glyph-name="Yacute" unicode="&#xdd;" horiz-adv-x="492" 
d="M492 706c0 9.33301 -3.50098 17.002 -10.501 23.002s-14.833 9 -23.5 9c-12.667 0 -22 -6.66699 -28 -20c-24 -56.667 -51.167 -116.167 -81.5 -178.5s-64.5 -128.5 -102.5 -198.5l-14 27c-70.667 134.667 -127 251.334 -169 350.001c-6 13.333 -15.667 20 -29 20
c-8.66699 0 -16.5 -3.16699 -23.5 -9.5s-10.5 -13.833 -10.5 -22.5c0 -4.66699 1 -9.33398 3 -14.001c25.333 -58.667 55.333 -123.334 90 -194.001l119 -232v-242c0 -8.66699 3.33301 -16.334 10 -23.001s14.334 -10 23.001 -10c22 0 33 11 33 33v242
c42.667 78 81.5 152.5 116.5 223.5s66.5 138.833 94.5 203.5c2 4.66699 3 9 3 13zM318.999 958.002c2.66699 4.66699 4 9.66602 4 14.999c0 19.333 -10 29 -30 29c-12 0 -21 -5.33301 -27 -16l-84 -151c-2.66699 -3.33301 -4 -7.66602 -4 -12.999
c0 -17.333 9.33301 -26 28 -26c10 0 18 4.66699 24 14z" />
    <glyph glyph-name="Thorn" unicode="&#xde;" horiz-adv-x="585" 
d="M541 319v49.998c0 53.333 -17 97 -51 131c-41.333 41.333 -101 62 -179 62h-160v242c0 22 -11 33 -33 33c-8.66699 0 -16.334 -3.16699 -23.001 -9.5s-10 -14.166 -10 -23.499v-947c0 -9.33301 3.33301 -17.166 10 -23.499s14.334 -9.5 23.001 -9.5c22 0 33 11 33 33v274
h171c34 0 64.5 4.5 91.5 13.5s50 21.833 69 38.5s33.5 36.5 43.5 59.5s15 48.5 15 76.5zM475 319.998c0 -37.333 -12.333 -67.333 -37 -90c-28.667 -25.333 -68 -38 -118 -38h-169v308h157c60 0 104.333 -14.333 133 -43c22.667 -22.667 34 -52 34 -88v-49z" />
    <glyph glyph-name="germandbls" unicode="&#xdf;" horiz-adv-x="557" 
d="M502 193c0 104.667 -56 169.667 -168 195c82 22.667 123 75.667 123 159c0 54.667 -16.667 98.667 -50 132c-32.667 32.667 -75 49 -127 49c-63.333 0 -113 -19.667 -149 -59c-38.667 -41.333 -58 -104 -58 -188v-572c0 -21.333 10.667 -32 32 -32
c8.66699 0 16.167 3.16699 22.5 9.5s9.5 13.833 9.5 22.5v572c0 124 47.333 186 142 186c33.333 0 60.333 -10.333 81 -31c23.333 -23.333 35 -54.666 35 -93.999c0 -44.667 -19 -79.334 -57 -104.001c-30.667 -19.333 -66 -29 -106 -29h-37c-18.667 0 -28 -9 -28 -27
c0 -18.667 9.33301 -28 28 -28h23c146.667 0 220 -52 220 -156c0 -96 -67 -144 -201 -144h-42c-19.333 0 -29 -9.66699 -29 -29c0 -20 9.66699 -30 29 -30h45c78 0 140.333 15.667 187 47c50 34 75 84.333 75 151z" />
    <glyph glyph-name="agrave" unicode="&#xe0;" horiz-adv-x="490" 
d="M450 23c0 11.333 -5.33301 19.332 -16 23.999c-19.333 9.33301 -29 31.333 -29 66v196c0 66 -12 114 -36 144c-27.333 34 -74.666 51 -141.999 51c-58 0 -104.667 -11.333 -140 -34c-10 -6 -15 -14 -15 -24c0 -19.333 9.66699 -29 29 -29c6 0 11.333 1.33301 16 4
c32 18 68 27 108 27c45.333 0 76.666 -11 93.999 -33c14.667 -18.667 22 -52.667 22 -102v-27h-125c-60 0 -105.667 -13.667 -137 -41c-27.333 -25.333 -41 -58.666 -41 -99.999v-8c0 -42 13 -75.333 39 -100c29.333 -28.667 73.666 -43 132.999 -43
c64.667 0 111.667 18.667 141 56c4.66699 -15.333 11.334 -27 20.001 -35c14.667 -14 30.667 -21 48 -21c20.667 0 31 9.66699 31 29zM341 166.999c0 -79.333 -41 -119 -123 -119c-77.333 0 -116 29.333 -116 88v9c0 58.667 39.333 88 118 88h121v-66zM301 634.999
l-84 151.001c-6 10.667 -15 16 -27 16c-20 0 -30 -9.66699 -30 -29c0 -5.33301 1.33301 -10.333 4 -15l89 -148c6 -9.33301 14 -14 24 -14c18.667 0 28 8.66699 28 26c0 5.33301 -1.33301 9.66602 -4 12.999z" />
    <glyph glyph-name="aacute" unicode="&#xe1;" horiz-adv-x="490" 
d="M450 23c0 11.333 -5.33301 19.332 -16 23.999c-19.333 9.33301 -29 31.333 -29 66v196c0 66 -12 114 -36 144c-27.333 34 -74.666 51 -141.999 51c-58 0 -104.667 -11.333 -140 -34c-10 -6 -15 -14 -15 -24c0 -19.333 9.66699 -29 29 -29c6 0 11.333 1.33301 16 4
c32 18 68 27 108 27c45.333 0 76.666 -11 93.999 -33c14.667 -18.667 22 -52.667 22 -102v-27h-125c-60 0 -105.667 -13.667 -137 -41c-27.333 -25.333 -41 -58.666 -41 -99.999v-8c0 -42 13 -75.333 39 -100c29.333 -28.667 73.666 -43 132.999 -43
c64.667 0 111.667 18.667 141 56c4.66699 -15.333 11.334 -27 20.001 -35c14.667 -14 30.667 -21 48 -21c20.667 0 31 9.66699 31 29zM341 166.999c0 -79.333 -41 -119 -123 -119c-77.333 0 -116 29.333 -116 88v9c0 58.667 39.333 88 118 88h121v-66zM307 757.999
c2.66699 4.66699 4 9.66602 4 14.999c0 19.333 -10 29 -30 29c-12 0 -21 -5.33301 -27 -16l-84 -151c-2.66699 -3.33301 -4 -7.66602 -4 -12.999c0 -17.333 9.33301 -26 28 -26c10 0 18 4.66699 24 14z" />
    <glyph glyph-name="acircumflex" unicode="&#xe2;" horiz-adv-x="490" 
d="M450 23c0 11.333 -5.33301 19.332 -16 23.999c-19.333 9.33301 -29 31.333 -29 66v196c0 66 -12 114 -36 144c-27.333 34 -74.666 51 -141.999 51c-58 0 -104.667 -11.333 -140 -34c-10 -6 -15 -14 -15 -24c0 -19.333 9.66699 -29 29 -29c6 0 11.333 1.33301 16 4
c32 18 68 27 108 27c45.333 0 76.666 -11 93.999 -33c14.667 -18.667 22 -52.667 22 -102v-27h-125c-60 0 -105.667 -13.667 -137 -41c-27.333 -25.333 -41 -58.666 -41 -99.999v-8c0 -42 13 -75.333 39 -100c29.333 -28.667 73.666 -43 132.999 -43
c64.667 0 111.667 18.667 141 56c4.66699 -15.333 11.334 -27 20.001 -35c14.667 -14 30.667 -21 48 -21c20.667 0 31 9.66699 31 29zM341 166.999c0 -79.333 -41 -119 -123 -119c-77.333 0 -116 29.333 -116 88v9c0 58.667 39.333 88 118 88h121v-66zM366 610.999
c18 0 27 9 27 27c0 8 -3 15 -9 21l-129 131c-5.33301 5.33301 -12.666 8 -21.999 8c-8.66699 0.666992 -16 -2 -22 -8l-129 -130c-6 -6 -9 -13 -9 -21c0 -18.667 9.33301 -28 28 -28c6.66699 0 12.667 2.66699 18 8l114 109l114 -109c5.33301 -5.33301 11.666 -8 18.999 -8z
" />
    <glyph glyph-name="atilde" unicode="&#xe3;" horiz-adv-x="490" 
d="M450 23c0 11.333 -5.33301 19.332 -16 23.999c-19.333 9.33301 -29 31.333 -29 66v196c0 66 -12 114 -36 144c-27.333 34 -74.666 51 -141.999 51c-58 0 -104.667 -11.333 -140 -34c-10 -6 -15 -14 -15 -24c0 -19.333 9.66699 -29 29 -29c6 0 11.333 1.33301 16 4
c32 18 68 27 108 27c45.333 0 76.666 -11 93.999 -33c14.667 -18.667 22 -52.667 22 -102v-27h-125c-60 0 -105.667 -13.667 -137 -41c-27.333 -25.333 -41 -58.666 -41 -99.999v-8c0 -42 13 -75.333 39 -100c29.333 -28.667 73.666 -43 132.999 -43
c64.667 0 111.667 18.667 141 56c4.66699 -15.333 11.334 -27 20.001 -35c14.667 -14 30.667 -21 48 -21c20.667 0 31 9.66699 31 29zM341 166.999c0 -79.333 -41 -119 -123 -119c-77.333 0 -116 29.333 -116 88v9c0 58.667 39.333 88 118 88h121v-66zM388 698.999
c-1.33301 20 -10.333 29.998 -27 29.998c-6 0 -14.667 -4.66699 -26 -14s-25.333 -14.333 -42 -15c-12.667 0 -33 6.66699 -61 20c-26.667 14 -50 20.667 -70 20c-24 -0.666992 -45 -6.83398 -63 -18.501s-27 -25.5 -27 -41.5c1.33301 -21.333 10.333 -31.666 27 -30.999
c6 0 14.667 4.66699 26 14c10.667 8.66699 24.667 13.667 42 15c13.333 0 33.333 -6.66699 60 -20c28 -13.333 51.667 -19.666 71 -18.999c24 0.666992 45 6.83398 63 18.501s27 25.5 27 41.5z" />
    <glyph glyph-name="adieresis" unicode="&#xe4;" horiz-adv-x="490" 
d="M450 23c0 11.333 -5.33301 19.332 -16 23.999c-19.333 9.33301 -29 31.333 -29 66v196c0 66 -12 114 -36 144c-27.333 34 -74.666 51 -141.999 51c-58 0 -104.667 -11.333 -140 -34c-10 -6 -15 -14 -15 -24c0 -19.333 9.66699 -29 29 -29c6 0 11.333 1.33301 16 4
c32 18 68 27 108 27c45.333 0 76.666 -11 93.999 -33c14.667 -18.667 22 -52.667 22 -102v-27h-125c-60 0 -105.667 -13.667 -137 -41c-27.333 -25.333 -41 -58.666 -41 -99.999v-8c0 -42 13 -75.333 39 -100c29.333 -28.667 73.666 -43 132.999 -43
c64.667 0 111.667 18.667 141 56c4.66699 -15.333 11.334 -27 20.001 -35c14.667 -14 30.667 -21 48 -21c20.667 0 31 9.66699 31 29zM341 166.999c0 -79.333 -41 -119 -123 -119c-77.333 0 -116 29.333 -116 88v9c0 58.667 39.333 88 118 88h121v-66zM381 687.999
c0 13.333 -4.83301 24.833 -14.5 34.5s-21.167 14.5 -34.5 14.5s-24.666 -4.83301 -33.999 -14.5s-14 -21.167 -14 -34.5s4.66699 -24.833 14 -34.5s20.666 -14.5 33.999 -14.5s24.833 4.83301 34.5 14.5s14.5 21.167 14.5 34.5zM182 687.999
c0 13.333 -4.66699 24.833 -14 34.5s-20.666 14.5 -33.999 14.5s-24.833 -4.83301 -34.5 -14.5s-14.5 -21.167 -14.5 -34.5s4.83301 -24.833 14.5 -34.5s21.167 -14.5 34.5 -14.5s24.666 4.83301 33.999 14.5s14 21.167 14 34.5z" />
    <glyph glyph-name="aring" unicode="&#xe5;" horiz-adv-x="490" 
d="M450 23c0 11.333 -5.33301 19.332 -16 23.999c-19.333 9.33301 -29 31.333 -29 66v196c0 66 -12 114 -36 144c-27.333 34 -74.666 51 -141.999 51c-58 0 -104.667 -11.333 -140 -34c-10 -6 -15 -14 -15 -24c0 -19.333 9.66699 -29 29 -29c6 0 11.333 1.33301 16 4
c32 18 68 27 108 27c45.333 0 76.666 -11 93.999 -33c14.667 -18.667 22 -52.667 22 -102v-27h-125c-60 0 -105.667 -13.667 -137 -41c-27.333 -25.333 -41 -58.666 -41 -99.999v-8c0 -42 13 -75.333 39 -100c29.333 -28.667 73.666 -43 132.999 -43
c64.667 0 111.667 18.667 141 56c4.66699 -15.333 11.334 -27 20.001 -35c14.667 -14 30.667 -21 48 -21c20.667 0 31 9.66699 31 29zM341 166.999c0 -79.333 -41 -119 -123 -119c-77.333 0 -116 29.333 -116 88v9c0 58.667 39.333 88 118 88h121v-66zM344 688.999
c0 32 -11.333 59.333 -34 82s-50 34 -82 34s-59.333 -11.333 -82 -34s-34 -50 -34 -82c0 -32.667 11.333 -60.334 34 -83.001s50 -34 82 -34s59.333 11.333 82 34s34 50.334 34 83.001zM301 688.999c0 -20 -7.16699 -37.333 -21.5 -52s-31.5 -22 -51.5 -22
c-19.333 0 -36.333 7.33301 -51 22s-22 32 -22 52s7.16699 37 21.5 51s31.5 21 51.5 21s37.167 -7 51.5 -21s21.5 -31 21.5 -51z" />
    <glyph glyph-name="ae" unicode="&#xe6;" horiz-adv-x="769" 
d="M721 258l0.000976562 39.001c0 138 -63 207 -189 207c-69.333 0 -119.666 -24.667 -150.999 -74c-24 49.333 -75.333 74 -154 74c-58 0 -104.667 -11.333 -140 -34c-10 -6 -15 -14 -15 -24c0 -19.333 9.66699 -29 29 -29c6 0 11.333 1.33301 16 4c32 18 68 27 108 27
c45.333 0 76.666 -11 93.999 -33c14.667 -18.667 22 -52.667 22 -102v-29h-125c-60 0 -105.667 -13.667 -137 -41c-27.333 -25.333 -41 -58.333 -41 -99v-7c0 -42 13 -75.333 39 -100c29.333 -28.667 73.666 -43 132.999 -43c81.333 0 135.666 27.667 162.999 83
c31.333 -55.333 84 -83 158 -83c62.667 0 115.667 13 159 39c15.333 9.33301 19.333 21.666 12 36.999c-5.33301 11.333 -13.333 17 -24 17c-5.33301 0 -9.66602 -1.33301 -12.999 -4c-36.667 -21.333 -80.667 -32 -132 -32c-85.333 0 -128 49.333 -128 148v32h290
c17.333 0 26 9 26 27zM659.001 284.001h-254v18c0 97.333 42.333 146 127 146s127 -48.333 127 -145v-19zM341.001 167.001c0 -79.333 -41 -119 -123 -119c-77.333 0 -116 29.333 -116 88v7c0 58.667 39.333 88 118 88h121v-64z" />
    <glyph glyph-name="ccedilla" unicode="&#xe7;" horiz-adv-x="415" 
d="M383 62c-4.66699 10.667 -12.333 16 -23 16c-5.33301 0 -10.333 -1.33301 -15 -4c-26.667 -14.667 -58.334 -22 -95.001 -22c-87.333 0 -131 53.333 -131 160v74c0 48.667 11.5 87.5 34.5 116.5s55.5 43.5 97.5 43.5c34 0 64.667 -7 92 -21
c4.66699 -2.66699 9.33398 -4 14.001 -4c18.667 0 28 10 28 30c0 10 -5 18 -15 24c-33.333 19.333 -74 29 -122 29c-61.333 0 -109.333 -22 -144 -66c-32 -40 -48 -91.667 -48 -155v-69c0 -62.667 13 -112.334 39 -149.001c28.667 -41.333 70.667 -64.333 126 -69l-2 -41
c-1.33301 -13.333 2.66699 -21.333 12 -24l27 -4l26 -4c22 -5.33301 33 -18 33 -38c0 -30.667 -24.667 -46 -74 -46c-33.333 0 -50 -5.66699 -50 -17c0 -15.333 21.333 -23 64 -23c36 0 64.5 7.5 85.5 22.5s31.5 35.167 31.5 60.5c0 54 -37.333 81 -112 81v32
c40 2 76.333 11.667 109 29c16 8.66699 20 21.334 12 38.001z" />
    <glyph glyph-name="egrave" unicode="&#xe8;" horiz-adv-x="483" 
d="M435 297c0 138 -63.002 207 -189.002 207c-64.667 0 -113.667 -20.667 -147 -62c-28.667 -36.667 -43 -85.667 -43 -147v-93c0 -62 14.333 -110.667 43 -146c33.333 -41.333 82.333 -62 147 -62c62.667 0 115.667 13 159 39c14.667 8.66699 18.334 21 11.001 37
c-5.33301 11.333 -13.333 17 -24 17c-5.33301 0 -9.66602 -1.33301 -12.999 -4c-37.333 -21.333 -81.333 -32 -132 -32c-85.333 0 -128 49.333 -128 148v30h290c17.333 0 26 9 26 27v41zM372.998 303v-20h-254v19c0 97.333 42.333 146 127 146s127 -48.333 127 -145z
M320.998 635l-84 151.001c-6 10.667 -15 16 -27 16c-20 0 -30 -9.66699 -30 -29c0 -5.33301 1.33301 -10.333 4 -15l89 -148c6 -9.33301 14 -14 24 -14c18.667 0 28 8.66699 28 26c0 5.33301 -1.33301 9.66602 -4 12.999z" />
    <glyph glyph-name="eacute" unicode="&#xe9;" horiz-adv-x="483" 
d="M435 297c0 138 -63.002 207 -189.002 207c-64.667 0 -113.667 -20.667 -147 -62c-28.667 -36.667 -43 -85.667 -43 -147v-93c0 -62 14.333 -110.667 43 -146c33.333 -41.333 82.333 -62 147 -62c62.667 0 115.667 13 159 39c14.667 8.66699 18.334 21 11.001 37
c-5.33301 11.333 -13.333 17 -24 17c-5.33301 0 -9.66602 -1.33301 -12.999 -4c-37.333 -21.333 -81.333 -32 -132 -32c-85.333 0 -128 49.333 -128 148v30h290c17.333 0 26 9 26 27v41zM372.998 303v-20h-254v19c0 97.333 42.333 146 127 146s127 -48.333 127 -145z
M314.998 758c2.66699 4.66699 4 9.66602 4 14.999c0 19.333 -10 29 -30 29c-12 0 -21 -5.33301 -27 -16l-84 -151c-2.66699 -3.33301 -4 -7.66602 -4 -12.999c0 -17.333 9.33301 -26 28 -26c10 0 18 4.66699 24 14z" />
    <glyph glyph-name="ecircumflex" unicode="&#xea;" horiz-adv-x="483" 
d="M435 297c0 138 -63.002 207 -189.002 207c-64.667 0 -113.667 -20.667 -147 -62c-28.667 -36.667 -43 -85.667 -43 -147v-93c0 -62 14.333 -110.667 43 -146c33.333 -41.333 82.333 -62 147 -62c62.667 0 115.667 13 159 39c14.667 8.66699 18.334 21 11.001 37
c-5.33301 11.333 -13.333 17 -24 17c-5.33301 0 -9.66602 -1.33301 -12.999 -4c-37.333 -21.333 -81.333 -32 -132 -32c-85.333 0 -128 49.333 -128 148v30h290c17.333 0 26 9 26 27v41zM372.998 303v-20h-254v19c0 97.333 42.333 146 127 146s127 -48.333 127 -145z
M381.998 611c18 0 27 9 27 27c0 8 -3 15 -9 21l-129 131c-5.33301 5.33301 -12.666 8 -21.999 8c-8.66699 0.666992 -16 -2 -22 -8l-129 -130c-6 -6 -9 -13 -9 -21c0 -18.667 9.33301 -28 28 -28c6.66699 0 12.667 2.66699 18 8l114 109l114 -109
c5.33301 -5.33301 11.666 -8 18.999 -8z" />
    <glyph glyph-name="edieresis" unicode="&#xeb;" horiz-adv-x="483" 
d="M435 297c0 138 -63.002 207 -189.002 207c-64.667 0 -113.667 -20.667 -147 -62c-28.667 -36.667 -43 -85.667 -43 -147v-93c0 -62 14.333 -110.667 43 -146c33.333 -41.333 82.333 -62 147 -62c62.667 0 115.667 13 159 39c14.667 8.66699 18.334 21 11.001 37
c-5.33301 11.333 -13.333 17 -24 17c-5.33301 0 -9.66602 -1.33301 -12.999 -4c-37.333 -21.333 -81.333 -32 -132 -32c-85.333 0 -128 49.333 -128 148v30h290c17.333 0 26 9 26 27v41zM372.998 303v-20h-254v19c0 97.333 42.333 146 127 146s127 -48.333 127 -145z
M394.998 688c0 13.333 -4.83301 24.833 -14.5 34.5s-21.167 14.5 -34.5 14.5s-24.666 -4.83301 -33.999 -14.5s-14 -21.167 -14 -34.5s4.66699 -24.833 14 -34.5s20.666 -14.5 33.999 -14.5s24.833 4.83301 34.5 14.5s14.5 21.167 14.5 34.5zM195.998 688
c0 13.333 -4.66699 24.833 -14 34.5s-20.666 14.5 -33.999 14.5s-24.833 -4.83301 -34.5 -14.5s-14.5 -21.167 -14.5 -34.5s4.83301 -24.833 14.5 -34.5s21.167 -14.5 34.5 -14.5s24.666 4.83301 33.999 14.5s14 21.167 14 34.5z" />
    <glyph glyph-name="igrave" unicode="&#xec;" horiz-adv-x="209" 
d="M137 26v446c0 8.66699 -3.16699 16.167 -9.5 22.5s-13.833 9.5 -22.5 9.5s-16.167 -3.16699 -22.5 -9.5s-9.5 -13.833 -9.5 -22.5v-446c0 -21.333 10.667 -32 32 -32c8.66699 0 16.167 3.16699 22.5 9.5s9.5 13.833 9.5 22.5zM181 635l-84 151.001
c-6 10.667 -15 16 -27 16c-20 0 -30 -9.66699 -30 -29c0 -5.33301 1.33301 -10.333 4 -15l89 -148c6 -9.33301 14 -14 24 -14c18.667 0 28 8.66699 28 26c0 5.33301 -1.33301 9.66602 -4 12.999z" />
    <glyph glyph-name="iacute" unicode="&#xed;" horiz-adv-x="209" 
d="M137 26v446c0 8.66699 -3.16699 16.167 -9.5 22.5s-13.833 9.5 -22.5 9.5s-16.167 -3.16699 -22.5 -9.5s-9.5 -13.833 -9.5 -22.5v-446c0 -21.333 10.667 -32 32 -32c8.66699 0 16.167 3.16699 22.5 9.5s9.5 13.833 9.5 22.5zM171 758
c2.66699 4.66699 4 9.66602 4 14.999c0 19.333 -10 29 -30 29c-12 0 -21 -5.33301 -27 -16l-84 -151c-2.66699 -3.33301 -4 -7.66602 -4 -12.999c0 -17.333 9.33301 -26 28 -26c10 0 18 4.66699 24 14z" />
    <glyph glyph-name="icircumflex" unicode="&#xee;" horiz-adv-x="209" 
d="M137 26v446c0 8.66699 -3.16699 16.167 -9.5 22.5s-13.833 9.5 -22.5 9.5s-16.167 -3.16699 -22.5 -9.5s-9.5 -13.833 -9.5 -22.5v-446c0 -21.333 10.667 -32 32 -32c8.66699 0 16.167 3.16699 22.5 9.5s9.5 13.833 9.5 22.5zM238 611c18 0 27 9 27 27c0 8 -3 15 -9 21
l-129 131c-5.33301 5.33301 -12.666 8 -21.999 8c-8.66699 0.666992 -16 -2 -22 -8l-129 -130c-6 -6 -9 -13 -9 -21c0 -18.667 9.33301 -28 28 -28c6.66699 0 12.667 2.66699 18 8l114 109l114 -109c5.33301 -5.33301 11.666 -8 18.999 -8z" />
    <glyph glyph-name="idieresis" unicode="&#xef;" horiz-adv-x="209" 
d="M137 26v446c0 8.66699 -3.16699 16.167 -9.5 22.5s-13.833 9.5 -22.5 9.5s-16.167 -3.16699 -22.5 -9.5s-9.5 -13.833 -9.5 -22.5v-446c0 -21.333 10.667 -32 32 -32c8.66699 0 16.167 3.16699 22.5 9.5s9.5 13.833 9.5 22.5zM255 688
c0 13.333 -4.83301 24.833 -14.5 34.5s-21.167 14.5 -34.5 14.5s-24.666 -4.83301 -33.999 -14.5s-14 -21.167 -14 -34.5s4.66699 -24.833 14 -34.5s20.666 -14.5 33.999 -14.5s24.833 4.83301 34.5 14.5s14.5 21.167 14.5 34.5zM56 688c0 13.333 -4.66699 24.833 -14 34.5
s-20.666 14.5 -33.999 14.5s-24.833 -4.83301 -34.5 -14.5s-14.5 -21.167 -14.5 -34.5s4.83301 -24.833 14.5 -34.5s21.167 -14.5 34.5 -14.5s24.666 4.83301 33.999 14.5s14 21.167 14 34.5z" />
    <glyph glyph-name="eth" unicode="&#xf0;" horiz-adv-x="542" 
d="M493 240c0 142 -55.6709 271.667 -167.004 389l76 58c12.667 10.667 14.667 23 6 37c-11.333 13.333 -23.666 15 -36.999 5l-83 -63c-9.33301 8.66699 -20.166 18 -32.499 28s-26.166 20.667 -41.499 32c-5.33301 4.66699 -11.666 7 -18.999 7c-21.333 0 -32 -11 -32 -33
c0 -9.33301 4.66699 -17.666 14 -24.999l34.5 -28l24.5 -20l-86 -65c-13.333 -10 -15 -22 -5 -36c11.333 -14 23.666 -15.667 36.999 -5l92 69c56.667 -60 97.667 -123.667 123 -191c-41.333 25.333 -85.333 38 -132 38c-55.333 0 -103.666 -17.667 -144.999 -53
c-46.667 -40.667 -70 -94.334 -70 -161.001c0 -69.333 20 -125.333 60 -168s92.667 -64 158 -64c64 0 116.667 20.667 158 62c44.667 44.667 67 107 67 187zM428.996 240c0 -62.667 -16 -110.333 -48 -143c-29.333 -30 -67 -45 -113 -45c-46.667 0 -84 15.5 -112 46.5
s-42 72.5 -42 124.5c0 48 17 86.667 51 116c30 26 65.333 39 106 39c58 0 108 -18 150 -54c5.33301 -30.667 8 -58.667 8 -84z" />
    <glyph glyph-name="ntilde" unicode="&#xf1;" horiz-adv-x="534" 
d="M462 26v298.001c0 120 -53.667 180 -161 180c-70 0 -123 -21.333 -159 -64c-5.33301 15.333 -13 27.666 -23 36.999c-15.333 14 -31.333 21 -48 21c-21.333 0 -32 -10 -32 -30c0 -11.333 5.33301 -19.333 16 -24c22 -10 33 -31.667 33 -65v-353
c0 -21.333 10.667 -32 32 -32c8.66699 0 16.167 3.16699 22.5 9.5s9.5 13.833 9.5 22.5v342c28 50 74.667 75 140 75c40.667 0 69 -11.333 85 -34c14 -19.333 21 -49 21 -89v-294c0 -8.66699 3.16699 -16.167 9.5 -22.5s13.833 -9.5 22.5 -9.5c21.333 0 32 10.667 32 32z
M429 699.001c-1.33301 20 -10.333 29.998 -27 29.998c-6 0 -14.667 -4.66699 -26 -14s-25.333 -14.333 -42 -15c-12.667 0 -33 6.66699 -61 20c-26.667 14 -50 20.667 -70 20c-24 -0.666992 -45 -6.83398 -63 -18.501s-27 -25.5 -27 -41.5
c1.33301 -21.333 10.333 -31.666 27 -30.999c6 0 14.667 4.66699 26 14c10.667 8.66699 24.667 13.667 42 15c13.333 0 33.333 -6.66699 60 -20c28 -13.333 51.667 -19.666 71 -18.999c24 0.666992 45 6.83398 63 18.501s27 25.5 27 41.5z" />
    <glyph glyph-name="ograve" unicode="&#xf2;" 
d="M444 198v102c0 60.667 -15 108.667 -45 144c-33.333 40 -83 60 -149 60c-66.667 0 -116.334 -20 -149.001 -60c-30 -35.333 -45 -83.333 -45 -144v-102c0 -61.333 15 -109.333 45 -144c32.667 -40 82.334 -60 149.001 -60c66 0 115.667 20 149 60
c30 34.667 45 82.667 45 144zM380 198c0 -96 -43.333 -144 -130 -144c-87.333 0 -131 48 -131 144v102c0 95.333 43.667 143 131 143c86.667 0 130 -47.667 130 -143v-102zM326 635l-84 151.001c-6 10.667 -15 16 -27 16c-20 0 -30 -9.66699 -30 -29
c0 -5.33301 1.33301 -10.333 4 -15l89 -148c6 -9.33301 14 -14 24 -14c18.667 0 28 8.66699 28 26c0 5.33301 -1.33301 9.66602 -4 12.999z" />
    <glyph glyph-name="oacute" unicode="&#xf3;" 
d="M444 198v102c0 60.667 -15 108.667 -45 144c-33.333 40 -83 60 -149 60c-66.667 0 -116.334 -20 -149.001 -60c-30 -35.333 -45 -83.333 -45 -144v-102c0 -61.333 15 -109.333 45 -144c32.667 -40 82.334 -60 149.001 -60c66 0 115.667 20 149 60
c30 34.667 45 82.667 45 144zM380 198c0 -96 -43.333 -144 -130 -144c-87.333 0 -131 48 -131 144v102c0 95.333 43.667 143 131 143c86.667 0 130 -47.667 130 -143v-102zM314 758c2.66699 4.66699 4 9.66602 4 14.999c0 19.333 -10 29 -30 29c-12 0 -21 -5.33301 -27 -16
l-84 -151c-2.66699 -3.33301 -4 -7.66602 -4 -12.999c0 -17.333 9.33301 -26 28 -26c10 0 18 4.66699 24 14z" />
    <glyph glyph-name="ocircumflex" unicode="&#xf4;" 
d="M444 198v102c0 60.667 -15 108.667 -45 144c-33.333 40 -83 60 -149 60c-66.667 0 -116.334 -20 -149.001 -60c-30 -35.333 -45 -83.333 -45 -144v-102c0 -61.333 15 -109.333 45 -144c32.667 -40 82.334 -60 149.001 -60c66 0 115.667 20 149 60
c30 34.667 45 82.667 45 144zM380 198c0 -96 -43.333 -144 -130 -144c-87.333 0 -131 48 -131 144v102c0 95.333 43.667 143 131 143c86.667 0 130 -47.667 130 -143v-102zM383 611c18 0 27 9 27 27c0 8 -3 15 -9 21l-129 131c-5.33301 5.33301 -12.666 8 -21.999 8
c-8.66699 0.666992 -16 -2 -22 -8l-129 -130c-6 -6 -9 -13 -9 -21c0 -18.667 9.33301 -28 28 -28c6.66699 0 12.667 2.66699 18 8l114 109l114 -109c5.33301 -5.33301 11.666 -8 18.999 -8z" />
    <glyph glyph-name="otilde" unicode="&#xf5;" 
d="M444 198v102c0 60.667 -15 108.667 -45 144c-33.333 40 -83 60 -149 60c-66.667 0 -116.334 -20 -149.001 -60c-30 -35.333 -45 -83.333 -45 -144v-102c0 -61.333 15 -109.333 45 -144c32.667 -40 82.334 -60 149.001 -60c66 0 115.667 20 149 60
c30 34.667 45 82.667 45 144zM380 198c0 -96 -43.333 -144 -130 -144c-87.333 0 -131 48 -131 144v102c0 95.333 43.667 143 131 143c86.667 0 130 -47.667 130 -143v-102zM409 699c-1.33301 20 -10.333 29.998 -27 29.998c-6 0 -14.667 -4.66699 -26 -14
s-25.333 -14.333 -42 -15c-12.667 0 -33 6.66699 -61 20c-26.667 14 -50 20.667 -70 20c-24 -0.666992 -45 -6.83398 -63 -18.501s-27 -25.5 -27 -41.5c1.33301 -21.333 10.333 -31.666 27 -30.999c6 0 14.667 4.66699 26 14c10.667 8.66699 24.667 13.667 42 15
c13.333 0 33.333 -6.66699 60 -20c28 -13.333 51.667 -19.666 71 -18.999c24 0.666992 45 6.83398 63 18.501s27 25.5 27 41.5z" />
    <glyph glyph-name="odieresis" unicode="&#xf6;" 
d="M444 198v102c0 60.667 -15 108.667 -45 144c-33.333 40 -83 60 -149 60c-66.667 0 -116.334 -20 -149.001 -60c-30 -35.333 -45 -83.333 -45 -144v-102c0 -61.333 15 -109.333 45 -144c32.667 -40 82.334 -60 149.001 -60c66 0 115.667 20 149 60
c30 34.667 45 82.667 45 144zM380 198c0 -96 -43.333 -144 -130 -144c-87.333 0 -131 48 -131 144v102c0 95.333 43.667 143 131 143c86.667 0 130 -47.667 130 -143v-102zM397 688c0 13.333 -4.83301 24.833 -14.5 34.5s-21.167 14.5 -34.5 14.5
s-24.666 -4.83301 -33.999 -14.5s-14 -21.167 -14 -34.5s4.66699 -24.833 14 -34.5s20.666 -14.5 33.999 -14.5s24.833 4.83301 34.5 14.5s14.5 21.167 14.5 34.5zM198 688c0 13.333 -4.66699 24.833 -14 34.5s-20.666 14.5 -33.999 14.5s-24.833 -4.83301 -34.5 -14.5
s-14.5 -21.167 -14.5 -34.5s4.83301 -24.833 14.5 -34.5s21.167 -14.5 34.5 -14.5s24.666 4.83301 33.999 14.5s14 21.167 14 34.5z" />
    <glyph glyph-name="divide" unicode="&#xf7;" horiz-adv-x="559" 
d="M327 445c0 13.333 -4.66895 24.668 -14.002 34.001s-20.666 14 -33.999 14s-24.666 -4.66699 -33.999 -14s-14 -20.666 -14 -33.999c0 -12.667 4.83301 -23.834 14.5 -33.501s20.834 -14.5 33.501 -14.5c13.333 0 24.666 4.66699 33.999 14s14 20.666 14 33.999z
M470.998 273.002c0 20 -10.333 30 -31 30h-321c-20.667 0 -31 -10 -31 -30c0 -20.667 10.333 -31 31 -31h321c20.667 0 31 10.333 31 31zM326.998 100.002c0 13.333 -4.66895 24.835 -14.002 34.502s-20.666 14.5 -33.999 14.5s-24.666 -4.83301 -33.999 -14.5
s-14 -21.167 -14 -34.5c0 -12.667 4.83301 -23.834 14.5 -33.501s20.834 -14.5 33.501 -14.5c13.333 0 24.666 4.66699 33.999 14s14 20.666 14 33.999z" />
    <glyph glyph-name="oslash" unicode="&#xf8;" 
d="M444 198l0.000976562 102c0 76.667 -23.667 132.667 -71 168l18 40c6 14 2 24 -12 30c-14 5.33301 -24.333 1.66602 -31 -11.001l-16 -37c-24.667 9.33301 -52 14 -82 14c-66.667 0 -116.334 -20 -149.001 -60c-30 -35.333 -45 -83.333 -45 -144v-102
c0 -77.333 23.667 -133.666 71 -168.999l-18 -39c-6.66699 -14 -2.66699 -24.333 12 -31c12.667 -6 22.667 -2 30 12l17 36c24 -8.66699 51.333 -13 82 -13c66 0 115.667 20 149 60c30 34.667 45 82.667 45 144zM380.001 198c0 -96 -43.333 -144 -130 -144
c-22 0 -41 3 -57 9l153 345c22.667 -22.667 34 -58.667 34 -108v-102zM307.001 434l-153 -345c-23.333 24.667 -35 61 -35 109v102c0 95.333 43.667 143 131 143c22 0 41 -3 57 -9z" />
    <glyph glyph-name="ugrave" unicode="&#xf9;" horiz-adv-x="535" 
d="M495 23c0 11.333 -5.33105 19.333 -15.998 24c-21.333 9.33301 -32 31.333 -32 66v359c0 8.66699 -3.16699 16.167 -9.5 22.5s-13.833 9.5 -22.5 9.5s-16.167 -3.16699 -22.5 -9.5s-9.5 -13.833 -9.5 -22.5v-337c-24.667 -52.667 -71.334 -79 -140.001 -79
c-40.667 0 -69.334 11 -86.001 33c-14 18 -21 47.667 -21 89v294c0 8.66699 -3.16699 16.167 -9.5 22.5s-13.833 9.5 -22.5 9.5s-16.167 -3.16699 -22.5 -9.5s-9.5 -13.833 -9.5 -22.5v-299c0 -119.333 54 -179 162 -179c68 0 120.667 20.667 158 62
c5.33301 -18 13 -31.667 23 -41c14.667 -14 31 -21 49 -21c20.667 0 31 9.66699 31 29zM326.002 635l-84 151.001c-6 10.667 -15 16 -27 16c-20 0 -30 -9.66699 -30 -29c0 -5.33301 1.33301 -10.333 4 -15l89 -148c6 -9.33301 14 -14 24 -14c18.667 0 28 8.66699 28 26
c0 5.33301 -1.33301 9.66602 -4 12.999z" />
    <glyph glyph-name="uacute" unicode="&#xfa;" horiz-adv-x="535" 
d="M495 23c0 11.333 -5.33105 19.333 -15.998 24c-21.333 9.33301 -32 31.333 -32 66v359c0 8.66699 -3.16699 16.167 -9.5 22.5s-13.833 9.5 -22.5 9.5s-16.167 -3.16699 -22.5 -9.5s-9.5 -13.833 -9.5 -22.5v-337c-24.667 -52.667 -71.334 -79 -140.001 -79
c-40.667 0 -69.334 11 -86.001 33c-14 18 -21 47.667 -21 89v294c0 8.66699 -3.16699 16.167 -9.5 22.5s-13.833 9.5 -22.5 9.5s-16.167 -3.16699 -22.5 -9.5s-9.5 -13.833 -9.5 -22.5v-299c0 -119.333 54 -179 162 -179c68 0 120.667 20.667 158 62
c5.33301 -18 13 -31.667 23 -41c14.667 -14 31 -21 49 -21c20.667 0 31 9.66699 31 29zM326.002 758c2.66699 4.66699 4 9.66602 4 14.999c0 19.333 -10 29 -30 29c-12 0 -21 -5.33301 -27 -16l-84 -151c-2.66699 -3.33301 -4 -7.66602 -4 -12.999
c0 -17.333 9.33301 -26 28 -26c10 0 18 4.66699 24 14z" />
    <glyph glyph-name="ucircumflex" unicode="&#xfb;" horiz-adv-x="535" 
d="M495 23c0 11.333 -5.33105 19.333 -15.998 24c-21.333 9.33301 -32 31.333 -32 66v359c0 8.66699 -3.16699 16.167 -9.5 22.5s-13.833 9.5 -22.5 9.5s-16.167 -3.16699 -22.5 -9.5s-9.5 -13.833 -9.5 -22.5v-337c-24.667 -52.667 -71.334 -79 -140.001 -79
c-40.667 0 -69.334 11 -86.001 33c-14 18 -21 47.667 -21 89v294c0 8.66699 -3.16699 16.167 -9.5 22.5s-13.833 9.5 -22.5 9.5s-16.167 -3.16699 -22.5 -9.5s-9.5 -13.833 -9.5 -22.5v-299c0 -119.333 54 -179 162 -179c68 0 120.667 20.667 158 62
c5.33301 -18 13 -31.667 23 -41c14.667 -14 31 -21 49 -21c20.667 0 31 9.66699 31 29zM393.002 611c18 0 27 9 27 27c0 8 -3 15 -9 21l-129 131c-5.33301 5.33301 -12.666 8 -21.999 8c-8.66699 0.666992 -16 -2 -22 -8l-129 -130c-6 -6 -9 -13 -9 -21
c0 -18.667 9.33301 -28 28 -28c6.66699 0 12.667 2.66699 18 8l114 109l114 -109c5.33301 -5.33301 11.666 -8 18.999 -8z" />
    <glyph glyph-name="udieresis" unicode="&#xfc;" horiz-adv-x="535" 
d="M495 23c0 11.333 -5.33105 19.333 -15.998 24c-21.333 9.33301 -32 31.333 -32 66v359c0 8.66699 -3.16699 16.167 -9.5 22.5s-13.833 9.5 -22.5 9.5s-16.167 -3.16699 -22.5 -9.5s-9.5 -13.833 -9.5 -22.5v-337c-24.667 -52.667 -71.334 -79 -140.001 -79
c-40.667 0 -69.334 11 -86.001 33c-14 18 -21 47.667 -21 89v294c0 8.66699 -3.16699 16.167 -9.5 22.5s-13.833 9.5 -22.5 9.5s-16.167 -3.16699 -22.5 -9.5s-9.5 -13.833 -9.5 -22.5v-299c0 -119.333 54 -179 162 -179c68 0 120.667 20.667 158 62
c5.33301 -18 13 -31.667 23 -41c14.667 -14 31 -21 49 -21c20.667 0 31 9.66699 31 29zM408.002 688c0 13.333 -4.83301 24.833 -14.5 34.5s-21.167 14.5 -34.5 14.5s-24.666 -4.83301 -33.999 -14.5s-14 -21.167 -14 -34.5s4.66699 -24.833 14 -34.5
s20.666 -14.5 33.999 -14.5s24.833 4.83301 34.5 14.5s14.5 21.167 14.5 34.5zM209.002 688c0 13.333 -4.66699 24.833 -14 34.5s-20.666 14.5 -33.999 14.5s-24.833 -4.83301 -34.5 -14.5s-14.5 -21.167 -14.5 -34.5s4.83301 -24.833 14.5 -34.5s21.167 -14.5 34.5 -14.5
s24.666 4.83301 33.999 14.5s14 21.167 14 34.5z" />
    <glyph glyph-name="yacute" unicode="&#xfd;" horiz-adv-x="448" 
d="M423 461c1.33301 5.33301 2.00098 9.33398 2.00098 12.001c0 20.667 -11 31 -33 31c-14.667 0 -24.334 -7.33301 -29.001 -22l-139 -405c-59.333 150 -108.333 285 -147 405c-4.66699 14.667 -14 22 -28 22c-22 0 -33 -10 -33 -30c0 -2.66699 0.666992 -6 2 -10
c19.333 -60 43.333 -128.667 72 -206l101 -262c-38 -77.333 -89 -116.333 -153 -117c-20 -1.33301 -30 -11.333 -30 -30c0 -22.667 11 -33.334 33 -32.001c58 1.33301 105.667 22 143 62c36 36.667 69.667 99.667 101 189zM306.001 758.001
c2.66699 4.66699 4 9.66602 4 14.999c0 19.333 -10 29 -30 29c-12 0 -21 -5.33301 -27 -16l-84 -151c-2.66699 -3.33301 -4 -7.66602 -4 -12.999c0 -17.333 9.33301 -26 28 -26c10 0 18 4.66699 24 14z" />
    <glyph glyph-name="thorn" unicode="&#xfe;" horiz-adv-x="488" 
d="M433 211v96c0 130.667 -60.667 196 -182 196c-44 0 -84.667 -13.333 -122 -40v246c0 8.66699 -3.16699 16.167 -9.5 22.5s-13.833 9.5 -22.5 9.5s-16.167 -3.16699 -22.5 -9.5s-9.5 -13.833 -9.5 -22.5v-861c0 -21.333 10.667 -32 32 -32
c8.66699 0 16.167 3.16699 22.5 9.5s9.5 13.833 9.5 22.5v189c37.333 -29.333 79.333 -44 126 -44c118.667 0 178 72.667 178 218zM369 205c0 -102.667 -40.333 -154 -121 -154c-46 0 -85.667 17.667 -119 53v294c38 32 76.667 48 116 48c44 0 75.667 -11.167 95 -33.5
s29 -56.833 29 -103.5v-104z" />
    <glyph glyph-name="ydieresis" unicode="&#xff;" horiz-adv-x="443" 
d="M423 461c1.33301 5.33301 2.00098 9.33398 2.00098 12.001c0 20.667 -11 31 -33 31c-14.667 0 -24.334 -7.33301 -29.001 -22l-139 -405c-59.333 150 -108.333 285 -147 405c-4.66699 14.667 -14 22 -28 22c-22 0 -33 -10 -33 -30c0 -2.66699 0.666992 -6 2 -10
c19.333 -60 43.333 -128.667 72 -206l101 -262c-38 -77.333 -89 -116.333 -153 -117c-20 -1.33301 -30 -11.333 -30 -30c0 -22.667 11 -33.334 33 -32.001c58 1.33301 105.667 22 143 62c36 36.667 69.667 99.667 101 189zM373.001 688.001
c0 13.333 -4.83301 24.833 -14.5 34.5s-21.167 14.5 -34.5 14.5s-24.666 -4.83301 -33.999 -14.5s-14 -21.167 -14 -34.5s4.66699 -24.833 14 -34.5s20.666 -14.5 33.999 -14.5s24.833 4.83301 34.5 14.5s14.5 21.167 14.5 34.5zM174.001 688.001
c0 13.333 -4.66699 24.833 -14 34.5s-20.666 14.5 -33.999 14.5s-24.833 -4.83301 -34.5 -14.5s-14.5 -21.167 -14.5 -34.5s4.83301 -24.833 14.5 -34.5s21.167 -14.5 34.5 -14.5s24.666 4.83301 33.999 14.5s14 21.167 14 34.5z" />
    <glyph glyph-name="dotlessi" unicode="&#x131;" horiz-adv-x="209" 
d="M137 26v446c0 8.66699 -3.16699 16.167 -9.5 22.5s-13.833 9.5 -22.5 9.5s-16.167 -3.16699 -22.5 -9.5s-9.5 -13.833 -9.5 -22.5v-446c0 -21.333 10.667 -32 32 -32c8.66699 0 16.167 3.16699 22.5 9.5s9.5 13.833 9.5 22.5z" />
    <glyph glyph-name="Lslash" unicode="&#x141;" horiz-adv-x="553" 
d="M547 32c0 20.667 -10.667 31 -32 31h-325v281l131 85c9.33301 6 14 14.667 14 26c0 8 -3 15.167 -9 21.5s-13.333 9.5 -22 9.5c-6 0 -11.667 -1.66699 -17 -5l-97 -63v287c0 22 -11 33 -33 33c-21.333 0 -32 -11 -32 -33v-330l-96 -62c-9.33301 -6 -14 -14.667 -14 -26
c0 -20.667 10.333 -31 31 -31c6 0 11.667 1.66699 17 5l62 41v-270c0 -21.333 10.333 -32 31 -32h359c21.333 0 32 10.667 32 32z" />
    <glyph glyph-name="lslash" unicode="&#x142;" horiz-adv-x="329" 
d="M325 456c0 19.333 -9.99902 29 -29.999 29c-4.66699 0 -9.66699 -1.66699 -15 -5l-99 -64v281c0 8.66699 -3.16699 16.167 -9.5 22.5s-13.833 9.5 -22.5 9.5s-16.167 -3.16699 -22.5 -9.5s-9.5 -13.833 -9.5 -22.5v-323l-96 -62c-8.66699 -6 -13 -14.333 -13 -25
c0 -19.333 9.66699 -29 29 -29c5.33301 0 10.666 1.66699 15.999 5l64 41v-204c0 -34.667 10.667 -61.667 32 -81c14.667 -14 31 -21 49 -21c20.667 0 31 9.66699 31 29c0 12 -5.33301 20.333 -16 25c-21.333 9.33301 -32 31 -32 65v229l130 85c9.33301 6 14 14.333 14 25z
" />
    <glyph glyph-name="OE" unicode="&#x152;" horiz-adv-x="954" 
d="M914 32c0 20.667 -10.333 31 -31 31h-326v270h283c20.667 0 31 10.333 31 31s-10.333 31 -31 31h-283v270h311c20.667 0 31 10.667 31 32c0 8.66699 -3 16.167 -9 22.5s-13.333 9.5 -22 9.5h-345c-8.66699 0 -16.167 -3.16699 -22.5 -9.5s-9.5 -13.833 -9.5 -22.5v-28
c-41.333 46 -100.666 69 -177.999 69c-85.333 0 -149 -28 -191 -84c-36 -47.333 -54 -109.333 -54 -186v-206c0 -77.333 18 -139.333 54 -186c42 -56 105.667 -84 191 -84c77.333 0 136.666 23 177.999 69v-29c0 -21.333 10.667 -32 32 -32h360c20.667 0 31 10.667 31 32z
M491 262c0 -140 -59.333 -210 -178 -210c-119.333 0 -179 70 -179 210v206c0 139.333 59.667 209 179 209c118.667 0 178 -69.667 178 -209v-206z" />
    <glyph glyph-name="oe" unicode="&#x153;" horiz-adv-x="808" 
d="M760 297c0 138 -63.0029 207.001 -189.003 207.001c-74 0 -126.667 -28.667 -158 -86c-31.333 57.333 -85.666 86 -162.999 86c-66.667 0 -116.334 -20 -149.001 -60c-30 -35.333 -45 -83.333 -45 -144v-102c0 -61.333 15 -109.333 45 -144
c32.667 -40 82.334 -60 149.001 -60c78 0 132 28.333 162 85c30.667 -56.667 83.334 -85 158.001 -85c62.667 0 115.667 13 159 39c15.333 9.33301 19.333 21.666 12 36.999c-5.33301 11.333 -13.333 17 -24 17c-5.33301 0 -9.66602 -1.33301 -12.999 -4
c-36.667 -21.333 -80.667 -32 -132 -32c-85.333 0 -128 49.333 -128 148v30h290c17.333 0 26 9 26 27v41zM697.997 303.001v-20h-254v19c0 97.333 42.333 146 127 146s127 -48.333 127 -145zM379.997 198.001c0 -96 -43.333 -144 -130 -144c-87.333 0 -131 48 -131 144v102
c0 95.333 43.667 143 131 143c86.667 0 130 -47.667 130 -143v-102z" />
    <glyph glyph-name="Scaron" unicode="&#x160;" horiz-adv-x="573" 
d="M523 209c0 65.333 -22.6641 113.667 -67.9971 145c-23.333 15.333 -61.333 28.666 -114 39.999c-75.333 14.667 -115.666 22.667 -120.999 24c-66.667 18.667 -100 57.334 -100 116.001c0 44 14.667 78.833 44 104.5s69.333 38.5 120 38.5c26 0 57 -5.33301 93 -16
c38 -10 59 -15 63 -15c20.667 0 31 11 31 33c0 13.333 -7 23 -21 29c-45.333 20 -101.666 30 -168.999 30c-66.667 0 -121.334 -18.667 -164.001 -56c-42 -37.333 -63 -88 -63 -152c0 -74.667 30.333 -126 91 -154c23.333 -11.333 59.666 -21.333 108.999 -30
c29.333 -5.33301 52.666 -10 69.999 -14s29.333 -7 36 -9c64.667 -20.667 97 -60 97 -118c0 -46.667 -15.667 -83.667 -47 -111c-32.667 -28.667 -81.334 -43 -146.001 -43c-32.667 0 -63.334 3 -92.001 9c-20 4 -39.667 10 -59 18c-15.333 6 -25 9 -29 9
c-20 0 -30 -11 -30 -33c0 -13.333 6.66699 -23 20 -29c50 -22.667 114.333 -34 193 -34c80 0 142.667 19.167 188 57.5s68 91.833 68 160.5zM441.003 971.001c0 18 -9.33398 27 -28.001 27c-7.33301 0 -13.333 -2.33301 -18 -7l-114 -109l-114 109
c-5.33301 5.33301 -11.666 8 -18.999 8c-18 0 -27 -9 -27 -27c0 -8 3 -15 9 -21l129 -131c6 -6 13.333 -9 22 -9s16 3 22 9l129 130c6 6 9 13 9 21z" />
    <glyph glyph-name="scaron" unicode="&#x161;" horiz-adv-x="422" 
d="M380 143c0 55.333 -23.9971 93.6689 -71.9971 115.002l-67 16.5l-66 16.5c-48 12.667 -72 36.667 -72 72c0 25.333 8.83301 45.666 26.5 60.999s43.5 23 77.5 23c36.667 0 70.667 -6.33301 102 -19c4 -1.33301 7.66699 -2 11 -2c18.667 0 28 9.66699 28 29
c0 13.333 -6.33301 22.333 -19 27c-34 14.667 -75.333 22 -124 22c-24 0 -45.833 -3.33301 -65.5 -10s-36.834 -16.167 -51.501 -28.5s-26 -27.333 -34 -45s-12 -37.5 -12 -59.5c0 -54 24 -91.333 72 -112l132 -33c48 -13.333 72 -38.333 72 -75c0 -60 -39.667 -90 -119 -90
c-44 0 -84 6.66699 -120 20c-4 1.33301 -7.66699 2 -11 2c-12.667 0 -21.334 -6.33301 -26.001 -19c-6.66699 -18.667 -1.33398 -31.334 15.999 -38.001c38 -14.667 84.667 -22 140 -22c56.667 0 101.167 12.833 133.5 38.5s48.5 62.5 48.5 110.5zM372.003 771.003
c0 18 -9.33398 27 -28.001 27c-7.33301 0 -13.333 -2.33301 -18 -7l-114 -109l-114 109c-5.33301 5.33301 -11.666 8 -18.999 8c-18 0 -27 -9 -27 -27c0 -8 3 -15 9 -21l129 -131c6 -6 13.333 -9 22 -9s16 3 22 9l129 130c6 6 9 13 9 21z" />
    <glyph glyph-name="Ydieresis" unicode="&#x178;" horiz-adv-x="492" 
d="M487 706c0 9.33301 -3.50098 17 -10.501 23s-14.833 9 -23.5 9c-12.667 0 -22 -6.66699 -28 -20c-24 -56.667 -51.167 -116.167 -81.5 -178.5s-64.5 -128.5 -102.5 -198.5l-14 27c-70.667 134.667 -127 251.334 -169 350.001c-6 13.333 -15.667 20 -29 20
c-8.66699 0 -16.5 -3.16699 -23.5 -9.5s-10.5 -13.833 -10.5 -22.5c0 -4.66699 1 -9.33398 3 -14.001c27.333 -63.333 58.333 -130.333 93 -201s73.334 -145.667 116.001 -225v-242c0 -8.66699 3.33301 -16.334 10 -23.001s14.334 -10 23.001 -10
c9.33301 0 17.166 3.33301 23.499 10s9.5 14.334 9.5 23.001v242c42.667 78 81.5 152.5 116.5 223.5s66.5 138.833 94.5 203.5c2 4.66699 3 9 3 13zM381.999 888c0 13.333 -4.83301 24.666 -14.5 33.999s-21.167 14 -34.5 14s-24.666 -4.66699 -33.999 -14
s-14 -20.666 -14 -33.999s4.66699 -24.833 14 -34.5s20.666 -14.5 33.999 -14.5s24.833 4.83301 34.5 14.5s14.5 21.167 14.5 34.5zM183.999 888c0 13.333 -4.83301 24.666 -14.5 33.999s-21.167 14 -34.5 14s-24.833 -4.66699 -34.5 -14s-14.5 -20.666 -14.5 -33.999
s4.83301 -24.833 14.5 -34.5s21.167 -14.5 34.5 -14.5s24.833 4.83301 34.5 14.5s14.5 21.167 14.5 34.5z" />
    <glyph glyph-name="Zcaron" unicode="&#x17d;" 
d="M482 32c0 20.667 -10.333 31 -31 31h-349l369 607c6.66699 10.667 10 19.667 10 27c0 21.333 -10.333 32 -31 32h-402c-8.66699 0 -16 -3.16699 -22 -9.5s-9 -13.833 -9 -22.5c0 -21.333 10.333 -32 31 -32h344l-367 -603c-6.66699 -10.667 -10 -20.667 -10 -30
c0 -21.333 10.667 -32 32 -32h404c20.667 0 31 10.667 31 32zM411 971c0 18 -9.33398 27 -28.001 27c-7.33301 0 -13.333 -2.33301 -18 -7l-114 -109l-114 109c-5.33301 5.33301 -11.666 8 -18.999 8c-18 0 -27 -9 -27 -27c0 -8 3 -15 9 -21l129 -131c6 -6 13.333 -9 22 -9
s16 3 22 9l129 130c6 6 9 13 9 21z" />
    <glyph glyph-name="zcaron" unicode="&#x17e;" horiz-adv-x="426" 
d="M394 468c0 20 -10 30 -30 30h-295c-19.333 0 -29 -10 -29 -30s9.66699 -30 29 -30h237l-279 -388c-4 -5.33301 -6 -11.333 -6 -18c0 -21.333 10 -32 30 -32h313c20 0 30 10 30 30c0 19.333 -10 29 -30 29h-256l278 386c5.33301 7.33301 8 15 8 23zM373 771
c0 18 -9.33398 27 -28.001 27c-7.33301 0 -13.333 -2.33301 -18 -7l-114 -109l-114 109c-5.33301 5.33301 -11.666 8 -18.999 8c-18 0 -27 -9 -27 -27c0 -8 3 -15 9 -21l129 -131c6 -6 13.333 -9 22 -9s16 3 22 9l129 130c6 6 9 13 9 21z" />
    <glyph glyph-name="florin" unicode="&#x192;" horiz-adv-x="365" 
d="M386 690c0 19.333 -9.99902 29 -29.999 29h-22c-40 0 -72.833 -12 -98.5 -36s-41.834 -56 -48.501 -96l-16 -93h-49c-19.333 0 -29 -9.33301 -29 -28c0 -19.333 9.66699 -29 29 -29h39l-83 -474c-6.66699 -41.333 -19 -70.333 -37 -87
c-14.667 -14.667 -36.667 -22 -66 -22h-13c-20 0 -30 -10 -30 -30c0 -19.333 10 -29 30 -29h15c90 0 144.667 53 164 159l84 483h78c19.333 0 29 9.66699 29 29c0 18.667 -9.66699 28 -29 28h-68l15 84c10 54.667 38.667 82 86 82h20c20 0 30 10 30 30z" />
    <glyph glyph-name="circumflex" unicode="&#x2c6;" horiz-adv-x="530" 
d="M398 611c18 0 27 9 27 27c0 8 -3 15 -9 21l-129 131c-5.33301 5.33301 -12.666 8 -21.999 8c-8.66699 0.666992 -16 -2 -22 -8l-129 -130c-6 -6 -9 -13 -9 -21c0 -18.667 9.33301 -28 28 -28c6.66699 0 12.667 2.66699 18 8l114 109l114 -109
c5.33301 -5.33301 11.666 -8 18.999 -8z" />
    <glyph glyph-name="caron" unicode="&#x2c7;" horiz-adv-x="530" 
d="M425 771c0 18 -9.33398 27 -28.001 27c-7.33301 0 -13.333 -2.33301 -18 -7l-114 -109l-114 109c-5.33301 5.33301 -11.666 8 -18.999 8c-18 0 -27 -9 -27 -27c0 -8 3 -15 9 -21l129 -131c6 -6 13.333 -9 22 -9s16 3 22 9l129 130c6 6 9 13 9 21z" />
    <glyph glyph-name="breve" unicode="&#x2d8;" horiz-adv-x="530" 
d="M406 707c2.66699 4.66699 3.99805 9.33398 3.99805 14.001c0 7.33301 -3 13.666 -9 18.999s-12.667 8 -20 8c-9.33301 0 -16.666 -4.66699 -21.999 -14c-24.667 -44.667 -56 -67 -94 -67s-69.333 22.333 -94 67c-5.33301 9.33301 -12.666 14 -21.999 14
c-7.33301 0 -14 -2.66699 -20 -8s-9 -11.666 -9 -18.999c0 -4.66699 1.33301 -9.33398 4 -14.001c37.333 -63.333 84.333 -95 141 -95s103.667 31.667 141 95z" />
    <glyph glyph-name="dotaccent" unicode="&#x2d9;" horiz-adv-x="530" 
d="M314 689c0 13.333 -4.83301 24.666 -14.5 33.999s-21.167 14 -34.5 14s-24.833 -4.66699 -34.5 -14s-14.5 -20.666 -14.5 -33.999s4.83301 -24.833 14.5 -34.5s21.167 -14.5 34.5 -14.5s24.833 4.83301 34.5 14.5s14.5 21.167 14.5 34.5z" />
    <glyph glyph-name="ring" unicode="&#x2da;" horiz-adv-x="530" 
d="M381 689c0 32 -11.333 59.333 -34 82s-50 34 -82 34s-59.333 -11.333 -82 -34s-34 -50 -34 -82c0 -32.667 11.333 -60.334 34 -83.001s50 -34 82 -34s59.333 11.333 82 34s34 50.334 34 83.001zM338 689c0 -20 -7.16699 -37.333 -21.5 -52s-31.5 -22 -51.5 -22
c-19.333 0 -36.333 7.33301 -51 22s-22 32 -22 52s7.16699 37 21.5 51s31.5 21 51.5 21s37.167 -7 51.5 -21s21.5 -31 21.5 -51z" />
    <glyph glyph-name="ogonek" unicode="&#x2db;" horiz-adv-x="530" 
d="M375 -165c0 19.333 -9.33301 29.001 -28 29.001c-1.33301 0 -6 -0.5 -14 -1.5s-15.333 -1.5 -22 -1.5c-72 0 -104.667 32.333 -98 97l5 50h-51l-9 -56c-2 -11.333 -3 -22 -3 -32c0 -38.667 12.667 -68.334 38 -89.001s61 -31 107 -31c7.33301 0 15 0.5 23 1.5
s16 2.16699 24 3.5c18.667 4 28 14 28 30z" />
    <glyph glyph-name="tilde" unicode="&#x2dc;" horiz-adv-x="530" 
d="M423 699c-1.33301 20 -10.333 29.998 -27 29.998c-6 0 -14.667 -4.66699 -26 -14s-25.333 -14.333 -42 -15c-12.667 0 -33 6.66699 -61 20c-26.667 14 -50 20.667 -70 20c-24 -0.666992 -45 -6.83398 -63 -18.501s-27 -25.5 -27 -41.5
c1.33301 -21.333 10.333 -31.666 27 -30.999c6 0 14.667 4.66699 26 14c10.667 8.66699 24.667 13.667 42 15c13.333 0 33.333 -6.66699 60 -20c28 -13.333 51.667 -19.666 71 -18.999c24 0.666992 45 6.83398 63 18.501s27 25.5 27 41.5z" />
    <glyph glyph-name="hungarumlaut" unicode="&#x2dd;" horiz-adv-x="530" 
d="M428 729c2.66699 4.66699 4 9.99902 4 15.999c0 19.333 -10 29 -30 29c-12 0 -21 -5.33301 -27 -16l-84 -151c-2.66699 -3.33301 -4 -7.66602 -4 -12.999c0 -18 9 -27 27 -27c10 0 18 5 24 15zM239 728.999c2.66699 3.33301 4 8 4 14c0 20.667 -10.333 31 -31 31
c-12 0 -21 -5.33301 -27 -16l-84 -151c-2 -4 -3 -8.33301 -3 -13c0 -18 9 -27 27 -27c10 0 18 5 24 15z" />
    <glyph glyph-name="Delta" unicode="&#x394;" 
 />
    <glyph glyph-name="Delta" unicode="&#x2206;" 
 />
    <glyph glyph-name="Omega" unicode="&#x3a9;" 
 />
    <glyph glyph-name="Omega" unicode="&#x2126;" 
 />
    <glyph glyph-name="pi" unicode="&#x3c0;" 
 />
    <glyph glyph-name="endash" unicode="&#x2013;" horiz-adv-x="372" 
d="M388 272c0 20 -10 30 -30 30h-343c-8.66699 0 -16 -3 -22 -9s-9 -13 -9 -21c0 -20.667 10.333 -31 31 -31h343c20 0 30 10.333 30 31z" />
    <glyph glyph-name="emdash" unicode="&#x2014;" horiz-adv-x="736" 
d="M753 272c0 8 -3 15 -9 21s-13.333 9 -22 9h-707c-8.66699 0 -16 -3 -22 -9s-9 -13 -9 -21c0 -20.667 10.333 -31 31 -31h707c20.667 0 31 10.333 31 31z" />
    <glyph glyph-name="quoteleft" unicode="&#x2018;" horiz-adv-x="181" 
d="M139 617c-1.33301 25.333 -13.666 40.333 -36.999 45c2 16 8.33301 28.667 19 38c10.667 10.667 16 18.667 16 24c0 12.667 -5.66699 18.334 -17 17.001c-14 -1.33301 -29.333 -12 -46 -32c-21.333 -25.333 -32 -53 -32 -83c0.666992 -38 17 -57 49 -57
c13.333 0 24.666 4.66699 33.999 14s14 20.666 14 33.999z" />
    <glyph glyph-name="quoteright" unicode="&#x2019;" horiz-adv-x="181" 
d="M139 684c0 17.333 -4.50098 31.166 -13.501 41.499s-20.833 15.5 -35.5 15.5c-13.333 0 -24.666 -4.66699 -33.999 -14s-14 -20.666 -14 -33.999c0 -24.667 12.333 -40 37 -46c-2 -16.667 -8.33301 -29.667 -19 -39c-10.667 -10 -16 -17.333 -16 -22
c0 -11.333 6 -17 18 -17c12.667 0 28 10.333 46 31c20.667 24.667 31 52.667 31 84z" />
    <glyph glyph-name="quotesinglbase" unicode="&#x201a;" horiz-adv-x="181" 
d="M139 29c0 38.667 -16.334 58 -49.001 58c-13.333 0 -24.666 -4.5 -33.999 -13.5s-14 -20.167 -14 -33.5c0 -26 12.333 -41.333 37 -46c-2 -15.333 -8.66699 -28.333 -20 -39c-10.667 -10 -16 -17.333 -16 -22c0 -11.333 5.66699 -17 17 -17c13.333 0 29 10.333 47 31
c21.333 24.667 32 52 32 82z" />
    <glyph glyph-name="quotedblleft" unicode="&#x201c;" horiz-adv-x="330" 
d="M288 617c0 24 -12.666 39.002 -37.999 45.002c2 16 8.33301 28.667 19 38c11.333 11.333 17 19.333 17 24c-1.33301 12 -7.33301 17.667 -18 17c-14 -1.33301 -29.333 -12 -46 -32c-21.333 -25.333 -32 -53 -32 -83c0 -16.667 4.66699 -30.334 14 -41.001
s21.333 -16 36 -16c13.333 0 24.666 4.66699 33.999 14s14 20.666 14 33.999zM139.001 617.002c-1.33301 25.333 -13.666 40.333 -36.999 45c2 16 8.33301 28.667 19 38c10.667 10.667 16 18.667 16 24c0 12.667 -5.66699 18.334 -17 17.001
c-14 -1.33301 -29.333 -12 -46 -32c-21.333 -25.333 -32 -53 -32 -83c0.666992 -38 17 -57 49 -57c13.333 0 24.666 4.66699 33.999 14s14 20.666 14 33.999z" />
    <glyph glyph-name="quotedblright" unicode="&#x201d;" horiz-adv-x="330" 
d="M288 684c-0.666992 38.667 -17.333 57.666 -50 56.999c-13.333 0 -24.666 -4.66699 -33.999 -14s-14 -20.666 -14 -33.999c1.33301 -26 14 -41.333 38 -46c-2 -16.667 -8.33301 -29.667 -19 -39c-10.667 -10 -16 -17.333 -16 -22c0 -11.333 5.66699 -17 17 -17
c13.333 0 29 10.333 47 31c21.333 26 31.666 54 30.999 84zM139.001 683.999c0 17.333 -4.50098 31.166 -13.501 41.499s-20.833 15.5 -35.5 15.5c-13.333 0 -24.666 -4.66699 -33.999 -14s-14 -20.666 -14 -33.999c0 -24.667 12.333 -40 37 -46
c-2 -16.667 -8.33301 -29.667 -19 -39c-10.667 -10 -16 -17.333 -16 -22c0 -11.333 6 -17 18 -17c12.667 0 28 10.333 46 31c20.667 24.667 31 52.667 31 84z" />
    <glyph glyph-name="quotedblbase" unicode="&#x201e;" horiz-adv-x="329" 
d="M287 29c0 38.667 -16.334 58 -49.001 58c-13.333 0 -24.666 -4.5 -33.999 -13.5s-14 -20.167 -14 -33.5c0 -26 12.333 -41.333 37 -46c-2 -15.333 -8.66699 -28.333 -20 -39c-10.667 -10 -16 -17.333 -16 -22c0 -11.333 5.66699 -17 17 -17c13.333 0 29 10.333 47 31
c21.333 24.667 32 52 32 82zM138.999 29c0 38.667 -16.334 58 -49.001 58c-13.333 0 -24.666 -4.5 -33.999 -13.5s-14 -20.167 -14 -33.5c0 -26 12.333 -41.333 37 -46c-2 -15.333 -8.66699 -28.333 -20 -39c-10.667 -10 -16 -17.333 -16 -22c0 -11.333 5.66699 -17 17 -17
c13.333 0 29 10.333 47 31c21.333 24.667 32 52 32 82z" />
    <glyph glyph-name="dagger" unicode="&#x2020;" horiz-adv-x="518" 
d="M473 485c0 19.333 -9.66699 29 -29 29h-152v191c0 9.33301 -3.16699 17.166 -9.5 23.499s-14.166 9.5 -23.499 9.5c-8.66699 0 -16.334 -3.16699 -23.001 -9.5s-10 -14.166 -10 -23.499v-191h-152c-19.333 0 -29 -9.66699 -29 -29s9.66699 -29 29 -29h152v-432
c0 -8.66699 3.33301 -16.334 10 -23.001s14.334 -10 23.001 -10c9.33301 0 17.166 3.33301 23.499 10s9.5 14.334 9.5 23.001v432h152c19.333 0 29 9.66699 29 29z" />
    <glyph glyph-name="daggerdbl" unicode="&#x2021;" horiz-adv-x="428" 
d="M428 37c0 19.333 -9.66699 29 -29 29h-152v391h152c19.333 0 29 9.66699 29 29s-9.66699 29 -29 29h-152v190c0 22 -11 33 -33 33s-33 -11 -33 -33v-190h-152c-19.333 0 -29 -9.66699 -29 -29s9.66699 -29 29 -29h152v-391h-152c-19.333 0 -29 -9.66699 -29 -29
c0 -20 9.66699 -30 29 -30h152v-190c0 -9.33301 3.33301 -17.166 10 -23.499s14.334 -9.5 23.001 -9.5c9.33301 0 17.166 3.16699 23.499 9.5s9.5 14.166 9.5 23.499v190h152c19.333 0 29 10 29 30z" />
    <glyph glyph-name="bullet" unicode="&#x2022;" horiz-adv-x="499" 
d="M399 335c0 47.333 -17.001 87.667 -51.001 121c-33.333 34 -73.666 51 -120.999 51s-88 -17 -122 -51c-33.333 -33.333 -50 -73.666 -50 -120.999c0 -46.667 16.667 -87.334 50 -122.001c34.667 -33.333 75.334 -50 122.001 -50c47.333 0 87.666 16.667 120.999 50
c34 34 51 74.667 51 122z" />
    <glyph glyph-name="ellipsis" unicode="&#x2026;" horiz-adv-x="674" 
d="M606 39c0 13.333 -4.66699 24.6641 -14 33.9971s-20.666 14 -33.999 14s-24.666 -4.66699 -33.999 -14s-14 -20.666 -14 -33.999s4.66699 -24.666 14 -33.999s20.666 -14 33.999 -14s24.666 4.83301 33.999 14.5s14 20.834 14 33.501zM381 38.998
c0 13.333 -4.66699 24.6641 -14 33.9971s-20.666 14 -33.999 14s-24.666 -4.66699 -33.999 -14s-14 -20.666 -14 -33.999s4.66699 -24.666 14 -33.999s20.666 -14 33.999 -14s24.666 4.83301 33.999 14.5s14 20.834 14 33.501zM156 38.9961
c0 13.333 -4.66895 24.668 -14.002 34.001s-20.666 14 -33.999 14s-24.666 -4.66699 -33.999 -14s-14 -20.666 -14 -33.999c0 -12.667 4.83301 -23.834 14.5 -33.501s20.834 -14.5 33.501 -14.5c13.333 0 24.666 4.66699 33.999 14s14 20.666 14 33.999z" />
    <glyph glyph-name="perthousand" unicode="&#x2030;" horiz-adv-x="802" 
d="M744 101v66c0 34 -10 60.833 -30 80.5s-46 29.5 -78 29.5c-30.667 0 -56 -10.167 -76 -30.5s-30 -46.833 -30 -79.5v-66c0 -34 10 -60.833 30 -80.5s45.333 -29.5 76 -29.5c32 0 58 9.83301 78 29.5s30 46.5 30 80.5zM271 562v66c0 32.667 -10 59.167 -30 79.5
s-45.333 30.5 -76 30.5c-32 0 -57.833 -10.167 -77.5 -30.5s-29.5 -46.833 -29.5 -79.5v-66c0 -34 9.83301 -60.833 29.5 -80.5s45.5 -29.5 77.5 -29.5c30.667 0 56 9.83301 76 29.5s30 46.5 30 80.5zM426 706c4.66699 14.667 -0.333984 25 -15.001 31
c-15.333 6 -25.666 1.33301 -30.999 -14l-256 -700c-6 -16 -1 -26.333 15 -31c14.667 -6 25 -1.33301 31 14zM491.999 101v66c0 34 -9.83301 60.833 -29.5 80.5s-45.5 29.5 -77.5 29.5c-30.667 0 -56 -10.167 -76 -30.5s-30 -46.833 -30 -79.5v-66
c0 -34 10 -60.833 30 -80.5s45.333 -29.5 76 -29.5c32 0 57.833 9.83301 77.5 29.5s29.5 46.5 29.5 80.5zM695.999 98c0 -42 -20 -63 -60 -63c-38 0 -57 21 -57 63v72c0 41.333 19 62 57 62c40 0 60 -20.667 60 -62v-72zM222.999 559c0 -42 -19.333 -63 -58 -63
c-39.333 0 -59 21 -59 63v71c0 42.667 19.667 64 59 64c38.667 0 58 -21.333 58 -64v-71zM444.999 98c0 -42 -20 -63 -60 -63c-38.667 0 -58 21 -58 63v72c0 41.333 19.333 62 58 62c40 0 60 -20.667 60 -62v-72z" />
    <glyph glyph-name="guilsinglleft" unicode="&#x2039;" horiz-adv-x="337" 
d="M280 90l-173 179l173 179c6 6 9 13 9 21c0 20 -10.333 30 -31 30c-8.66699 0 -16 -3 -22 -9l-193 -200c-6 -6 -9 -13 -9 -21s3 -15 9 -21l193 -200c6 -6.66699 13.333 -10 22 -10c20 0 30 10.333 30 31c0 7.33301 -2.66699 14.333 -8 21z" />
    <glyph glyph-name="guilsinglright" unicode="&#x203a;" horiz-adv-x="337" 
d="M303 269c0 8 -3 15 -9 21l-193 200c-6 6 -13.333 9 -22 9c-20.667 0 -31 -10 -31 -30c0 -8 3 -15 9 -21l173 -179l-173 -179c-5.33301 -6.66699 -8 -13.667 -8 -21c0 -20.667 10 -31 30 -31c8.66699 0 16 3.33301 22 10l193 200c6 6 9 13 9 21z" />
    <glyph glyph-name="fraction" unicode="&#x2044;" horiz-adv-x="386" 
d="M365 698c1.33301 5.33301 2 9.33301 2 12c0 20.667 -10 31 -30 31c-14 0 -23.333 -6.33301 -28 -19l-288 -685c-1.33301 -5.33301 -2 -9.33301 -2 -12c0 -20.667 10 -31 30 -31c14 0 23.333 6.33301 28 19z" />
    <glyph glyph-name="trademark" unicode="&#x2122;" horiz-adv-x="810" 
d="M750 696c0 15.333 -7.99902 23 -23.999 23c-10 0 -17.667 -4.66699 -23 -14l-133 -284l-134 283c-5.33301 10 -13 15 -23 15c-16 0 -24 -7.66699 -24 -23v-398c0 -15.333 7.66699 -23 23 -23s23 7.66699 23 23v304l111 -238c5.33301 -9.33301 13 -14 23 -14
c9.33301 0 16.666 4.66699 21.999 14l112 239v-305c0 -15.333 8 -23 24 -23c15.333 0 23 7.66699 23 23v398zM356.001 690c0 16 -7.66699 24 -23 24h-279c-16 0 -24 -8 -24 -24s8 -24 24 -24h115v-367c0 -16 8 -24 24 -24c16.667 0 25 8 25 24v367h115c15.333 0 23 8 23 24z
" />
    <glyph glyph-name="partialdiff" unicode="&#x2202;" 
 />
    <glyph glyph-name="product" unicode="&#x220f;" 
 />
    <glyph glyph-name="summation" unicode="&#x2211;" 
 />
    <glyph glyph-name="radical" unicode="&#x221a;" 
 />
    <glyph glyph-name="infinity" unicode="&#x221e;" 
 />
    <glyph glyph-name="integral" unicode="&#x222b;" 
 />
    <glyph glyph-name="approxequal" unicode="&#x2248;" 
 />
    <glyph glyph-name="approxequal" unicode="&#x22f2;" 
 />
    <glyph glyph-name="notequal" unicode="&#x2260;" horiz-adv-x="581" 
d="M497 186c0 8 -3 15 -9 21s-13.333 9 -22 9h-177l53 118h124c8.66699 0 16 3 22 9s9 13 9 21c0 20.667 -10.333 31 -31 31h-97l43 96c6 14 2 24 -12 30s-24 2.33301 -30 -11l-51 -115h-204c-20.667 0 -31 -10.333 -31 -31c0 -8 3 -15 9 -21s13.333 -9 22 -9h176l-52 -118
h-124c-8.66699 0 -16 -3 -22 -9s-9 -13 -9 -21c0 -20.667 10.333 -31 31 -31h97l-43 -96c-6 -14 -2 -24 12 -30s24 -2.33301 30 11l51 115h204c20.667 0 31 10.333 31 31z" />
    <glyph glyph-name="lessequal" unicode="&#x2264;" 
 />
    <glyph glyph-name="greaterequal" unicode="&#x2265;" 
 />
    <glyph glyph-name="lozenge" unicode="&#x25ca;" 
 />
    <glyph glyph-name="apple" unicode="&#xf000;" horiz-adv-x="542" 
d="M463 396l-0.00195312 43.998l-43 5c-3.33301 0.666992 -6.66602 1 -9.99902 1h-8c-45.333 0 -69 -20.667 -71 -62c-23.333 10 -50 15 -80 15c-50 0 -89.333 -14.5 -118 -43.5s-43 -67.833 -43 -116.5c0 -70 26.667 -118 80 -144c-15.333 -13.333 -23 -28.666 -23 -45.999
c0 -26.667 21 -49.334 63 -68.001c19.333 -7.33301 38.833 -14.333 58.5 -21l58.5 -20c42 -17.333 63 -36.666 63 -57.999c0 -29.333 -14.333 -51.333 -43 -66c-22.667 -12.667 -50 -19 -82 -19c-31.333 0 -58.333 6 -81 18c-29.333 15.333 -44 37 -44 65
c0 4.66699 0.333008 8 1 10l-45 -22c0 -40.667 18.667 -71.667 56 -93c31.333 -17.333 69 -26 113 -26c46 0 86.333 10.333 121 31c40 24.667 60 58.667 60 102c0 46.667 -33.333 82.334 -100 107.001c-3.33301 1.33301 -12 4.33301 -26 9l-57 19
c-28.667 8.66699 -48.667 17 -60 25v42c14.667 -3.33301 30.667 -5 48 -5c48.667 0 87.834 14.167 117.501 42.5s44.5 67.5 44.5 117.5s-15 90 -45 120c2 24.667 16.667 37 44 37h51zM336.998 -148.002v4h-22v14h20v4h-20v12h22v4h-26v-38h26zM295.998 -122.002
c0 8 -4 12 -12 12h-15v-38h4v15h11c8 0 12 3.66699 12 11zM255.998 -112.002l-3 2l-14 -18l-14 18l-3 -2l15 -19v-17h4v17zM212.998 -114.002v4h-30v-4h13v-34h4v34h13zM356.998 238.998c0 -34 -9.16699 -61.167 -27.5 -81.5s-44.5 -30.5 -78.5 -30.5
c-70.667 0 -106 37.333 -106 112c0 34 9.16699 61 27.5 81s44.5 30 78.5 30c70.667 0 106 -37 106 -111zM291.998 -122.002c0 -4.66699 -2.66699 -7 -8 -7h-11v15h11c5.33301 0 8 -2.66699 8 -8z" />
    <glyph glyph-name="fi" unicode="&#xf001;" horiz-adv-x="447" 
d="M381 673c0 10.667 -3.83301 19.834 -11.5 27.501s-16.834 11.5 -27.501 11.5s-19.834 -3.83301 -27.501 -11.5s-11.5 -16.834 -11.5 -27.501c0 -11.333 3.83301 -20.833 11.5 -28.5s16.834 -11.5 27.501 -11.5s19.834 3.83301 27.501 11.5s11.5 17.167 11.5 28.5zM373 27
v446c0 8.66699 -3.16699 16.167 -9.5 22.5s-13.833 9.5 -22.5 9.5s-16.167 -3.16699 -22.5 -9.5s-9.5 -13.833 -9.5 -22.5v-446c0 -21.333 10.667 -32 32 -32s32 10.667 32 32zM277 698c0 19.333 -10 29 -30 29h-21c-56 0 -95 -18 -117 -54
c-18 -29.333 -27 -75.333 -27 -138v-36h-35c-19.333 0 -29 -9.66699 -29 -29s9.66699 -29 29 -29h35v-414c0 -21.333 10.667 -32 32 -32c20.667 0 31 10.667 31 32v414h72c19.333 0 29 9.66699 29 29s-9.66699 29 -29 29h-72v33c0 52 5.66699 87.667 17 107
c12 19.333 35.667 29 71 29h14c20 0 30 10 30 30z" />
    <glyph glyph-name="fl" unicode="&#xf002;" horiz-adv-x="454" 
d="M415 24c0 11.333 -5.33301 19.333 -16 24c-21.333 10 -32 32 -32 66v579c0 8.66699 -3.16699 16.167 -9.5 22.5s-13.833 9.5 -22.5 9.5c-21.333 0 -32 -10.667 -32 -32v-596c0 -34.667 10.667 -61.667 32 -81c16 -14 32.333 -21 49 -21c20.667 0 31 9.66699 31 29z
M277 698c0 19.333 -10 29 -30 29h-21c-56 0 -95 -18 -117 -54c-18 -29.333 -27 -75.333 -27 -138v-36h-35c-19.333 0 -29 -9.66699 -29 -29s9.66699 -29 29 -29h35v-414c0 -21.333 10.667 -32 32 -32c20.667 0 31 10.667 31 32v414h72c19.333 0 29 9.66699 29 29
s-9.66699 29 -29 29h-72v33c0 52 5.66699 87.667 17 107c12 19.333 35.667 29 71 29h14c20 0 30 10 30 30z" />
    <glyph glyph-name=".null" horiz-adv-x="0" 
 />
    <glyph glyph-name="glyph2" horiz-adv-x="288" 
 />
    <glyph glyph-name="glyph221" 
 />
    <glyph glyph-name="HT" 
 />
    <glyph glyph-name="LF" 
 />
    <glyph glyph-name="nonmarkingreturn" 
 />
    <glyph glyph-name="DLE" 
 />
    <glyph glyph-name="DC1" 
 />
    <glyph glyph-name="DC2" 
 />
    <glyph glyph-name="DC3" 
 />
    <glyph glyph-name="DC4" 
 />
    <glyph glyph-name="RS" 
 />
    <glyph glyph-name="US" 
 />
    <glyph glyph-name="DEL" 
 />
    <glyph glyph-name=".null" horiz-adv-x="0" 
 />
    </font>
</defs>
</svg>
